<!-- Generator: Adobe Illustrator 19.2.0, SVG Export Plug-In  -->
<svg version="1.1"
	 xmlns="http://www.w3.org/2000/svg" xmlns:xlink="http://www.w3.org/1999/xlink" xmlns:a="http://ns.adobe.com/AdobeSVGViewerExtensions/3.0/"
	 x="0px" y="0px" width="266.777px" height="85.613px" viewBox="0 0 266.777 85.613"
	 style="enable-background:new 0 0 266.777 85.613;" xml:space="preserve">
<style type="text/css">
	.st0{fill:#FFFFFF;}
</style>
<defs>
</defs>
<path class="st0" d="M27.848,47.551c-0.118,0.704-0.132,1.423-0.044,2.156c0.088,0.734,0.308,1.482,0.66,2.244
	c0.176,0.294,0.264,0.616,0.264,0.968c0,0.646-0.015,1.291-0.044,1.936c-0.03,0.646-0.132,1.292-0.308,1.936
	c-0.411,1.408-0.69,2.816-0.836,4.224c-0.147,1.408-0.279,2.816-0.396,4.224c-0.059,0.47-0.104,0.939-0.132,1.408
	c-0.03,0.469-0.074,0.938-0.132,1.408c0,0.176-0.015,0.352-0.044,0.528c-0.03,0.176,0.014,0.322,0.132,0.44
	c0.176,0.117,0.352,0.132,0.528,0.044c0.176-0.088,0.352-0.191,0.528-0.308c0.41-0.235,0.777-0.499,1.1-0.792
	c0.322-0.294,0.629-0.616,0.924-0.968c0.88-0.997,1.701-2.141,2.464-3.432c0.821-1.349,1.584-2.728,2.288-4.136
	s1.408-2.816,2.112-4.224c0.997-2.112,2.038-4.224,3.124-6.336c1.084-2.112,2.097-4.282,3.036-6.512
	c0.117-0.352,0.249-0.704,0.396-1.056c0.146-0.352,0.308-0.704,0.484-1.056c0.117-0.352,0.396-0.585,0.836-0.704
	c0.44-0.117,0.806-0.058,1.1,0.176c0.176,0.176,0.205,0.47,0.088,0.88c-0.47,1.056-0.866,2.142-1.188,3.256
	c-0.323,1.115-0.748,2.2-1.276,3.256c-1.056,1.995-2.024,4.004-2.904,6.028s-1.79,4.063-2.728,6.116
	c-0.646,1.35-1.335,2.699-2.068,4.048c-0.734,1.35-1.57,2.611-2.508,3.784c-1.35,1.76-2.963,3.313-4.84,4.664
	c-0.528,0.41-1.13,0.645-1.804,0.704c-0.675,0.058-1.335,0-1.98-0.176c-0.646-0.176-1.232-0.455-1.76-0.836
	c-0.528-0.382-0.91-0.836-1.144-1.364c-0.294-0.704-0.587-1.423-0.88-2.156c-0.294-0.734-0.528-1.481-0.704-2.244
	c-0.059-0.176-0.103-0.337-0.132-0.484c-0.03-0.146-0.074-0.308-0.132-0.484c-0.176-0.41-0.411-0.469-0.704-0.176
	c-0.646,0.47-1.292,0.924-1.936,1.364c-0.646,0.44-1.292,0.894-1.936,1.364c-2.992,1.76-6.103,2.024-9.328,0.792
	c-2.171-0.763-3.667-2.229-4.488-4.4c-0.411-1.056-0.704-2.126-0.88-3.212c-0.176-1.085-0.323-2.185-0.44-3.3
	c-0.528-4.4-0.088-8.461,1.32-12.188c1.408-3.725,3.578-7.201,6.512-10.428c1.114-1.232,2.317-2.2,3.608-2.904
	c2.17-1.114,4.282-1.173,6.336-0.176c0.938,0.352,1.73,0.822,2.376,1.408c1.173,0.763,1.965,1.731,2.376,2.904
	c0.176,0.47,0.352,0.924,0.528,1.364c0.176,0.44,0.41,0.866,0.704,1.276c0.233,0.47,0.264,0.822,0.088,1.056
	c-0.235,0.294-0.616,0.382-1.144,0.264c-1.115-0.293-1.936-0.938-2.464-1.936c-0.235-0.293-0.455-0.601-0.66-0.924
	c-0.206-0.322-0.367-0.66-0.484-1.012c-0.235-0.469-0.572-0.836-1.012-1.1c-0.44-0.264-0.895-0.396-1.364-0.396
	c-0.47,0-0.924,0.132-1.364,0.396c-0.44,0.264-0.778,0.69-1.012,1.276c-0.059,0.176-0.207,0.5-0.44,0.968
	c-0.646,1.174-1.232,2.376-1.76,3.608s-0.88,2.523-1.056,3.872c-0.176,1.232-0.47,2.45-0.88,3.652
	c-0.411,1.203-0.822,2.391-1.232,3.564c-1.115,3.287-0.851,6.571,0.792,9.856c0.645,1.292,1.452,2.01,2.42,2.156
	c0.968,0.147,1.892-0.308,2.772-1.364c1.349-1.701,2.552-3.476,3.608-5.324c1.056-1.848,1.76-3.886,2.112-6.116
	c0.117-0.762,0.308-1.51,0.572-2.244c0.264-0.733,0.513-1.481,0.748-2.244c0.41-1.056,0.645-2.024,0.704-2.904
	c0-0.704,0.381-1.144,1.144-1.32h0.088c1.114-0.117,1.936-0.058,2.464,0.176c0.528,0.235,0.909,1.027,1.144,2.376
	c0.058,0.47,0.088,0.924,0.088,1.364S27.848,47.023,27.848,47.551z"/>
<path class="st0" d="M42.985,66.602c-0.47,0.234-0.895,0.454-1.276,0.66c-0.382,0.205-0.719,0.542-1.012,1.012
	c-0.294,0.528-0.851,0.704-1.672,0.528c-0.88-0.235-1.467-0.514-1.76-0.836c-0.294-0.323-0.499-0.955-0.616-1.892
	c-0.235-1.818-0.323-3.622-0.264-5.412c0.058-1.789,0.146-3.564,0.264-5.324c0.117-2.112,0.337-4.208,0.66-6.292
	c0.322-2.082,0.63-4.149,0.924-6.204c0.058-0.469,0.117-0.909,0.176-1.32c0.058-0.41,0.088-0.85,0.088-1.32
	c-0.059-1.114,0.029-2.2,0.264-3.256c0.233-1.056,0.41-2.141,0.528-3.256c0.293-1.701,0.513-3.388,0.66-5.06
	c0.146-1.672,0.277-3.357,0.396-5.06c0.176-2.288,0.336-4.561,0.484-6.82c0.146-2.258,0.308-4.532,0.484-6.82
	c0.117-1.466,0.293-2.904,0.528-4.312c0.234-1.408,0.528-2.816,0.88-4.224c0-0.117,0.014-0.205,0.044-0.264
	c0.029-0.058,0.044-0.117,0.044-0.176c0.176-0.528,0.366-0.836,0.572-0.924c0.205-0.088,0.542,0.015,1.012,0.308
	c0.704,0.352,1.466,0.616,2.288,0.792c2.933,0.528,4.604,2.436,5.016,5.72c0.293,2.23,0.454,4.415,0.484,6.556
	c0.029,2.142-0.015,4.327-0.132,6.556c-0.118,2.112-0.206,4.224-0.264,6.336c-0.059,2.112-0.176,4.224-0.352,6.336
	c-0.059,0.998-0.132,1.966-0.22,2.904c-0.088,0.939-0.191,1.907-0.308,2.904c-0.059,0.119-0.088,0.294-0.088,0.528
	c0,0.294,0.058,0.47,0.176,0.528c0.117,0.059,0.292,0.03,0.528-0.088c0.117-0.117,0.234-0.264,0.352-0.44
	c0.117-0.176,0.234-0.322,0.352-0.44c0.821-0.997,1.729-1.774,2.728-2.332c0.997-0.557,2.169-0.777,3.52-0.66
	c1.525,0.059,2.992,0.704,4.4,1.936c1.173,0.998,2.024,2.142,2.552,3.432c0.528,1.291,0.85,2.699,0.968,4.224
	c0.117,1.292,0.088,2.552-0.088,3.784c-0.176,1.232-0.411,2.464-0.704,3.696c-0.118,0.352-0.191,0.69-0.22,1.012
	c-0.03,0.323-0.074,0.631-0.132,0.924c-0.059,0.471,0.176,0.704,0.704,0.704c2.288-0.117,4.194-0.88,5.72-2.288
	c0.586-0.528,1.1-1.1,1.54-1.716s0.865-1.276,1.276-1.98c0.762-1.29,1.408-2.625,1.936-4.004c0.528-1.378,1.056-2.772,1.584-4.18
	c0.293-0.938,0.821-1.525,1.584-1.76c0.352-0.117,0.616-0.176,0.792-0.176c0.528,0.059,0.762,0.382,0.704,0.968v0.44
	c-0.587,2.054-1.291,4.019-2.112,5.896c-0.822,1.878-1.848,3.667-3.08,5.368c-0.646,0.822-1.32,1.599-2.024,2.332
	c-0.704,0.734-1.496,1.395-2.376,1.98c-0.822,0.528-1.687,0.968-2.596,1.32c-0.91,0.352-1.863,0.528-2.86,0.528
	c-1.174,0-1.995,0.587-2.464,1.76c-0.822,2.054-1.703,3.96-2.64,5.72c-1.467,2.992-3.374,5.69-5.72,8.096
	c-1.702,1.642-3.432,2.376-5.192,2.2c-1.76-0.176-3.315-1.232-4.664-3.168c-0.528-0.763-0.939-1.57-1.232-2.42
	c-0.294-0.851-0.558-1.746-0.792-2.684c-0.059-0.118-0.103-0.25-0.132-0.396C43.175,66.939,43.102,66.779,42.985,66.602z
	 M55.393,60.883c0-0.352-0.059-0.601-0.176-0.748c-0.118-0.146-0.411-0.249-0.88-0.308c-0.998-0.176-1.995-0.616-2.992-1.32
	c-0.471-0.352-0.939-0.718-1.408-1.1c-0.47-0.381-0.939-0.806-1.408-1.276c-0.352-0.41-0.675-0.381-0.968,0.088
	c-0.059,0.176-0.118,0.352-0.176,0.528c-0.059,0.176-0.118,0.382-0.176,0.616c-0.176,1.056-0.558,2.054-1.144,2.992
	c-0.235,0.294-0.382,0.603-0.44,0.924c-0.059,0.323-0.088,0.66-0.088,1.012c-0.059,1.467,0.073,2.875,0.396,4.224
	c0.322,1.349,0.718,2.698,1.188,4.048c0.117,0.293,0.249,0.557,0.396,0.792c0.146,0.234,0.308,0.498,0.484,0.792
	c0.352,0.469,0.645,0.718,0.88,0.748c0.234,0.029,0.586-0.162,1.056-0.572c0.938-0.763,1.716-1.614,2.332-2.552
	c0.616-0.939,1.158-1.966,1.628-3.08c0.41-0.997,0.733-1.965,0.968-2.904C55.098,62.848,55.275,61.881,55.393,60.883z
	 M56.361,52.874c-0.235-1.173-0.411-2.405-0.528-3.696c-0.118-1.29-0.264-2.61-0.44-3.96c-0.059-0.645-0.235-1.378-0.528-2.2
	c-0.119-0.645-0.44-0.997-0.968-1.056c-0.528,0-0.939,0.235-1.232,0.704c-0.118,0.118-0.206,0.264-0.264,0.44
	c-0.059,0.176-0.147,0.323-0.264,0.44c-0.294,0.471-0.603,0.968-0.924,1.496c-0.323,0.528-0.631,1.027-0.924,1.496
	c-1.174,1.819-1.379,3.726-0.616,5.72c0.117,0.294,0.205,0.543,0.264,0.748c0.058,0.206,0.146,0.455,0.264,0.748
	c0.352,1.174,0.938,2.055,1.76,2.64c0.821,0.587,1.818,0.999,2.992,1.232c0.585,0.059,0.909-0.146,0.968-0.616
	c0.117-0.645,0.22-1.29,0.308-1.936C56.317,54.429,56.361,53.697,56.361,52.874z"/>
<path class="st0" d="M104.724,53.935c-1.232,0-2.406-0.176-3.52-0.528c-0.059,0-0.119-0.014-0.176-0.044
	c-0.059-0.029-0.147-0.044-0.264-0.044c-0.646-0.233-0.968,0.03-0.968,0.792c0.058,0.704,0.117,1.408,0.176,2.112
	c0.058,0.704,0.058,1.408,0,2.112c0,1.467-0.119,2.787-0.352,3.96c-0.235,1.467-0.851,2.816-1.848,4.048
	c-0.352,0.471-0.734,0.924-1.144,1.364c-0.411,0.44-0.851,0.866-1.32,1.276c-0.119,0.176-0.279,0.308-0.484,0.396
	c-0.206,0.088-0.396,0.191-0.572,0.308c-1.115,0.352-2.215,0.704-3.3,1.056c-1.086,0.352-2.187,0.674-3.3,0.968
	c-1.702,0.469-3.374,0.381-5.016-0.265c-4.576-1.526-7.95-4.37-10.12-8.536c-0.763-1.349-1.144-2.874-1.144-4.576
	c-0.059-3.402,0.44-6.776,1.496-10.12c0.117-0.292,0.249-0.601,0.396-0.924c0.146-0.322,0.308-0.63,0.484-0.924
	c0.762-1.173,1.54-2.317,2.332-3.432c0.792-1.114,1.686-2.17,2.684-3.168c0.821-0.821,1.642-1.657,2.464-2.508
	c0.821-0.85,1.729-1.598,2.728-2.244c0.469-0.41,0.997-0.645,1.584-0.704c0.88-0.058,1.716-0.044,2.508,0.044
	s1.598,0.279,2.42,0.572c0.528,0.294,1.026,0.587,1.496,0.88c0.469,0.294,0.909,0.675,1.32,1.144
	c0.821,0.88,1.232,1.995,1.232,3.344c0,0.352-0.176,0.528-0.528,0.528c-0.704-0.058-1.262-0.44-1.672-1.144
	c-0.235-0.469-0.44-0.821-0.616-1.056c-0.646-0.88-1.379-1.026-2.2-0.44c-0.528,0.294-0.88,0.675-1.056,1.144
	c-0.235,0.528-0.484,1.056-0.748,1.584c-0.264,0.528-0.543,1.086-0.836,1.672c-0.118,0.352-0.235,0.704-0.352,1.056
	c-0.118,0.352-0.235,0.763-0.352,1.232c-0.118,0.528-0.294,0.998-0.528,1.408c-0.47,0.646-0.822,1.335-1.056,2.068
	c-0.235,0.734-0.44,1.511-0.616,2.332c-0.294,1.291-0.675,2.406-1.144,3.344c-0.294,0.528-0.528,1.056-0.704,1.584
	c-0.176,0.528-0.264,1.115-0.264,1.76c-0.059,0.587-0.118,1.159-0.176,1.716c-0.059,0.558-0.088,1.13-0.088,1.716
	c0,0.822,0.102,1.614,0.308,2.376c0.205,0.763,0.454,1.555,0.748,2.376c0.293,0.704,0.85,1.115,1.672,1.232
	c1.29,0.118,2.317-0.146,3.08-0.792c1.701-1.29,3.138-2.742,4.312-4.356c1.173-1.613,1.965-3.505,2.376-5.676
	c0.176-0.88,0.381-1.642,0.616-2.288c0.117-0.469,0.117-0.821,0-1.056c-0.118-0.234-0.411-0.44-0.88-0.616
	c-0.176-0.117-0.367-0.205-0.572-0.264c-0.206-0.058-0.396-0.146-0.572-0.264c-1.232-0.645-1.922-1.466-2.068-2.464
	c-0.147-0.997-0.074-1.906,0.22-2.728c0.176-0.41,0.396-0.762,0.66-1.056c0.264-0.293,0.542-0.586,0.836-0.88
	c0.234-0.176,0.528-0.264,0.88-0.264c0.469-0.058,0.924-0.102,1.364-0.132c0.44-0.029,0.894,0.015,1.364,0.132
	c1.525,0.294,2.434,1.115,2.728,2.464c0.117,0.47,0.22,0.968,0.308,1.496s0.19,1.027,0.308,1.496
	c0.058,0.646,0.469,1.115,1.232,1.408c2.346,0.646,4.546,0.763,6.6,0.352c2.053-0.41,3.989-1.466,5.808-3.168
	c0.645-0.645,1.246-1.349,1.804-2.112c0.557-0.762,1.07-1.554,1.54-2.376c0.234-0.469,0.44-0.792,0.616-0.968
	c0.292-0.352,0.585-0.498,0.88-0.44c0.293,0.059,0.528,0.294,0.704,0.704c0.117,0.294,0.161,0.558,0.132,0.792
	c-0.03,0.235-0.103,0.499-0.22,0.792c-1.115,2.23-2.508,4.122-4.18,5.676c-1.672,1.555-3.74,2.655-6.204,3.3
	c-0.47,0.118-1.115,0.235-1.936,0.352C105.75,53.907,105.31,53.935,104.724,53.935z M93.284,47.775c0,0.235,0.058,0.587,0.176,1.056
	c0.176,0.646,0.616,0.998,1.32,1.056c0.293,0,0.528-0.117,0.704-0.352c0.234-0.586,0.278-1.217,0.132-1.892
	c-0.147-0.674-0.455-1.158-0.924-1.452c-0.294-0.293-0.616-0.264-0.968,0.088C93.43,46.631,93.284,47.131,93.284,47.775z"/>
<path class="st0" d="M254.523,39.803c0,1.174-0.25,2.215-0.748,3.124c-0.499,0.91-1.1,1.775-1.804,2.596
	c-0.176,0.294-0.411,0.352-0.704,0.176c-0.176-0.058-0.264-0.264-0.264-0.616c0-0.117,0.028-0.233,0.088-0.352
	c0.058-0.117,0.117-0.234,0.176-0.352c0.293-0.762,0.528-1.54,0.704-2.332s0.146-1.598-0.088-2.42c0-0.117-0.015-0.205-0.044-0.264
	c-0.03-0.058-0.044-0.146-0.044-0.264c-0.235-0.528-0.587-0.894-1.056-1.1c-0.471-0.205-0.939-0.132-1.408,0.22
	c-1.232,0.939-2.23,1.995-2.992,3.168c-0.763,1.174-1.115,2.552-1.056,4.136c0.058,2.523,0.792,4.987,2.199,7.392
	c1.114,1.878,2.024,3.872,2.729,5.984c0.058,0.235,0.205,0.528,0.439,0.88c0.528,0.646,1.145,0.704,1.849,0.176
	c0.586-0.41,1.144-0.836,1.672-1.276s1.056-0.894,1.584-1.364c1.877-1.877,3.533-3.886,4.972-6.028
	c1.438-2.141,2.654-4.473,3.652-6.996c0.117-0.292,0.264-0.585,0.439-0.88c0.293-0.645,0.762-0.792,1.408-0.44
	c0.586,0.235,0.704,0.675,0.353,1.32c-0.177,0.294-0.323,0.603-0.44,0.924c-0.118,0.323-0.235,0.631-0.352,0.924
	c-1.175,3.168-2.743,5.97-4.708,8.404c-1.967,2.435-4.299,4.65-6.996,6.644c-0.235,0.176-0.455,0.338-0.66,0.484
	c-0.206,0.147-0.427,0.308-0.66,0.484c-0.411,0.294-0.66,0.528-0.748,0.704c-0.088,0.176-0.044,0.499,0.132,0.968
	c0.704,1.878,0.969,3.814,0.792,5.808c-0.118,0.822-0.294,1.642-0.527,2.464c-0.235,0.821-0.499,1.613-0.792,2.376
	c-0.295,0.821-0.632,1.584-1.013,2.288c-0.382,0.704-0.778,1.437-1.188,2.2c-0.294,0.469-0.559,0.924-0.792,1.364
	c-0.235,0.439-0.499,0.894-0.792,1.363c-0.471,0.821-0.998,1.496-1.584,2.024c-0.587,0.528-1.351,0.88-2.288,1.056
	c-0.471,0.117-0.88,0.293-1.232,0.528c-0.294,0.293-0.615,0.381-0.968,0.264c-0.822-0.118-1.614-0.25-2.376-0.396
	c-0.763-0.147-1.496-0.367-2.2-0.66c-1.407-0.471-2.522-1.219-3.344-2.244c-0.822-1.027-1.438-2.215-1.848-3.563
	c-0.411-1.292-0.235-2.553,0.527-3.784c1.173-1.996,2.61-3.667,4.312-5.016c0.352-0.293,0.704-0.586,1.056-0.88
	c0.353-0.292,0.733-0.557,1.145-0.792c1.466-0.938,2.023-2.346,1.672-4.224c-0.295-1.408-0.616-2.816-0.968-4.224
	c-0.353-1.408-0.704-2.816-1.057-4.224c-0.47-1.525-0.851-3.05-1.144-4.576c-0.295-1.524-0.559-3.08-0.792-4.664
	c-0.471-3.93,0.469-7.392,2.815-10.384c0.117-0.176,0.265-0.352,0.44-0.528c0.176-0.176,0.321-0.352,0.439-0.528
	c0.47-0.645,0.997-1.1,1.584-1.364c0.586-0.264,1.262-0.454,2.024-0.572c0.469-0.058,0.953-0.102,1.452-0.132
	c0.498-0.029,0.981,0.015,1.452,0.132c1.056,0.176,1.993,0.558,2.815,1.144c0.234,0.119,0.44,0.25,0.616,0.396
	c0.176,0.147,0.41,0.25,0.704,0.308c1.173,0.294,2.009,0.822,2.508,1.584c0.498,0.763,0.806,1.703,0.924,2.816V39.803z
	 M240.971,70.603v-0.264c-0.059-0.117-0.074-0.234-0.044-0.352c0.029-0.117-0.044-0.234-0.22-0.352
	c-0.235-0.117-0.471-0.058-0.704,0.176c-0.235,0.176-0.44,0.352-0.616,0.528c-0.176,0.176-0.382,0.352-0.616,0.528
	c-0.47,0.41-0.954,0.821-1.452,1.232c-0.499,0.41-0.982,0.85-1.451,1.32c-0.704,0.704-1.203,1.642-1.496,2.815
	c-0.06,0.762,0.205,1.29,0.792,1.584c0.409,0.293,0.85,0.47,1.319,0.528c0.646,0.176,1.145,0.189,1.496,0.044
	c0.353-0.147,0.704-0.483,1.057-1.012c0.645-1.057,1.1-2.156,1.363-3.3C240.663,72.935,240.853,71.776,240.971,70.603z"/>
<path class="st0" d="M144.81,53.557c0-1.466,0.088-2.933,0.264-4.4c0.177-1.466,0.41-2.962,0.704-4.488
	c0.117-0.645,0.234-1.29,0.353-1.936c0.116-0.645,0.233-1.29,0.352-1.936c0.058-0.586,0.014-0.968-0.132-1.144
	c-0.147-0.176-0.515-0.293-1.1-0.352c-0.295-0.058-0.616-0.088-0.969-0.088c-0.352,0-0.675-0.029-0.968-0.088
	c-0.411,0-0.822-0.146-1.231-0.44c-0.881-0.469-0.852-0.997,0.088-1.584c0.996-0.528,1.993-0.821,2.991-0.88h0.265
	c0.645-0.058,1.113-0.22,1.408-0.484c0.293-0.264,0.497-0.718,0.615-1.364l0.528-3.696c0.353-1.877,0.704-3.725,1.056-5.544
	c0.353-1.818,0.762-3.637,1.232-5.456c0.233-0.938,0.528-1.848,0.88-2.728c0.353-0.88,0.733-1.76,1.145-2.64
	c0.233-0.585,0.469-1.158,0.703-1.716c0.234-0.557,0.47-1.1,0.704-1.628c0.117-0.117,0.19-0.264,0.221-0.44
	c0.028-0.176,0.102-0.322,0.22-0.44c0.352-0.41,0.792-0.528,1.32-0.352c0.996,0.235,1.642,0.851,1.936,1.848
	c0.176,0.646,0.353,1.307,0.528,1.98c0.176,0.675,0.321,1.335,0.439,1.98c0.177,0.939,0.205,1.878,0.088,2.816
	c-0.118,0.939-0.206,1.878-0.264,2.816c-0.176,4.518-0.264,8.976-0.264,13.376c0,0.47,0.088,0.778,0.264,0.924
	c0.176,0.147,0.498,0.279,0.968,0.396c0.646,0.118,1.261,0.308,1.849,0.572c0.585,0.264,1.144,0.572,1.672,0.924
	c0.352,0.235,0.513,0.514,0.483,0.836c-0.03,0.323-0.25,0.602-0.659,0.836c-0.295,0.118-0.572,0.235-0.837,0.352
	c-0.264,0.118-0.543,0.147-0.836,0.088c-0.352,0-0.703-0.014-1.056-0.044c-0.352-0.029-0.704,0.015-1.056,0.132
	c-0.764,0.059-1.145,0.47-1.145,1.232c-0.118,1.174-0.352,2.142-0.704,2.904c-0.118,0.294-0.19,0.572-0.22,0.836
	c-0.03,0.264-0.074,0.543-0.132,0.836c-0.118,1.056-0.206,2.099-0.264,3.124c-0.06,1.027-0.03,2.068,0.088,3.124
	c0.116,0.646,0.132,1.262,0.044,1.848c-0.088,0.587-0.162,1.203-0.221,1.848c-0.176,1.878-0.366,3.784-0.571,5.72
	c-0.206,1.936-0.396,3.872-0.572,5.808c-0.118,0.704-0.162,1.394-0.132,2.068c0.028,0.675,0.102,1.335,0.22,1.98
	c0.234,1.643,1.173,2.317,2.816,2.024c0.997-0.233,1.965-0.762,2.903-1.584c0.997-0.821,1.849-1.729,2.553-2.728
	c0.704-0.997,1.377-2.053,2.023-3.168c0.997-1.817,1.833-3.681,2.508-5.588c0.674-1.906,1.276-3.828,1.805-5.764
	c0.469-1.466,0.88-2.918,1.231-4.356c0.353-1.437,0.704-2.917,1.057-4.444c0.116-0.469,0.337-0.806,0.659-1.012
	c0.322-0.205,0.63-0.454,0.925-0.748c0.116-0.117,0.264-0.117,0.439,0c0.176,0.118,0.265,0.294,0.265,0.528
	c0.116,0.47,0.116,0.88,0,1.232c-0.471,1.702-0.896,3.375-1.276,5.016c-0.382,1.643-0.836,3.286-1.364,4.928
	c-0.646,2.171-1.379,4.312-2.2,6.424c-0.822,2.112-1.79,4.166-2.903,6.16c-0.646,1.056-1.32,2.083-2.024,3.08
	c-0.704,0.999-1.496,1.906-2.376,2.728c-1.056,1.056-2.143,1.906-3.256,2.552c-1.408,0.938-2.935,0.997-4.576,0.177
	c-0.294-0.118-0.559-0.251-0.792-0.396c-0.235-0.147-0.499-0.338-0.792-0.572c-2.875-2.347-4.987-5.368-6.336-9.063
	c-0.294-0.821-0.499-1.672-0.616-2.552c-0.118-0.88-0.234-1.729-0.352-2.552c-0.176-1.232-0.323-2.478-0.44-3.74
	C144.868,56.213,144.81,54.907,144.81,53.557z"/>
<path class="st0" d="M119.355,41.768c0.176,4.518,0,8.976-0.528,13.376c-0.118,0.822-0.22,1.672-0.308,2.552
	s-0.221,1.731-0.396,2.552c-0.118,0.352-0.162,0.704-0.132,1.056c0.029,0.352,0.073,0.704,0.132,1.056
	c0.058,0.294,0.102,0.587,0.132,0.88c0.029,0.294,0.014,0.587-0.044,0.88c0,0.646,0.293,0.968,0.88,0.968
	c1.408-0.117,2.772-0.308,4.093-0.572c1.319-0.264,2.448-1.041,3.388-2.332c0-0.058,0.058-0.146,0.176-0.264
	c0.762-0.762,1.145-1.73,1.145-2.904c-0.06-1.642-0.074-3.27-0.045-4.884c0.029-1.613,0.073-3.27,0.133-4.972
	c0.116-2.521,0.365-5,0.748-7.436c0.381-2.434,1.04-4.854,1.979-7.26c0.176-0.586,0.322-1.158,0.44-1.716
	c0.116-0.557,0.264-1.129,0.439-1.716c0.293-0.997,0.616-1.569,0.968-1.716c0.353-0.146,0.938,0.074,1.761,0.66
	c0.704,0.47,1.231,1.027,1.584,1.672c0.352,0.646,0.469,1.408,0.352,2.288c-0.118,0.763-0.103,1.496,0.044,2.2
	c0.146,0.704,0.278,1.438,0.396,2.2c0.469,2.582,0.748,5.134,0.836,7.656c0.088,2.523,0.072,5.104-0.044,7.744
	c-0.06,0.998-0.162,2.01-0.309,3.036c-0.146,1.027-0.25,2.039-0.308,3.036c-0.118,0.939-0.294,1.819-0.528,2.64
	c-0.234,0.822-0.527,1.643-0.88,2.464c-0.294,0.587-0.527,1.174-0.704,1.76c-0.176,0.586-0.352,1.202-0.527,1.848
	c-0.177,0.528-0.177,1.012,0,1.452c0.176,0.44,0.381,0.894,0.615,1.364c0.293,0.469,0.851,0.557,1.673,0.264
	c0.82-0.294,1.495-0.822,2.023-1.584c0.353-0.587,0.66-1.174,0.924-1.76c0.265-0.587,0.542-1.203,0.836-1.848
	c0.88-2.229,1.672-4.517,2.376-6.864c0.704-2.346,1.378-4.693,2.024-7.04c0.645-2.405,1.29-4.766,1.936-7.084
	c0.646-2.317,1.35-4.649,2.112-6.996c0.058-0.293,0.132-0.557,0.22-0.792c0.088-0.234,0.19-0.498,0.309-0.792
	c0.352-0.762,0.997-0.968,1.936-0.616c0.704,0.235,0.938,0.734,0.704,1.496c-0.47,1.174-0.88,2.362-1.231,3.564
	c-0.353,1.203-0.734,2.391-1.145,3.564c-1.056,3.344-2.068,6.659-3.036,9.944c-0.968,3.286-2.039,6.6-3.212,9.944
	c-0.411,1.056-0.822,2.097-1.231,3.124c-0.411,1.026-0.852,2.038-1.32,3.036c-0.471,1.114-1.175,1.965-2.112,2.553
	c-0.822,0.585-1.687,0.85-2.596,0.792c-0.91-0.06-1.716-0.411-2.42-1.057c-2.406-2.111-3.902-4.576-4.488-7.392
	c-0.059-0.117-0.103-0.234-0.132-0.352c-0.03-0.117-0.074-0.234-0.132-0.352c-0.235-0.41-0.528-0.44-0.88-0.088
	c-0.528,0.704-1.087,1.35-1.672,1.936c-0.646,0.704-1.438,1.232-2.376,1.584c-1.585,0.528-3.257,0.879-5.017,1.056
	c-0.528,0.058-1.042,0.028-1.54-0.088c-0.499-0.119-0.983-0.265-1.452-0.44c-1.936-0.88-3.55-2.024-4.84-3.432
	c-1.291-1.408-2.143-3.168-2.552-5.28c-0.294-1.114-0.427-2.244-0.396-3.388c0.029-1.144,0.103-2.302,0.221-3.476
	c0.293-1.817,0.557-3.637,0.792-5.456c0.233-1.818,0.527-3.637,0.88-5.456c0.293-1.349,0.572-2.684,0.836-4.004
	c0.264-1.32,0.572-2.625,0.924-3.916c0.41-1.465,0.674-2.961,0.792-4.488c0.058-0.234,0.088-0.469,0.088-0.704
	c0-0.233,0.058-0.469,0.176-0.704c0.117-0.585,0.47-0.792,1.057-0.616c0.997,0.352,1.965,0.851,2.903,1.496
	c0.47,0.352,0.821,0.587,1.057,0.704c0.997,0.646,1.496,1.644,1.496,2.992V41.768z"/>
<path class="st0" d="M209.203,41.523c0.176,4.518,0,8.976-0.528,13.376c-0.118,0.822-0.22,1.672-0.308,2.552
	s-0.221,1.731-0.396,2.552c-0.118,0.352-0.162,0.704-0.132,1.056c0.029,0.352,0.073,0.704,0.132,1.056
	c0.058,0.294,0.102,0.587,0.132,0.88c0.029,0.294,0.014,0.587-0.044,0.88c0,0.646,0.293,0.968,0.88,0.968
	c1.408-0.117,2.772-0.308,4.093-0.572c1.319-0.264,2.448-1.041,3.388-2.332c0-0.058,0.058-0.146,0.176-0.264
	c0.762-0.762,1.145-1.73,1.145-2.904c-0.06-1.642-0.074-3.27-0.045-4.884c0.029-1.613,0.073-3.27,0.133-4.972
	c0.116-2.521,0.365-5,0.748-7.436c0.381-2.434,1.04-4.854,1.979-7.26c0.176-0.586,0.322-1.158,0.44-1.716
	c0.116-0.557,0.264-1.129,0.439-1.716c0.293-0.997,0.616-1.569,0.968-1.716c0.353-0.146,0.938,0.074,1.761,0.66
	c0.704,0.47,1.231,1.027,1.584,1.672c0.352,0.646,0.469,1.408,0.352,2.288c-0.118,0.763-0.103,1.496,0.044,2.2
	c0.146,0.704,0.278,1.438,0.396,2.2c0.469,2.582,0.748,5.134,0.836,7.656c0.088,2.523,0.072,5.104-0.044,7.744
	c-0.06,0.998-0.162,2.01-0.309,3.036c-0.146,1.027-0.25,2.039-0.308,3.036c-0.118,0.939-0.294,1.819-0.528,2.64
	c-0.234,0.822-0.527,1.643-0.88,2.464c-0.294,0.587-0.527,1.174-0.704,1.76c-0.176,0.586-0.352,1.202-0.527,1.848
	c-0.177,0.528-0.177,1.012,0,1.452c0.176,0.44,0.381,0.894,0.615,1.364c0.293,0.469,0.851,0.557,1.673,0.264
	c0.82-0.294,1.495-0.822,2.023-1.584c0.353-0.587,0.66-1.174,0.924-1.76c0.265-0.587,0.542-1.203,0.836-1.848
	c0.88-2.229,1.672-4.517,2.376-6.864c0.704-2.346,1.378-4.693,2.024-7.04c0.645-2.405,1.29-4.766,1.936-7.084
	c0.646-2.317,1.35-4.649,2.112-6.996c0.058-0.293,0.132-0.557,0.22-0.792c0.088-0.234,0.19-0.498,0.309-0.792
	c0.352-0.762,0.997-0.968,1.936-0.616c0.704,0.235,0.938,0.734,0.704,1.496c-0.47,1.174-0.88,2.362-1.231,3.564
	c-0.353,1.203-0.734,2.391-1.145,3.564c-1.056,3.344-2.068,6.659-3.036,9.944c-0.968,3.286-2.039,6.6-3.212,9.944
	c-0.411,1.056-0.822,2.097-1.231,3.124c-0.411,1.026-0.852,2.038-1.32,3.036c-0.471,1.114-1.175,1.965-2.112,2.553
	c-0.822,0.585-1.687,0.85-2.596,0.792c-0.91-0.06-1.716-0.411-2.42-1.057c-2.406-2.111-3.902-4.576-4.488-7.392
	c-0.059-0.117-0.103-0.234-0.132-0.352c-0.03-0.117-0.074-0.234-0.132-0.352c-0.235-0.41-0.528-0.44-0.88-0.088
	c-0.528,0.704-1.087,1.35-1.672,1.936c-0.646,0.704-1.438,1.232-2.376,1.584c-1.585,0.528-3.257,0.879-5.017,1.056
	c-0.528,0.058-1.042,0.028-1.54-0.088c-0.499-0.119-0.983-0.265-1.452-0.44c-1.936-0.88-3.55-2.024-4.84-3.432
	c-1.291-1.408-2.143-3.168-2.552-5.28c-0.294-1.114-0.427-2.244-0.396-3.388c0.029-1.144,0.103-2.302,0.221-3.476
	c0.293-1.817,0.557-3.637,0.792-5.456c0.233-1.818,0.527-3.637,0.88-5.456c0.293-1.349,0.572-2.684,0.836-4.004
	c0.264-1.32,0.572-2.625,0.924-3.916c0.41-1.465,0.674-2.961,0.792-4.488c0.058-0.234,0.088-0.469,0.088-0.704
	c0-0.233,0.058-0.469,0.176-0.704c0.117-0.585,0.47-0.792,1.057-0.616c0.997,0.352,1.965,0.851,2.903,1.496
	c0.47,0.352,0.821,0.587,1.057,0.704c0.997,0.646,1.496,1.644,1.496,2.992V41.523z"/>
</svg>