<!-- Generator: Adobe Illustrator 19.2.0, SVG Export Plug-In  -->
<svg version="1.1"
	 xmlns="http://www.w3.org/2000/svg" xmlns:xlink="http://www.w3.org/1999/xlink" xmlns:a="http://ns.adobe.com/AdobeSVGViewerExtensions/3.0/"
	 x="0px" y="0px" width="378.777px" height="94.465px" viewBox="0 0 378.777 94.465"
	 style="enable-background:new 0 0 378.777 94.465;" xml:space="preserve">
<style type="text/css">
	.st0{fill:#FFFFFF;stroke:#FFFFFF;stroke-miterlimit:10;}
	.st1{fill:#FFFFFF;}
</style>
<defs>
</defs>
<g>
	<path class="st0" d="M303.467,38.124c0.117-0.88,0.249-1.686,0.396-2.42c0.146-0.733,0.277-1.481,0.396-2.244
		c0-0.176,0.014-0.352,0.044-0.528c0.029-0.176,0.073-0.381,0.133-0.616c0.116-0.41,0.264-0.674,0.439-0.792
		c0.176-0.117,0.498-0.088,0.968,0.088c1.114,0.411,2.024,0.999,2.729,1.76c0.704,0.763,1.144,1.731,1.32,2.904
		c0.292,2.464,0.527,4.87,0.703,7.216c0.177,2.347,0.205,4.752,0.089,7.216c-0.06,1.174-0.147,2.362-0.265,3.564
		c-0.118,1.203-0.235,2.391-0.352,3.564c-0.118,1.174-0.221,2.347-0.309,3.52c-0.088,1.174-0.162,2.347-0.22,3.52v1.056
		c0.233-0.117,0.41-0.234,0.528-0.352c0.116-0.117,0.233-0.234,0.352-0.352c2.17-2.288,4.077-4.722,5.72-7.304
		c1.643-2.581,3.109-5.28,4.4-8.096c0.645-1.349,1.188-2.713,1.628-4.092c0.44-1.377,0.777-2.801,1.012-4.268
		c0.059-0.41,0.293-0.557,0.704-0.44c0.821,0.352,1.145,0.968,0.969,1.848c-0.353,2.934-1.057,5.706-2.112,8.316
		c-1.056,2.611-2.376,5.148-3.96,7.612c-1.232,1.878-2.567,3.682-4.004,5.412c-1.438,1.731-3.008,3.359-4.708,4.884
		c-1.995,1.701-3.198,3.813-3.608,6.336c-0.235,1.114-0.514,2.214-0.836,3.3c-0.323,1.085-0.631,2.156-0.924,3.212
		c-0.235,0.88-0.734,1.701-1.496,2.464c-0.646,0.645-1.247,1.305-1.804,1.98c-0.559,0.674-1.131,1.364-1.716,2.068
		c-0.471,0.586-0.925,1.144-1.364,1.672c-0.44,0.528-0.924,1.026-1.452,1.496c-1.995,1.936-4.4,2.669-7.216,2.2
		c-1.351-0.235-2.436-0.836-3.256-1.804c-0.822-0.968-1.263-2.186-1.32-3.652c0-1.467,0.293-2.787,0.88-3.96
		c1.877-3.696,4.488-6.571,7.832-8.624l3.432-2.112c0.704-0.411,1.085-0.968,1.145-1.672c0.117-0.47,0.189-0.924,0.22-1.364
		c0.029-0.44,0.073-0.896,0.132-1.364c0-0.762-0.352-1.026-1.056-0.792c-0.352,0.118-0.675,0.264-0.968,0.44
		c-0.295,0.176-0.587,0.322-0.88,0.44c-0.471,0.293-0.939,0.542-1.408,0.748c-0.471,0.205-0.939,0.425-1.408,0.66
		c-0.998,0.293-1.878,0.322-2.64,0.088c-1.175-0.294-2.464-0.734-3.872-1.32c-3.345-1.525-5.251-4.224-5.721-8.096
		c-0.294-2.169-0.25-4.297,0.133-6.38c0.381-2.082,0.981-4.121,1.804-6.116c1.642-3.812,3.812-7.42,6.512-10.824
		c0.586-0.704,1.188-1.378,1.805-2.024c0.615-0.645,1.305-1.202,2.067-1.672c1.349-0.88,2.757-1.114,4.225-0.704
		c0.292,0.118,0.601,0.235,0.924,0.352c0.321,0.118,0.63,0.323,0.924,0.616c0.645,0.646,1.349,1.188,2.112,1.628
		C302.03,36.76,302.763,37.363,303.467,38.124z M288.068,88.284c0,0.352,0.028,0.645,0.088,0.88c0.176,0.938,0.601,1.54,1.275,1.804
		c0.674,0.264,1.394,0.132,2.156-0.396c0.353-0.235,0.66-0.499,0.924-0.792c0.265-0.294,0.542-0.616,0.836-0.968
		c0.47-0.763,0.938-1.496,1.408-2.2c0.469-0.704,0.909-1.467,1.32-2.288c0.233-0.411,0.44-0.836,0.616-1.276
		s0.321-0.895,0.439-1.364c0.293-1.115,0.498-2.376,0.616-3.784c0-0.646-0.294-0.851-0.88-0.616
		c-0.822,0.352-1.658,0.733-2.508,1.144c-0.852,0.41-1.6,0.938-2.244,1.584c-1.819,1.76-3.11,3.989-3.872,6.688
		C288.125,87.286,288.068,87.814,288.068,88.284z M292.995,59.156c0.058,0.646,0.117,1.292,0.176,1.936
		c0.058,0.646,0.146,1.32,0.265,2.024c0.176,1.115,0.762,1.76,1.76,1.936c0.528,0.119,1.069,0.147,1.628,0.088
		c0.557-0.058,1.1-0.176,1.628-0.352c0.41-0.176,0.674-0.528,0.792-1.056c0.058-0.352,0.117-0.704,0.176-1.056
		c0.058-0.352,0.117-0.704,0.176-1.056c0.528-2.933,1.041-5.837,1.54-8.712c0.498-2.874,1.041-5.778,1.628-8.712
		c0.234-1.349-0.059-2.64-0.88-3.872c-0.822-1.232-1.73-2.053-2.728-2.464c-0.118,0-0.206-0.014-0.264-0.044
		c-0.06-0.029-0.147-0.044-0.265-0.044c-0.411-0.058-0.734,0.059-0.968,0.352c-0.646,1.174-1.232,2.347-1.76,3.52
		c-0.528,1.174-0.939,2.406-1.232,3.696c-0.352,1.351-0.616,2.728-0.792,4.136c-0.176,1.408-0.323,2.816-0.439,4.224
		c-0.06,0.88-0.133,1.76-0.221,2.64C293.127,57.22,293.053,58.159,292.995,59.156z"/>
	<path class="st1" d="M222.318,53.216c0-3.285,0.322-6.717,0.968-10.296c0.293-1.642,0.528-3.27,0.704-4.884
		c0.177-1.613,0.41-3.241,0.704-4.884c0.293-1.818,0.586-3.622,0.88-5.412c0.293-1.789,0.586-3.593,0.881-5.412
		c0.116-0.645,0.22-1.261,0.308-1.848c0.088-0.586,0.189-1.202,0.308-1.848c0.117-1.056,0.322-2.068,0.616-3.036
		c0.293-0.968,0.674-1.95,1.145-2.948c0.703-1.701,1.421-3.373,2.155-5.016c0.733-1.642,1.422-3.314,2.068-5.016
		c0.469-1.232,1.157-1.965,2.068-2.2c0.908-0.233,1.773-0.233,2.596,0c0.469,0.119,0.85,0.338,1.144,0.66
		c0.293,0.323,0.558,0.69,0.792,1.1c0.293,0.646,0.513,1.306,0.66,1.98c0.146,0.675,0.249,1.364,0.309,2.068
		c0.176,2.758,0.028,5.663-0.44,8.712c-0.471,3.051-1.042,6.059-1.716,9.02c-0.676,2.963-1.512,5.911-2.508,8.844
		c-0.177,0.587-0.367,1.174-0.572,1.76c-0.206,0.587-0.515,1.144-0.924,1.672c-0.177,0.352-0.265,0.704-0.265,1.056V39.4
		c0.058,1.115,0.014,2.215-0.132,3.3c-0.146,1.086-0.279,2.187-0.396,3.3c-0.118,0.939-0.191,1.863-0.221,2.772
		c-0.03,0.91-0.015,1.834,0.044,2.772c0.117,1.878,0.19,3.711,0.221,5.5c0.028,1.79-0.016,3.623-0.132,5.5
		c-0.119,0.822-0.191,1.628-0.221,2.42c-0.03,0.792-0.103,1.598-0.22,2.42c0,0.352-0.074,0.704-0.22,1.056
		c-0.147,0.352-0.279,0.673-0.396,0.968c-0.411,0.704-0.675,1.29-0.792,1.76c-0.294,0.821-0.118,1.524,0.528,2.112
		c0.645,0.528,1.393,0.924,2.244,1.188c0.85,0.264,1.773,0.044,2.771-0.66c0.88-0.646,1.701-1.496,2.464-2.552
		c0.821-0.999,1.525-2.039,2.112-3.124c0.586-1.086,1.145-2.214,1.672-3.388c1.173-2.64,2.244-5.28,3.212-7.92
		c0.969-2.64,1.862-5.368,2.685-8.184c0.469-1.466,0.908-2.933,1.319-4.4c0.41-1.466,0.851-2.933,1.32-4.4
		c0.176-0.528,0.498-1.085,0.968-1.672c0.177-0.117,0.353-0.22,0.528-0.308s0.381-0.073,0.616,0.044
		c0.409,0.235,0.616,0.616,0.616,1.144c0,0.118-0.06,0.352-0.177,0.704c-1.174,3.638-2.362,7.231-3.563,10.78
		c-1.203,3.55-2.479,7.084-3.828,10.604c-0.587,1.408-1.174,2.802-1.76,4.18c-0.588,1.377-1.232,2.742-1.937,4.092
		c-0.294,0.528-0.571,1.056-0.836,1.584c-0.264,0.528-0.603,1.026-1.012,1.496c-1.467,1.936-3.286,3.197-5.456,3.784
		c-1.056,0.292-2.348,0.277-3.872-0.044c-1.526-0.323-2.787-1.159-3.784-2.508c-1.526-2.171-2.802-4.444-3.828-6.82
		s-1.716-4.884-2.067-7.524c-0.118-0.997-0.191-2.024-0.221-3.08C222.42,55.24,222.376,54.214,222.318,53.216z M234.639,29.016
		c0.176-0.176,0.277-0.337,0.308-0.484c0.029-0.146,0.103-0.278,0.221-0.396c0.292-0.938,0.557-1.862,0.792-2.772
		c0.233-0.909,0.469-1.833,0.703-2.772c0.528-2.112,0.969-4.238,1.32-6.38c0.353-2.141,0.646-4.297,0.88-6.468
		c0.177-1.701,0.088-3.432-0.264-5.192c-0.118-0.234-0.206-0.454-0.264-0.66c-0.06-0.205-0.177-0.425-0.353-0.66
		c-0.294-0.41-0.646-0.586-1.056-0.528c-0.353,0.059-0.587,0.352-0.704,0.88c-0.06,0.294-0.104,0.558-0.132,0.792
		c-0.03,0.235-0.044,0.47-0.044,0.704c-0.06,0.352-0.088,0.704-0.088,1.056s-0.03,0.675-0.089,0.968
		c-0.118,1.056-0.206,2.112-0.264,3.168c-0.059,1.056-0.118,2.142-0.176,3.256c-0.118,1.35-0.206,2.728-0.264,4.136
		c-0.06,1.408-0.118,2.816-0.177,4.224c-0.118,1.174-0.19,2.347-0.22,3.52C234.74,26.582,234.696,27.784,234.639,29.016z"/>
	<path class="st0" d="M321.092,31.209c1.818-0.88,3.432-0.909,4.84-0.088c0.645,0.352,1.261,0.748,1.848,1.188
		c0.586,0.44,1.173,0.895,1.76,1.364c0.469,0.47,0.821,0.939,1.056,1.408c0.704,1.467,1.114,2.992,1.232,4.576
		c0.117,1.174,0.161,2.362,0.132,3.564c-0.03,1.203-0.103,2.391-0.22,3.564c-0.059,0.646-0.074,1.32-0.044,2.024
		c0.029,0.704-0.015,1.379-0.132,2.024c-0.118,0.939-0.294,1.863-0.528,2.772c-0.235,0.91-0.44,1.834-0.616,2.772
		c-0.118,0.352-0.206,0.704-0.264,1.056c-0.059,0.352-0.118,0.704-0.176,1.056c-0.118,0.704-0.47,1.32-1.056,1.848
		c-0.88,0.646-1.584,1.438-2.112,2.376c-0.118,0.294-0.279,0.543-0.484,0.748c-0.207,0.206-0.396,0.396-0.572,0.572
		c-0.47,0.47-0.528,0.968-0.176,1.496c0.469,0.822,1.144,1.144,2.024,0.968c1.642-0.176,2.904-0.909,3.784-2.2
		c0.704-0.997,1.349-1.994,1.936-2.992c0.586-0.997,1.144-1.994,1.672-2.992c1.349-2.581,2.653-5.148,3.916-7.7
		c1.261-2.552,2.537-5.118,3.828-7.7c0.41-0.821,0.806-1.598,1.188-2.332c0.381-0.733,0.806-1.481,1.276-2.244
		c0.117-0.176,0.233-0.337,0.352-0.484c0.117-0.146,0.264-0.278,0.44-0.396c0.41-0.234,0.673-0.146,0.792,0.264
		c0.058,0.118,0.073,0.206,0.044,0.264c-0.03,0.059-0.044,0.147-0.044,0.264c0,1.526-0.382,2.963-1.144,4.312
		c-0.646,0.998-1.218,2.024-1.716,3.08c-0.499,1.056-1.012,2.112-1.54,3.168c-1.115,2.288-2.23,4.576-3.344,6.864
		c-1.115,2.288-2.288,4.547-3.52,6.776l-2.112,3.432c-0.763,1.173-1.791,2.17-3.08,2.992c-0.763,0.528-1.57,0.836-2.42,0.924
		c-0.852,0.088-1.672,0-2.464-0.264c-0.792-0.264-1.496-0.66-2.112-1.188c-0.616-0.528-1.042-1.115-1.276-1.76
		c-0.646-1.408-1.218-2.86-1.716-4.356c-0.499-1.496-0.807-3.036-0.924-4.62c-0.059-0.528-0.088-1.056-0.088-1.584
		s0.146-1.026,0.44-1.496c0.117-0.233,0.176-0.469,0.176-0.704c0-0.234,0.029-0.469,0.088-0.704c0.058-1.76,0.234-3.505,0.528-5.236
		c0.293-1.729,0.616-3.476,0.968-5.236c0.293-1.173,0.542-2.376,0.748-3.608c0.205-1.232,0.454-2.464,0.748-3.696
		c0.352-1.701-0.176-3.021-1.584-3.96L321.092,31.209z M324.348,23.816c0-0.469,0.014-0.865,0.044-1.188
		c0.029-0.322,0.132-0.63,0.308-0.924c0.469-1.114,1.232-1.672,2.288-1.672c2.288,0,3.989,0.939,5.104,2.816
		c0.997,1.643,0.645,3.022-1.056,4.136c-0.528,0.352-1.1,0.558-1.716,0.616c-0.616,0.059-1.203,0.015-1.76-0.132
		c-0.559-0.146-1.071-0.352-1.54-0.616c-0.47-0.264-0.822-0.572-1.056-0.924C324.436,25.225,324.23,24.521,324.348,23.816z"/>
	<path class="st0" d="M350.998,39.226c0.233-0.058,0.469-0.264,0.703-0.616c0.997-1.642,2.229-2.889,3.696-3.74
		c1.466-0.85,3.08-1.481,4.84-1.892c0.469-0.117,0.938-0.205,1.408-0.264c0.469-0.058,0.938-0.058,1.408,0
		c0.821,0.176,1.496,0.616,2.024,1.32c0.292,0.528,0.541,1.086,0.747,1.672c0.205,0.587,0.366,1.203,0.484,1.848
		c0.117,0.528,0.176,1.056,0.176,1.584c0,0.528,0.029,1.056,0.088,1.584c0,0.471,0.014,0.924,0.044,1.364
		c0.029,0.44,0.103,0.895,0.221,1.364c0.058,0.352,0.028,0.763-0.088,1.232c-0.471,2.347-0.91,4.694-1.32,7.04
		c-0.411,2.347-0.91,4.723-1.496,7.128c-0.118,0.47-0.25,0.954-0.396,1.452c-0.147,0.5-0.309,0.983-0.484,1.452
		c-0.235,0.646-0.411,1.247-0.528,1.804c-0.118,0.558-0.235,1.159-0.352,1.804c-0.118,0.822,0,1.525,0.352,2.112
		c0.528,0.938,1.202,1.056,2.024,0.352c0.352-0.235,0.645-0.528,0.88-0.88c1.056-1.29,1.936-2.698,2.64-4.224
		c1.466-3.344,2.89-6.688,4.269-10.032c1.378-3.344,2.741-6.717,4.092-10.12c0.117-0.293,0.233-0.601,0.352-0.924
		c0.117-0.322,0.234-0.66,0.353-1.012c0.058-0.058,0.088-0.117,0.088-0.176c0-0.058,0.029-0.146,0.088-0.264
		c0.058-0.176,0.205-0.264,0.44-0.264c0.293,0.119,0.439,0.264,0.439,0.44c0.058,0.059,0.088,0.147,0.088,0.264
		c0,0.587-0.015,1.174-0.044,1.76c-0.03,0.587-0.132,1.174-0.308,1.76c-0.704,1.878-1.438,3.755-2.2,5.632
		c-0.763,1.878-1.526,3.755-2.288,5.632c-0.704,1.702-1.408,3.388-2.112,5.06c-0.703,1.672-1.407,3.359-2.111,5.06
		c-0.295,0.646-0.603,1.262-0.924,1.848c-0.323,0.586-0.72,1.173-1.188,1.76c-1.936,2.64-4.195,2.933-6.776,0.88
		c-0.998-0.763-1.818-1.79-2.464-3.08c-0.646-1.349-1.1-2.713-1.363-4.092c-0.265-1.378-0.367-2.83-0.309-4.356
		c0-1.936,0.205-3.828,0.616-5.676c0.41-1.848,0.909-3.709,1.496-5.588c0.409-1.525,0.836-3.05,1.276-4.576
		c0.439-1.525,0.806-3.049,1.1-4.576c0.058-0.234,0.117-0.454,0.176-0.66c0.058-0.205,0.029-0.425-0.088-0.66
		c-0.176-0.528-0.471-0.704-0.88-0.528c-0.704,0.176-1.364,0.44-1.98,0.792c-0.615,0.352-1.13,0.822-1.54,1.408
		c-1.114,1.76-2.186,3.52-3.212,5.28c-1.026,1.76-1.951,3.579-2.771,5.456c-0.528,1.174-0.983,2.362-1.364,3.564
		c-0.382,1.203-0.66,2.45-0.836,3.74c-0.118,0.998-0.118,1.966,0,2.904c0.293,2.64-0.118,5.104-1.232,7.392
		c-0.527,0.997-1.319,1.584-2.376,1.76c-0.822,0.117-1.525-0.03-2.111-0.44c-0.295-0.176-0.587-0.352-0.88-0.528
		c-0.295-0.176-0.588-0.352-0.881-0.528c-0.527-0.233-0.938-0.704-1.231-1.408c-0.411-1.29-0.528-2.434-0.353-3.432
		c0-0.234,0.015-0.44,0.045-0.616c0.028-0.176,0.044-0.352,0.044-0.528c-0.177-2.64-0.104-5.206,0.22-7.7
		c0.321-2.493,0.806-4.972,1.452-7.436c0.527-2.346,1.056-4.678,1.584-6.996c0.527-2.317,1.025-4.649,1.496-6.996
		c0.058-0.293,0.116-0.586,0.176-0.88c0.058-0.293,0.146-0.586,0.264-0.88c0.176-0.469,0.469-0.821,0.88-1.056
		c0.586-0.41,1.32-0.616,2.2-0.616c0.528,0,0.909,0.207,1.145,0.616c0.233,0.294,0.439,0.602,0.615,0.924
		c0.177,0.323,0.381,0.66,0.616,1.012c0.41,0.822,0.616,1.79,0.616,2.904v1.848c0,0.352,0.014,0.704,0.044,1.056
		c0.029,0.352,0.102,0.704,0.22,1.056c0.117,0.235,0.161,0.455,0.132,0.66C350.835,38.772,350.879,38.992,350.998,39.226z"/>
	<path class="st0" d="M277.113,51.794c-1.232,0-2.406-0.176-3.52-0.528c-0.059,0-0.119-0.014-0.176-0.044
		c-0.059-0.029-0.147-0.044-0.264-0.044c-0.646-0.233-0.968,0.03-0.968,0.792c0.058,0.704,0.117,1.408,0.176,2.112
		c0.058,0.704,0.058,1.408,0,2.112c0,1.467-0.119,2.787-0.352,3.96c-0.235,1.467-0.851,2.816-1.848,4.048
		c-0.352,0.471-0.734,0.924-1.144,1.364c-0.411,0.44-0.851,0.866-1.32,1.276c-0.119,0.176-0.279,0.308-0.484,0.396
		c-0.206,0.088-0.396,0.191-0.572,0.308c-1.115,0.352-2.215,0.704-3.3,1.056c-1.086,0.352-2.187,0.674-3.3,0.968
		c-1.702,0.469-3.374,0.381-5.016-0.265c-4.576-1.526-7.95-4.37-10.12-8.536c-0.763-1.349-1.144-2.874-1.144-4.576
		c-0.059-3.402,0.44-6.776,1.496-10.12c0.117-0.292,0.249-0.601,0.396-0.924c0.146-0.322,0.308-0.63,0.484-0.924
		c0.762-1.173,1.54-2.317,2.332-3.432c0.792-1.114,1.686-2.17,2.684-3.168c0.821-0.821,1.642-1.657,2.464-2.508
		c0.821-0.85,1.729-1.598,2.728-2.244c0.469-0.41,0.997-0.645,1.584-0.704c0.88-0.058,1.716-0.044,2.508,0.044
		s1.598,0.279,2.42,0.572c0.528,0.294,1.026,0.587,1.496,0.88c0.469,0.294,0.909,0.675,1.32,1.144
		c0.821,0.88,1.232,1.995,1.232,3.344c0,0.352-0.176,0.528-0.528,0.528c-0.704-0.058-1.262-0.44-1.672-1.144
		c-0.235-0.469-0.44-0.821-0.616-1.056c-0.646-0.88-1.379-1.026-2.2-0.44c-0.528,0.294-0.88,0.675-1.056,1.144
		c-0.235,0.528-0.484,1.056-0.748,1.584c-0.264,0.528-0.543,1.086-0.836,1.672c-0.118,0.352-0.235,0.704-0.352,1.056
		c-0.118,0.352-0.235,0.763-0.352,1.232c-0.118,0.528-0.294,0.998-0.528,1.408c-0.47,0.646-0.822,1.335-1.056,2.068
		c-0.235,0.734-0.44,1.511-0.616,2.332c-0.294,1.291-0.675,2.406-1.144,3.344c-0.294,0.528-0.528,1.056-0.704,1.584
		c-0.176,0.528-0.264,1.115-0.264,1.76c-0.059,0.587-0.118,1.159-0.176,1.716c-0.059,0.558-0.088,1.13-0.088,1.716
		c0,0.822,0.102,1.614,0.308,2.376c0.205,0.763,0.454,1.555,0.748,2.376c0.293,0.704,0.85,1.115,1.672,1.232
		c1.29,0.118,2.317-0.146,3.08-0.792c1.701-1.29,3.138-2.742,4.312-4.356c1.173-1.613,1.965-3.505,2.376-5.676
		c0.176-0.88,0.381-1.642,0.616-2.288c0.117-0.469,0.117-0.821,0-1.056c-0.118-0.234-0.411-0.44-0.88-0.616
		c-0.176-0.117-0.367-0.205-0.572-0.264c-0.206-0.058-0.396-0.146-0.572-0.264c-1.232-0.645-1.922-1.466-2.068-2.464
		c-0.147-0.997-0.074-1.906,0.22-2.728c0.176-0.41,0.396-0.762,0.66-1.056c0.264-0.293,0.542-0.586,0.836-0.88
		c0.234-0.176,0.528-0.264,0.88-0.264c0.469-0.058,0.924-0.102,1.364-0.132c0.44-0.029,0.894,0.015,1.364,0.132
		c1.525,0.294,2.434,1.115,2.728,2.464c0.117,0.47,0.22,0.968,0.308,1.496s0.19,1.027,0.308,1.496
		c0.058,0.646,0.469,1.115,1.232,1.408c2.346,0.646,4.546,0.763,6.6,0.352c2.053-0.41,3.989-1.466,5.808-3.168
		c0.645-0.645,1.246-1.349,1.804-2.112c0.557-0.762,1.07-1.554,1.54-2.376c0.234-0.469,0.44-0.792,0.616-0.968
		c0.292-0.352,0.585-0.498,0.88-0.44c0.293,0.059,0.528,0.294,0.704,0.704c0.117,0.294,0.161,0.558,0.132,0.792
		c-0.03,0.235-0.103,0.499-0.22,0.792c-1.115,2.23-2.508,4.122-4.18,5.676c-1.672,1.555-3.74,2.655-6.204,3.3
		c-0.47,0.118-1.115,0.235-1.936,0.352C278.138,51.765,277.698,51.794,277.113,51.794z M265.673,45.634
		c0,0.235,0.058,0.587,0.176,1.056c0.176,0.646,0.616,0.998,1.32,1.056c0.293,0,0.528-0.117,0.704-0.352
		c0.234-0.586,0.278-1.217,0.132-1.892c-0.147-0.674-0.455-1.158-0.924-1.452c-0.294-0.293-0.616-0.264-0.968,0.088
		C265.819,44.49,265.673,44.989,265.673,45.634z"/>
	<path class="st1" d="M27.848,46.195c-0.118,0.704-0.132,1.423-0.044,2.156c0.088,0.734,0.308,1.482,0.66,2.244
		c0.176,0.294,0.264,0.616,0.264,0.968c0,0.646-0.015,1.291-0.044,1.936c-0.03,0.646-0.132,1.292-0.308,1.936
		c-0.411,1.408-0.69,2.816-0.836,4.224c-0.147,1.408-0.279,2.816-0.396,4.224c-0.059,0.47-0.104,0.939-0.132,1.408
		c-0.03,0.469-0.074,0.938-0.132,1.408c0,0.176-0.015,0.352-0.044,0.528c-0.03,0.176,0.014,0.322,0.132,0.44
		c0.176,0.117,0.352,0.132,0.528,0.044c0.176-0.088,0.352-0.191,0.528-0.308c0.41-0.235,0.777-0.499,1.1-0.792
		c0.322-0.294,0.629-0.616,0.924-0.968c0.88-0.997,1.701-2.141,2.464-3.432c0.821-1.349,1.584-2.728,2.288-4.136
		s1.408-2.816,2.112-4.224c0.997-2.112,2.038-4.224,3.124-6.336c1.084-2.112,2.097-4.282,3.036-6.512
		c0.117-0.352,0.249-0.704,0.396-1.056c0.146-0.352,0.308-0.704,0.484-1.056c0.117-0.352,0.396-0.585,0.836-0.704
		c0.44-0.117,0.806-0.058,1.1,0.176c0.176,0.176,0.205,0.47,0.088,0.88c-0.47,1.056-0.866,2.142-1.188,3.256
		c-0.323,1.115-0.748,2.2-1.276,3.256c-1.056,1.995-2.024,4.004-2.904,6.028s-1.79,4.063-2.728,6.116
		c-0.646,1.35-1.335,2.699-2.068,4.048c-0.734,1.35-1.57,2.611-2.508,3.784c-1.35,1.76-2.963,3.313-4.84,4.664
		c-0.528,0.41-1.13,0.645-1.804,0.704c-0.675,0.058-1.335,0-1.98-0.176c-0.646-0.176-1.232-0.455-1.76-0.836
		c-0.528-0.382-0.91-0.836-1.144-1.364c-0.294-0.704-0.587-1.423-0.88-2.156c-0.294-0.734-0.528-1.481-0.704-2.244
		c-0.059-0.176-0.103-0.337-0.132-0.484c-0.03-0.146-0.074-0.308-0.132-0.484c-0.176-0.41-0.411-0.469-0.704-0.176
		c-0.646,0.47-1.292,0.924-1.936,1.364c-0.646,0.44-1.292,0.894-1.936,1.364c-2.992,1.76-6.103,2.024-9.328,0.792
		c-2.171-0.763-3.667-2.229-4.488-4.4c-0.411-1.056-0.704-2.126-0.88-3.212c-0.176-1.085-0.323-2.185-0.44-3.3
		c-0.528-4.4-0.088-8.461,1.32-12.188c1.408-3.725,3.578-7.201,6.512-10.428c1.114-1.232,2.317-2.2,3.608-2.904
		c2.17-1.114,4.282-1.173,6.336-0.176c0.938,0.352,1.73,0.822,2.376,1.408c1.173,0.763,1.965,1.731,2.376,2.904
		c0.176,0.47,0.352,0.924,0.528,1.364c0.176,0.44,0.41,0.866,0.704,1.276c0.233,0.47,0.264,0.822,0.088,1.056
		c-0.235,0.294-0.616,0.382-1.144,0.264c-1.115-0.293-1.936-0.938-2.464-1.936c-0.235-0.293-0.455-0.601-0.66-0.924
		c-0.206-0.322-0.367-0.66-0.484-1.012c-0.235-0.469-0.572-0.836-1.012-1.1c-0.44-0.264-0.895-0.396-1.364-0.396
		c-0.47,0-0.924,0.132-1.364,0.396c-0.44,0.264-0.778,0.69-1.012,1.276c-0.059,0.176-0.207,0.5-0.44,0.968
		c-0.646,1.174-1.232,2.376-1.76,3.608s-0.88,2.523-1.056,3.872c-0.176,1.232-0.47,2.45-0.88,3.652
		c-0.411,1.203-0.822,2.391-1.232,3.564c-1.115,3.287-0.851,6.571,0.792,9.856c0.645,1.292,1.452,2.01,2.42,2.156
		c0.968,0.147,1.892-0.308,2.772-1.364c1.349-1.701,2.552-3.476,3.608-5.324c1.056-1.848,1.76-3.886,2.112-6.116
		c0.117-0.762,0.308-1.51,0.572-2.244c0.264-0.733,0.513-1.481,0.748-2.244c0.41-1.056,0.645-2.024,0.704-2.904
		c0-0.704,0.381-1.144,1.144-1.32h0.088c1.114-0.117,1.936-0.058,2.464,0.176c0.528,0.235,0.909,1.027,1.144,2.376
		c0.058,0.47,0.088,0.924,0.088,1.364S27.848,45.666,27.848,46.195z"/>
	<path class="st1" d="M74.871,7.94c0,1.174-0.074,2.318-0.221,3.432c-0.146,1.115-0.279,2.23-0.396,3.344
		c-0.117,0.998-0.219,1.966-0.307,2.904c-0.088,0.939-0.074,1.907,0.043,2.904c0.176,2.523,0.029,5.134-0.439,7.832
		c-0.295,1.526-0.527,3.051-0.703,4.576c-0.178,1.526-0.324,3.051-0.441,4.576c-0.117,1.702-0.25,3.388-0.395,5.06
		c-0.148,1.672-0.309,3.359-0.484,5.06c-0.295,2.112-0.383,4.224-0.264,6.336c0.057,0.939,0,1.863-0.178,2.772
		c-0.176,0.91-0.293,1.834-0.352,2.772c0,0.176-0.059,0.382-0.176,0.616c-0.646,1.056-0.953,2.171-0.924,3.344
		c0.029,1.174-0.016,2.347-0.133,3.52c0,0.41,0.029,0.704,0.088,0.88c0.059,0.645,0.381,0.85,0.969,0.616
		c2.346-0.88,4.4-2.2,6.16-3.96c1.408-1.408,2.609-2.933,3.607-4.576c0.998-1.642,1.877-3.373,2.641-5.192
		c0.996-2.229,1.805-4.502,2.42-6.82c0.615-2.317,1.158-4.678,1.629-7.084l0.527-2.64c0.057-0.41,0.352-0.616,0.879-0.616
		c0.705,0.118,1.145,0.308,1.32,0.572c0.176,0.264,0.205,0.748,0.088,1.452c-0.586,3.168-1.305,6.248-2.156,9.24
		c-0.85,2.992-1.979,5.926-3.387,8.8c-0.822,1.702-1.746,3.3-2.771,4.796c-1.027,1.496-2.217,2.891-3.564,4.18
		c-2.23,2.17-4.695,3.754-7.393,4.752c-2.172,0.88-4.137,0.557-5.896-0.968c-0.703-0.646-1.291-1.335-1.76-2.068
		c-0.471-0.734-0.879-1.511-1.232-2.332c-0.176-0.41-0.352-0.821-0.527-1.232c-0.176-0.41-0.352-0.85-0.527-1.32
		c-0.176-0.469-0.471-0.528-0.881-0.176c-0.117,0.118-0.191,0.206-0.219,0.264c-0.031,0.059-0.104,0.147-0.221,0.264
		c-2.699,2.874-6.102,4.165-10.209,3.872c-1.174-0.118-2.287-0.294-3.344-0.528c-1.877-0.47-3.387-1.377-4.531-2.728
		c-1.145-1.349-1.863-3.021-2.156-5.016c-0.234-1.584-0.279-3.153-0.132-4.708c0.146-1.554,0.366-3.124,0.659-4.708
		c0.293-1.701,0.674-3.402,1.145-5.104c0.469-1.701,1.086-3.344,1.848-4.928c0.41-0.821,0.85-1.613,1.32-2.376
		c0.469-0.762,0.969-1.525,1.496-2.288c1.057-1.349,2.244-2.478,3.564-3.388c1.32-0.909,2.742-1.716,4.268-2.42
		c1.818-0.938,3.607-0.968,5.367-0.088c0.471,0.118,0.852,0.176,1.145,0.176c0.645,0,1.086-0.102,1.32-0.308
		c0.234-0.205,0.41-0.63,0.527-1.276c0.586-3.52,1.262-7.025,2.025-10.516c0.762-3.49,1.523-6.996,2.287-10.516
		c0.176-0.997,0.453-1.936,0.836-2.816c0.381-0.88,0.836-1.73,1.365-2.552c0.115-0.176,0.264-0.352,0.439-0.528
		c0.176-0.176,0.322-0.352,0.439-0.528c0.469-0.528,1.086-0.674,1.848-0.44c1.057,0.528,1.936,1.188,2.641,1.98
		c0.703,0.792,1.113,1.804,1.232,3.036c0.057,0.471,0.102,0.939,0.131,1.408C74.855,7.002,74.871,7.471,74.871,7.94z M50.142,61.62
		c0.059,0.294,0.088,0.499,0.088,0.616c0,0.118,0,0.235,0,0.352c0.176,1.174,0.82,1.79,1.936,1.848c0.469,0,0.924-0.058,1.365-0.176
		c0.439-0.117,0.865-0.352,1.275-0.704c0.82-0.821,1.541-1.657,2.156-2.508c0.615-0.85,1.158-1.774,1.627-2.772
		c0.234-0.41,0.322-0.88,0.266-1.408c-0.176-0.821-0.236-1.672-0.176-2.552c0.057-0.88,0.115-1.73,0.176-2.552
		c0.115-2.288,0.307-4.576,0.572-6.864c0.264-2.288,0.541-4.576,0.836-6.864c0.115-0.528,0.232-1.056,0.352-1.584
		c0.117-0.528,0.145-1.085,0.088-1.672c-0.059-0.645-0.412-0.968-1.057-0.968c-0.471,0-0.822,0.176-1.057,0.528
		c-0.586,0.704-1.143,1.423-1.672,2.156c-0.527,0.734-0.967,1.54-1.318,2.42c-0.354,0.88-0.676,1.76-0.969,2.64
		c-0.295,0.88-0.559,1.791-0.793,2.728c-0.586,2.054-1.086,4.136-1.496,6.248c-0.41,2.112-0.85,4.224-1.318,6.336
		c-0.176,0.822-0.34,1.643-0.484,2.464C50.392,60.154,50.26,60.916,50.142,61.62z"/>
	<path class="st1" d="M135.308,31.35c1.818-0.88,3.432-0.909,4.84-0.088c0.645,0.352,1.261,0.748,1.848,1.188
		c0.586,0.44,1.173,0.895,1.76,1.364c0.469,0.47,0.821,0.939,1.056,1.408c0.704,1.467,1.114,2.992,1.232,4.576
		c0.117,1.174,0.161,2.362,0.132,3.564c-0.03,1.203-0.103,2.391-0.22,3.564c-0.059,0.646-0.074,1.32-0.044,2.024
		c0.029,0.704-0.015,1.379-0.132,2.024c-0.118,0.939-0.294,1.863-0.528,2.772c-0.235,0.91-0.44,1.834-0.616,2.772
		c-0.118,0.352-0.206,0.704-0.264,1.056c-0.059,0.352-0.118,0.704-0.176,1.056c-0.118,0.704-0.47,1.32-1.056,1.848
		c-0.88,0.646-1.584,1.438-2.112,2.376c-0.118,0.294-0.279,0.543-0.484,0.748c-0.207,0.206-0.396,0.396-0.572,0.572
		c-0.47,0.47-0.528,0.968-0.176,1.496c0.469,0.822,1.144,1.144,2.024,0.968c1.642-0.176,2.904-0.909,3.784-2.2
		c0.704-0.997,1.349-1.994,1.936-2.992c0.586-0.997,1.144-1.994,1.672-2.992c1.349-2.581,2.653-5.148,3.916-7.7
		c1.261-2.552,2.537-5.118,3.828-7.7c0.41-0.821,0.806-1.598,1.188-2.332c0.381-0.733,0.806-1.481,1.276-2.244
		c0.117-0.176,0.233-0.337,0.352-0.484c0.117-0.146,0.264-0.278,0.44-0.396c0.41-0.234,0.673-0.146,0.792,0.264
		c0.058,0.118,0.073,0.206,0.044,0.264c-0.03,0.059-0.044,0.147-0.044,0.264c0,1.526-0.382,2.963-1.144,4.312
		c-0.646,0.998-1.218,2.024-1.716,3.08c-0.499,1.056-1.012,2.112-1.54,3.168c-1.115,2.288-2.23,4.576-3.344,6.864
		c-1.115,2.288-2.288,4.547-3.52,6.776l-2.112,3.432c-0.763,1.173-1.791,2.17-3.08,2.992c-0.763,0.528-1.57,0.836-2.42,0.924
		c-0.852,0.088-1.672,0-2.464-0.264c-0.792-0.264-1.496-0.66-2.112-1.188c-0.616-0.528-1.042-1.115-1.276-1.76
		c-0.646-1.408-1.218-2.86-1.716-4.356c-0.499-1.496-0.807-3.036-0.924-4.62c-0.059-0.528-0.088-1.056-0.088-1.584
		s0.146-1.026,0.44-1.496c0.117-0.233,0.176-0.469,0.176-0.704c0-0.234,0.029-0.469,0.088-0.704c0.058-1.76,0.234-3.505,0.528-5.236
		c0.293-1.729,0.616-3.476,0.968-5.236c0.293-1.173,0.542-2.376,0.748-3.608c0.205-1.232,0.454-2.464,0.748-3.696
		c0.352-1.701-0.176-3.021-1.584-3.96L135.308,31.35z M138.564,23.958c0-0.469,0.014-0.865,0.044-1.188
		c0.029-0.322,0.132-0.63,0.308-0.924c0.469-1.114,1.232-1.672,2.288-1.672c2.288,0,3.989,0.939,5.104,2.816
		c0.997,1.643,0.645,3.022-1.056,4.136c-0.528,0.352-1.1,0.558-1.716,0.616c-0.616,0.059-1.203,0.015-1.76-0.132
		c-0.559-0.146-1.071-0.352-1.54-0.616c-0.47-0.264-0.822-0.572-1.056-0.924C138.652,25.367,138.445,24.662,138.564,23.958z"/>
	<path class="st1" d="M98.118,42.756c0.177-0.117,0.278-0.234,0.309-0.352c0.028-0.117,0.072-0.234,0.132-0.352
		c0.41-0.704,0.806-1.408,1.188-2.112c0.381-0.704,0.748-1.437,1.1-2.2c0.176-0.293,0.352-0.586,0.528-0.88
		c0.176-0.293,0.352-0.586,0.527-0.88c0.821-1.173,1.893-1.789,3.212-1.848c1.32-0.058,2.449,0.47,3.389,1.584
		c0.645,0.822,0.968,1.76,0.968,2.816c0,0.822-0.06,1.658-0.176,2.508c-0.118,0.851-0.265,1.687-0.44,2.508v0.528
		c0,0.118,0.029,0.235,0.088,0.352c0.293-0.117,0.498-0.278,0.616-0.484c0.117-0.205,0.233-0.425,0.352-0.66
		c0.646-1.173,1.35-2.273,2.112-3.3c0.762-1.026,1.554-2.038,2.376-3.036c1.29-1.466,2.874-2.317,4.752-2.552
		c1.232-0.176,2.317,0.104,3.256,0.836c0.938,0.734,1.496,1.716,1.673,2.948c0.116,1.408,0,2.699-0.353,3.872
		c-1.291,5.163-2.464,10.311-3.52,15.444c-1.057,5.134-2.172,10.281-3.345,15.444c-0.118,0.645-0.176,1.305-0.176,1.98
		c0,0.674,0.058,1.334,0.176,1.98c0.117,0.997,0.646,1.408,1.584,1.232c0.469-0.059,0.938-0.294,1.408-0.704
		c0.586-0.352,1.101-0.748,1.54-1.188c0.44-0.44,0.894-0.895,1.364-1.364c2.992-3.168,5.426-6.806,7.304-10.912
		c1.525-3.344,2.948-6.702,4.269-10.076c1.319-3.373,2.653-6.79,4.004-10.252c0.233-0.586,0.453-1.158,0.66-1.716
		c0.204-0.557,0.453-1.128,0.747-1.716c0.059-0.117,0.103-0.22,0.133-0.308c0.028-0.088,0.072-0.189,0.132-0.308
		c0.176-0.234,0.409-0.352,0.704-0.352c0.176,0.059,0.321,0.235,0.439,0.528c0.117,0.646,0.088,1.232-0.088,1.76
		c-0.294,1.408-0.675,2.788-1.144,4.136c-0.471,1.35-0.939,2.699-1.408,4.048c-2.23,5.808-4.606,11.528-7.128,17.16
		c-1.76,3.872-4.107,7.274-7.04,10.208c-0.294,0.293-0.603,0.586-0.924,0.88c-0.323,0.293-0.66,0.557-1.013,0.792
		c-2.347,1.642-4.723,1.701-7.128,0.176c-2.64-1.643-4.106-4.107-4.399-7.392c-0.118-1.291-0.118-2.583,0-3.872
		c0.116-1.29,0.321-2.581,0.616-3.872c0.645-3.285,1.305-6.541,1.979-9.768c0.674-3.226,1.452-6.453,2.332-9.68
		c0.233-0.704,0.454-1.408,0.66-2.112c0.205-0.704,0.396-1.377,0.572-2.024c0.058-0.117,0.116-0.249,0.176-0.396
		c0.058-0.146,0-0.278-0.176-0.396c-0.119-0.117-0.235-0.117-0.353,0c-0.118,0.118-0.235,0.235-0.352,0.352
		c-1.057,1.174-1.879,2.376-2.464,3.608c-0.646,1.174-1.307,2.376-1.98,3.608c-0.675,1.232-1.364,2.435-2.068,3.608
		c-0.294,0.47-0.571,0.924-0.836,1.364c-0.264,0.44-0.543,0.895-0.836,1.364c-0.763,0.939-1.319,1.936-1.672,2.992
		c-0.47,1.056-1.144,1.232-2.023,0.528c-0.646-0.469-0.969-1.144-0.969-2.024c-0.118-1.525,0-2.933,0.353-4.224
		c0.352-1.525,0.66-3.021,0.924-4.488c0.264-1.466,0.572-2.933,0.924-4.4c0.117-0.586,0.233-1.144,0.353-1.672
		c0.116-0.528,0.233-1.085,0.352-1.672c0.058-0.528,0.058-1.056,0-1.584c0-0.41-0.264-0.528-0.792-0.352
		c-0.294,0.06-0.528,0.294-0.704,0.704c-0.118,0.294-0.264,0.559-0.439,0.792c-0.177,0.235-0.323,0.499-0.44,0.792
		c-1.115,2.288-2.143,4.591-3.08,6.908c-0.939,2.318-1.819,4.679-2.64,7.084c-0.353,0.998-0.734,1.995-1.145,2.992
		c-0.411,0.998-0.88,1.995-1.408,2.992c-0.352,0.646-0.602,1.35-0.747,2.112c-0.147,0.763-0.251,1.526-0.309,2.288
		c0,1.292-0.264,2.318-0.792,3.08c-0.118,0.235-0.206,0.455-0.264,0.66c-0.06,0.206-0.118,0.455-0.176,0.748
		c-0.119,0.585-0.323,1.1-0.616,1.54c-0.295,0.44-0.764,0.718-1.408,0.836c-0.646,0.176-1.232,0.146-1.76-0.088
		c-0.528-0.235-0.998-0.587-1.408-1.056c-0.939-1.29-1.526-2.698-1.76-4.224c-0.235-0.997-0.396-2.024-0.484-3.08
		c-0.088-1.056-0.191-2.112-0.308-3.168c-0.295-3.168-0.427-6.306-0.396-9.416c0.029-3.109,0.161-6.248,0.396-9.416
		c0.233-2.698,0.615-5.337,1.144-7.92c0.528-2.581,1.202-5.162,2.024-7.744c0.233-0.938,0.82-1.202,1.76-0.792
		c0.645,0.294,1.202,0.66,1.672,1.1c0.469,0.44,0.88,0.924,1.232,1.452c1.056,1.526,1.877,3.124,2.464,4.796
		c0.586,1.672,1.025,3.447,1.319,5.324c0.117,1.056,0.205,2.112,0.265,3.168c0.058,1.056,0.146,2.112,0.264,3.168
		c0.058,0.118,0.088,0.235,0.088,0.352C97.943,42.522,98,42.639,98.118,42.756z"/>
	<path class="st1" d="M165.555,37.879c0.233-0.058,0.469-0.264,0.703-0.616c0.997-1.642,2.229-2.889,3.696-3.74
		c1.466-0.85,3.08-1.481,4.84-1.892c0.469-0.117,0.938-0.205,1.408-0.264c0.469-0.058,0.938-0.058,1.408,0
		c0.821,0.176,1.496,0.616,2.024,1.32c0.292,0.528,0.541,1.086,0.747,1.672c0.205,0.587,0.366,1.203,0.484,1.848
		c0.117,0.528,0.176,1.056,0.176,1.584c0,0.528,0.029,1.056,0.088,1.584c0,0.471,0.014,0.924,0.044,1.364
		c0.029,0.44,0.103,0.895,0.221,1.364c0.058,0.352,0.028,0.763-0.088,1.232c-0.471,2.347-0.91,4.694-1.32,7.04
		c-0.411,2.347-0.91,4.723-1.496,7.128c-0.118,0.47-0.25,0.954-0.396,1.452c-0.147,0.5-0.309,0.983-0.484,1.452
		c-0.235,0.646-0.411,1.247-0.528,1.804c-0.118,0.558-0.235,1.159-0.352,1.804c-0.118,0.822,0,1.525,0.352,2.112
		c0.528,0.938,1.202,1.056,2.024,0.352c0.352-0.235,0.645-0.528,0.88-0.88c1.056-1.29,1.936-2.698,2.64-4.224
		c1.466-3.344,2.89-6.688,4.269-10.032c1.378-3.344,2.741-6.717,4.092-10.12c0.117-0.293,0.233-0.601,0.352-0.924
		c0.117-0.322,0.234-0.66,0.353-1.012c0.058-0.058,0.088-0.117,0.088-0.176c0-0.058,0.029-0.146,0.088-0.264
		c0.058-0.176,0.205-0.264,0.44-0.264c0.293,0.119,0.439,0.264,0.439,0.44c0.058,0.059,0.088,0.147,0.088,0.264
		c0,0.587-0.015,1.174-0.044,1.76c-0.03,0.587-0.132,1.174-0.308,1.76c-0.704,1.878-1.438,3.755-2.2,5.632
		c-0.763,1.878-1.526,3.755-2.288,5.632c-0.704,1.702-1.408,3.388-2.112,5.06c-0.703,1.672-1.407,3.359-2.111,5.06
		c-0.295,0.646-0.603,1.262-0.924,1.848c-0.323,0.586-0.72,1.173-1.188,1.76c-1.936,2.64-4.195,2.933-6.776,0.88
		c-0.998-0.763-1.818-1.79-2.464-3.08c-0.646-1.349-1.1-2.713-1.363-4.092c-0.265-1.378-0.367-2.83-0.309-4.356
		c0-1.936,0.205-3.828,0.616-5.676c0.41-1.848,0.909-3.709,1.496-5.588c0.409-1.525,0.836-3.05,1.276-4.576
		c0.439-1.525,0.806-3.049,1.1-4.576c0.058-0.234,0.117-0.454,0.176-0.66c0.058-0.205,0.029-0.425-0.088-0.66
		c-0.176-0.528-0.471-0.704-0.88-0.528c-0.704,0.176-1.364,0.44-1.98,0.792c-0.615,0.352-1.13,0.822-1.54,1.408
		c-1.114,1.76-2.186,3.52-3.212,5.28c-1.026,1.76-1.951,3.579-2.771,5.456c-0.528,1.174-0.983,2.362-1.364,3.564
		c-0.382,1.203-0.66,2.45-0.836,3.74c-0.118,0.998-0.118,1.966,0,2.904c0.293,2.64-0.118,5.104-1.232,7.392
		c-0.527,0.997-1.319,1.584-2.376,1.76c-0.822,0.117-1.525-0.03-2.111-0.44c-0.295-0.176-0.587-0.352-0.88-0.528
		c-0.295-0.176-0.588-0.352-0.881-0.528c-0.527-0.233-0.938-0.704-1.231-1.408c-0.411-1.29-0.528-2.434-0.353-3.432
		c0-0.234,0.015-0.44,0.045-0.616c0.028-0.176,0.044-0.352,0.044-0.528c-0.177-2.64-0.104-5.206,0.22-7.7
		c0.321-2.493,0.806-4.972,1.452-7.436c0.527-2.346,1.056-4.678,1.584-6.996c0.527-2.317,1.025-4.649,1.496-6.996
		c0.058-0.293,0.116-0.586,0.176-0.88c0.058-0.293,0.146-0.586,0.264-0.88c0.176-0.469,0.469-0.821,0.88-1.056
		c0.586-0.41,1.32-0.616,2.2-0.616c0.528,0,0.909,0.207,1.145,0.616c0.233,0.294,0.439,0.602,0.615,0.924
		c0.177,0.323,0.381,0.66,0.616,1.012c0.41,0.822,0.616,1.79,0.616,2.904v1.848c0,0.352,0.014,0.704,0.044,1.056
		c0.029,0.352,0.102,0.704,0.22,1.056c0.117,0.235,0.161,0.455,0.132,0.66C165.392,37.425,165.436,37.646,165.555,37.879z"/>
</g>
</svg>