<!-- Generator: Adobe Illustrator 19.2.0, SVG Export Plug-In  -->
<svg version="1.1"
	 xmlns="http://www.w3.org/2000/svg" xmlns:xlink="http://www.w3.org/1999/xlink" xmlns:a="http://ns.adobe.com/AdobeSVGViewerExtensions/3.0/"
	 x="0px" y="0px" width="326.109px" height="74.914px" viewBox="0 0 326.109 74.914"
	 style="enable-background:new 0 0 326.109 74.914;" xml:space="preserve">
<style type="text/css">
	.st0{fill:#FFFFFF;}
</style>
<defs>
</defs>
<path class="st0" d="M158.489,35.397c-0.118,0.704-0.132,1.423-0.044,2.156c0.088,0.734,0.308,1.482,0.66,2.244
	c0.176,0.294,0.264,0.616,0.264,0.968c0,0.646-0.015,1.291-0.044,1.936c-0.03,0.646-0.132,1.292-0.308,1.936
	c-0.411,1.408-0.69,2.816-0.836,4.224c-0.147,1.408-0.279,2.816-0.396,4.224c-0.059,0.47-0.104,0.939-0.132,1.408
	c-0.03,0.469-0.074,0.938-0.132,1.408c0,0.176-0.015,0.352-0.044,0.528c-0.03,0.176,0.014,0.322,0.132,0.44
	c0.176,0.117,0.352,0.132,0.528,0.044c0.176-0.088,0.352-0.191,0.528-0.308c0.41-0.235,0.777-0.499,1.1-0.792
	c0.322-0.294,0.629-0.616,0.924-0.968c0.88-0.997,1.701-2.141,2.464-3.432c0.821-1.349,1.584-2.728,2.288-4.136
	s1.408-2.816,2.112-4.224c0.997-2.112,2.038-4.224,3.124-6.336c1.084-2.112,2.097-4.282,3.036-6.512
	c0.117-0.352,0.249-0.704,0.396-1.056c0.146-0.352,0.308-0.704,0.484-1.056c0.117-0.352,0.396-0.585,0.836-0.704
	c0.44-0.117,0.806-0.058,1.1,0.176c0.176,0.176,0.205,0.47,0.088,0.88c-0.47,1.056-0.866,2.142-1.188,3.256
	c-0.323,1.115-0.748,2.2-1.276,3.256c-1.056,1.995-2.024,4.004-2.904,6.028s-1.79,4.063-2.728,6.116
	c-0.646,1.35-1.335,2.699-2.068,4.048c-0.734,1.35-1.57,2.611-2.508,3.784c-1.35,1.76-2.963,3.313-4.84,4.664
	c-0.528,0.41-1.13,0.645-1.804,0.704c-0.675,0.058-1.335,0-1.98-0.176c-0.646-0.176-1.232-0.455-1.76-0.836
	c-0.528-0.382-0.91-0.836-1.144-1.364c-0.294-0.704-0.587-1.423-0.88-2.156c-0.294-0.734-0.528-1.481-0.704-2.244
	c-0.059-0.176-0.103-0.337-0.132-0.484c-0.03-0.146-0.074-0.308-0.132-0.484c-0.176-0.41-0.411-0.469-0.704-0.176
	c-0.646,0.47-1.292,0.924-1.936,1.364c-0.646,0.44-1.292,0.894-1.936,1.364c-2.992,1.76-6.103,2.024-9.328,0.792
	c-2.171-0.763-3.667-2.229-4.488-4.4c-0.411-1.056-0.704-2.126-0.88-3.212c-0.176-1.085-0.323-2.185-0.44-3.3
	c-0.528-4.4-0.088-8.461,1.32-12.188c1.408-3.725,3.578-7.201,6.512-10.428c1.114-1.232,2.317-2.2,3.608-2.904
	c2.17-1.114,4.282-1.173,6.336-0.176c0.938,0.352,1.73,0.822,2.376,1.408c1.173,0.763,1.965,1.731,2.376,2.904
	c0.176,0.47,0.352,0.924,0.528,1.364c0.176,0.44,0.41,0.866,0.704,1.276c0.233,0.47,0.264,0.822,0.088,1.056
	c-0.235,0.294-0.616,0.382-1.144,0.264c-1.115-0.293-1.936-0.938-2.464-1.936c-0.235-0.293-0.455-0.601-0.66-0.924
	c-0.206-0.322-0.367-0.66-0.484-1.012c-0.235-0.469-0.572-0.836-1.012-1.1c-0.44-0.264-0.895-0.396-1.364-0.396
	c-0.47,0-0.924,0.132-1.364,0.396c-0.44,0.264-0.778,0.69-1.012,1.276c-0.059,0.176-0.207,0.5-0.44,0.968
	c-0.646,1.174-1.232,2.376-1.76,3.608s-0.88,2.523-1.056,3.872c-0.176,1.232-0.47,2.45-0.88,3.652
	c-0.411,1.203-0.822,2.391-1.232,3.564c-1.115,3.287-0.851,6.571,0.792,9.856c0.645,1.292,1.452,2.01,2.42,2.156
	c0.968,0.147,1.892-0.308,2.772-1.364c1.349-1.701,2.552-3.476,3.608-5.324c1.056-1.848,1.76-3.886,2.112-6.116
	c0.117-0.762,0.308-1.51,0.572-2.244c0.264-0.733,0.513-1.481,0.748-2.244c0.41-1.056,0.645-2.024,0.704-2.904
	c0-0.704,0.381-1.144,1.144-1.32h0.088c1.114-0.117,1.936-0.058,2.464,0.176c0.528,0.235,0.909,1.027,1.144,2.376
	c0.058,0.47,0.088,0.924,0.088,1.364S158.489,34.868,158.489,35.397z"/>
<path class="st0" d="M10.789,56.868c-3.755,0-6.542-1.584-8.36-4.752c-0.646-1.173-1.159-2.42-1.54-3.74
	c-0.382-1.32-0.631-2.654-0.748-4.004c-0.235-1.994-0.176-3.945,0.176-5.852c0.352-1.906,0.85-3.798,1.496-5.676
	c0.821-2.346,1.936-4.722,3.344-7.128c0.762-1.349,1.672-2.537,2.728-3.564c1.056-1.026,2.2-1.95,3.432-2.772
	c0.645-0.41,1.305-0.63,1.98-0.66c0.674-0.029,1.334,0.015,1.98,0.132c0.88,0.235,1.73,0.528,2.552,0.88
	c0.821,0.352,1.613,0.822,2.376,1.408c1.173,0.939,1.906,2.054,2.2,3.344c0.058,0.176,0.102,0.367,0.132,0.572
	c0.029,0.206,0.014,0.396-0.044,0.572c-0.059,0.352-0.323,0.587-0.792,0.704c-0.47,0-0.734-0.176-0.792-0.528
	c-0.118-0.352-0.25-0.688-0.396-1.012c-0.147-0.322-0.308-0.63-0.484-0.924c-0.471-0.585-1.027-0.997-1.672-1.232
	c-0.587-0.292-1.056-0.117-1.408,0.528c-0.118,0.118-0.176,0.206-0.176,0.264c-0.822,1.878-1.584,3.784-2.288,5.72
	c-0.704,1.936-1.232,3.931-1.584,5.984c-0.352,1.584-0.528,3.227-0.528,4.928c0.058,1.76-0.382,3.344-1.32,4.752
	c-0.646,0.998-1.174,2.039-1.584,3.124c-0.411,1.086-0.763,2.186-1.056,3.3c-0.294,0.822-0.323,1.408-0.088,1.76
	c0.233,0.352,0.733,0.646,1.496,0.88c2.757,0.88,5.426,0.645,8.008-0.704c6.981-3.52,11.909-9.034,14.784-16.544
	c0.938-2.522,1.672-5.221,2.2-8.096c0-0.176,0.058-0.44,0.176-0.792c0.176-0.292,0.381-0.44,0.616-0.44
	c0.528,0,0.982,0.22,1.364,0.66c0.381,0.44,0.513,0.924,0.396,1.452c-0.235,0.998-0.484,1.995-0.748,2.992
	c-0.264,0.999-0.572,1.995-0.924,2.992c-0.939,2.64-2.083,5.134-3.432,7.48c-1.351,2.347-3.051,4.518-5.104,6.512
	c-3.696,3.58-8.067,5.954-13.112,7.128c-0.528,0.117-1.071,0.205-1.628,0.264C11.859,56.838,11.317,56.868,10.789,56.868z"/>
<path class="st0" d="M178.142,56.868c-3.755,0-6.542-1.584-8.36-4.752c-0.646-1.173-1.159-2.42-1.54-3.74
	c-0.382-1.32-0.631-2.654-0.748-4.004c-0.235-1.994-0.176-3.945,0.176-5.852c0.352-1.906,0.85-3.798,1.496-5.676
	c0.821-2.346,1.936-4.722,3.344-7.128c0.762-1.349,1.672-2.537,2.728-3.564c1.056-1.026,2.2-1.95,3.432-2.772
	c0.645-0.41,1.305-0.63,1.98-0.66c0.674-0.029,1.334,0.015,1.98,0.132c0.88,0.235,1.73,0.528,2.552,0.88
	c0.821,0.352,1.613,0.822,2.376,1.408c1.173,0.939,1.906,2.054,2.2,3.344c0.058,0.176,0.102,0.367,0.132,0.572
	c0.029,0.206,0.014,0.396-0.044,0.572c-0.059,0.352-0.323,0.587-0.792,0.704c-0.47,0-0.734-0.176-0.792-0.528
	c-0.118-0.352-0.25-0.688-0.396-1.012c-0.147-0.322-0.308-0.63-0.484-0.924c-0.471-0.585-1.027-0.997-1.672-1.232
	c-0.587-0.292-1.056-0.117-1.408,0.528c-0.118,0.118-0.176,0.206-0.176,0.264c-0.822,1.878-1.584,3.784-2.288,5.72
	c-0.704,1.936-1.232,3.931-1.584,5.984c-0.352,1.584-0.528,3.227-0.528,4.928c0.058,1.76-0.382,3.344-1.32,4.752
	c-0.646,0.998-1.174,2.039-1.584,3.124c-0.411,1.086-0.763,2.186-1.056,3.3c-0.294,0.822-0.323,1.408-0.088,1.76
	c0.233,0.352,0.733,0.646,1.496,0.88c2.757,0.88,5.426,0.645,8.008-0.704c6.981-3.52,11.909-9.034,14.784-16.544
	c0.938-2.522,1.672-5.221,2.2-8.096c0-0.176,0.058-0.44,0.176-0.792c0.176-0.292,0.381-0.44,0.616-0.44
	c0.528,0,0.982,0.22,1.364,0.66c0.381,0.44,0.513,0.924,0.396,1.452c-0.235,0.998-0.484,1.995-0.748,2.992
	c-0.264,0.999-0.572,1.995-0.924,2.992c-0.939,2.64-2.083,5.134-3.432,7.48c-1.351,2.347-3.051,4.518-5.104,6.512
	c-3.696,3.58-8.067,5.954-13.112,7.128c-0.528,0.117-1.071,0.205-1.628,0.264C179.212,56.838,178.67,56.868,178.142,56.868z"/>
<path class="st0" d="M83.782,29.51c0.233-0.058,0.469-0.264,0.703-0.616c0.997-1.642,2.229-2.889,3.696-3.74
	c1.466-0.85,3.08-1.481,4.84-1.892c0.469-0.117,0.938-0.205,1.408-0.264c0.469-0.058,0.938-0.058,1.408,0
	c0.821,0.176,1.496,0.616,2.024,1.32c0.292,0.528,0.541,1.086,0.747,1.672c0.205,0.587,0.366,1.203,0.484,1.848
	c0.117,0.528,0.176,1.056,0.176,1.584c0,0.528,0.029,1.056,0.088,1.584c0,0.471,0.014,0.924,0.044,1.364
	c0.029,0.44,0.103,0.895,0.221,1.364c0.058,0.352,0.028,0.763-0.088,1.232c-0.471,2.347-0.91,4.694-1.32,7.04
	c-0.411,2.347-0.91,4.723-1.496,7.128c-0.118,0.47-0.25,0.954-0.396,1.452c-0.147,0.5-0.309,0.983-0.484,1.452
	c-0.235,0.646-0.411,1.247-0.528,1.804c-0.118,0.558-0.235,1.159-0.352,1.804c-0.118,0.822,0,1.525,0.352,2.112
	c0.528,0.938,1.202,1.056,2.024,0.352c0.352-0.235,0.645-0.528,0.88-0.88c1.056-1.29,1.936-2.698,2.64-4.224
	c1.466-3.344,2.89-6.688,4.269-10.032c1.378-3.344,2.741-6.717,4.092-10.12c0.117-0.293,0.233-0.601,0.352-0.924
	c0.117-0.322,0.234-0.66,0.353-1.012c0.058-0.058,0.088-0.117,0.088-0.176c0-0.058,0.029-0.146,0.088-0.264
	c0.058-0.176,0.205-0.264,0.44-0.264c0.293,0.119,0.439,0.264,0.439,0.44c0.058,0.059,0.088,0.147,0.088,0.264
	c0,0.587-0.015,1.174-0.044,1.76c-0.03,0.587-0.132,1.174-0.308,1.76c-0.704,1.878-1.438,3.755-2.2,5.632
	c-0.763,1.878-1.526,3.755-2.288,5.632c-0.704,1.702-1.408,3.388-2.112,5.06c-0.703,1.672-1.407,3.359-2.111,5.06
	c-0.295,0.646-0.603,1.262-0.924,1.848c-0.323,0.586-0.72,1.173-1.188,1.76c-1.936,2.64-4.195,2.933-6.776,0.88
	c-0.998-0.763-1.818-1.79-2.464-3.08c-0.646-1.349-1.1-2.713-1.363-4.092c-0.265-1.378-0.367-2.83-0.309-4.356
	c0-1.936,0.205-3.828,0.616-5.676c0.41-1.848,0.909-3.709,1.496-5.588c0.409-1.525,0.836-3.05,1.276-4.576
	c0.439-1.525,0.806-3.049,1.1-4.576c0.058-0.234,0.117-0.454,0.176-0.66c0.058-0.205,0.029-0.425-0.088-0.66
	c-0.176-0.528-0.471-0.704-0.88-0.528c-0.704,0.176-1.364,0.44-1.98,0.792c-0.615,0.352-1.13,0.822-1.54,1.408
	c-1.114,1.76-2.186,3.52-3.212,5.28c-1.026,1.76-1.951,3.579-2.771,5.456c-0.528,1.174-0.983,2.362-1.364,3.564
	c-0.382,1.203-0.66,2.45-0.836,3.74c-0.118,0.998-0.118,1.966,0,2.904c0.293,2.64-0.118,5.104-1.232,7.392
	c-0.527,0.997-1.319,1.584-2.376,1.76c-0.822,0.117-1.525-0.03-2.111-0.44c-0.295-0.176-0.587-0.352-0.88-0.528
	c-0.295-0.176-0.588-0.352-0.881-0.528c-0.527-0.233-0.938-0.704-1.231-1.408c-0.411-1.29-0.528-2.434-0.353-3.432
	c0-0.234,0.015-0.44,0.045-0.616c0.028-0.176,0.044-0.352,0.044-0.528c-0.177-2.64-0.104-5.206,0.22-7.7
	c0.321-2.493,0.806-4.972,1.452-7.436c0.527-2.346,1.056-4.678,1.584-6.996c0.527-2.317,1.025-4.649,1.496-6.996
	c0.058-0.293,0.116-0.586,0.176-0.88c0.058-0.293,0.146-0.586,0.264-0.88c0.176-0.469,0.469-0.821,0.88-1.056
	c0.586-0.41,1.32-0.616,2.2-0.616c0.528,0,0.909,0.207,1.145,0.616c0.233,0.294,0.439,0.602,0.615,0.924
	c0.177,0.323,0.381,0.66,0.616,1.012c0.41,0.822,0.616,1.79,0.616,2.904v1.848c0,0.352,0.014,0.704,0.044,1.056
	c0.029,0.352,0.102,0.704,0.22,1.056c0.117,0.235,0.161,0.455,0.132,0.66C83.618,29.056,83.662,29.277,83.782,29.51z"/>
<path class="st0" d="M62.83,37.963c-1.232,0-2.406-0.176-3.52-0.528c-0.059,0-0.119-0.014-0.176-0.044
	c-0.059-0.029-0.147-0.044-0.264-0.044c-0.646-0.233-0.968,0.03-0.968,0.792c0.058,0.704,0.117,1.408,0.176,2.112
	c0.058,0.704,0.058,1.408,0,2.112c0,1.467-0.119,2.787-0.352,3.96c-0.235,1.467-0.851,2.816-1.848,4.048
	c-0.352,0.471-0.734,0.924-1.144,1.364c-0.411,0.44-0.851,0.866-1.32,1.276c-0.119,0.176-0.279,0.308-0.484,0.396
	c-0.206,0.088-0.396,0.191-0.572,0.308c-1.115,0.352-2.215,0.704-3.3,1.056c-1.086,0.352-2.187,0.674-3.3,0.968
	c-1.702,0.469-3.374,0.381-5.016-0.265c-4.576-1.526-7.95-4.37-10.12-8.536c-0.763-1.349-1.144-2.874-1.144-4.576
	c-0.059-3.402,0.44-6.776,1.496-10.12c0.117-0.292,0.249-0.601,0.396-0.924c0.146-0.322,0.308-0.63,0.484-0.924
	c0.762-1.173,1.54-2.317,2.332-3.432c0.792-1.114,1.686-2.17,2.684-3.168c0.821-0.821,1.642-1.657,2.464-2.508
	c0.821-0.85,1.729-1.598,2.728-2.244c0.469-0.41,0.997-0.645,1.584-0.704c0.88-0.058,1.716-0.044,2.508,0.044
	s1.598,0.279,2.42,0.572c0.528,0.294,1.026,0.587,1.496,0.88c0.469,0.294,0.909,0.675,1.32,1.144
	c0.821,0.88,1.232,1.995,1.232,3.344c0,0.352-0.176,0.528-0.528,0.528c-0.704-0.058-1.262-0.44-1.672-1.144
	c-0.235-0.469-0.44-0.821-0.616-1.056c-0.646-0.88-1.379-1.026-2.2-0.44c-0.528,0.294-0.88,0.675-1.056,1.144
	c-0.235,0.528-0.484,1.056-0.748,1.584c-0.264,0.528-0.543,1.086-0.836,1.672c-0.118,0.352-0.235,0.704-0.352,1.056
	c-0.118,0.352-0.235,0.763-0.352,1.232c-0.118,0.528-0.294,0.998-0.528,1.408c-0.47,0.646-0.822,1.335-1.056,2.068
	c-0.235,0.734-0.44,1.511-0.616,2.332c-0.294,1.291-0.675,2.406-1.144,3.344c-0.294,0.528-0.528,1.056-0.704,1.584
	c-0.176,0.528-0.264,1.115-0.264,1.76c-0.059,0.587-0.118,1.159-0.176,1.716c-0.059,0.558-0.088,1.13-0.088,1.716
	c0,0.822,0.102,1.614,0.308,2.376c0.205,0.763,0.454,1.555,0.748,2.376c0.293,0.704,0.85,1.115,1.672,1.232
	c1.29,0.118,2.317-0.146,3.08-0.792c1.701-1.29,3.138-2.742,4.312-4.356c1.173-1.613,1.965-3.505,2.376-5.676
	c0.176-0.88,0.381-1.642,0.616-2.288c0.117-0.469,0.117-0.821,0-1.056c-0.118-0.234-0.411-0.44-0.88-0.616
	c-0.176-0.117-0.367-0.205-0.572-0.264c-0.206-0.058-0.396-0.146-0.572-0.264c-1.232-0.645-1.922-1.466-2.068-2.464
	c-0.147-0.997-0.074-1.906,0.22-2.728c0.176-0.41,0.396-0.762,0.66-1.056c0.264-0.293,0.542-0.586,0.836-0.88
	c0.234-0.176,0.528-0.264,0.88-0.264c0.469-0.058,0.924-0.102,1.364-0.132c0.44-0.029,0.894,0.015,1.364,0.132
	c1.525,0.294,2.434,1.115,2.728,2.464c0.117,0.47,0.22,0.968,0.308,1.496s0.19,1.027,0.308,1.496
	c0.058,0.646,0.469,1.115,1.232,1.408c2.346,0.646,4.546,0.763,6.6,0.352c2.053-0.41,3.989-1.466,5.808-3.168
	c0.645-0.645,1.246-1.349,1.804-2.112c0.557-0.762,1.07-1.554,1.54-2.376c0.234-0.469,0.44-0.792,0.616-0.968
	c0.292-0.352,0.585-0.498,0.88-0.44c0.293,0.059,0.528,0.294,0.704,0.704c0.117,0.294,0.161,0.558,0.132,0.792
	c-0.03,0.235-0.103,0.499-0.22,0.792c-1.115,2.23-2.508,4.122-4.18,5.676c-1.672,1.555-3.74,2.655-6.204,3.3
	c-0.47,0.118-1.115,0.235-1.936,0.352C63.856,37.934,63.416,37.963,62.83,37.963z M51.39,31.803c0,0.235,0.058,0.587,0.176,1.056
	c0.176,0.646,0.616,0.998,1.32,1.056c0.293,0,0.528-0.117,0.704-0.352c0.234-0.586,0.278-1.217,0.132-1.892
	c-0.147-0.674-0.455-1.158-0.924-1.452c-0.294-0.293-0.616-0.264-0.968,0.088C51.536,30.659,51.39,31.158,51.39,31.803z"/>
<path class="st0" d="M105.773,43.903c0-1.466,0.088-2.933,0.264-4.4c0.177-1.466,0.41-2.962,0.704-4.488
	c0.117-0.645,0.234-1.29,0.353-1.936c0.116-0.645,0.233-1.29,0.352-1.936c0.058-0.586,0.014-0.968-0.132-1.144
	c-0.147-0.176-0.515-0.293-1.1-0.352c-0.295-0.058-0.616-0.088-0.969-0.088c-0.352,0-0.675-0.029-0.968-0.088
	c-0.411,0-0.822-0.146-1.231-0.44c-0.881-0.469-0.852-0.997,0.088-1.584c0.996-0.528,1.993-0.821,2.991-0.88h0.265
	c0.645-0.058,1.113-0.22,1.408-0.484c0.293-0.264,0.497-0.718,0.615-1.364l0.528-3.696c0.353-1.877,0.704-3.725,1.056-5.544
	c0.353-1.818,0.762-3.637,1.232-5.456c0.233-0.938,0.528-1.848,0.88-2.728c0.353-0.88,0.733-1.76,1.145-2.64
	c0.233-0.585,0.469-1.158,0.703-1.716c0.234-0.557,0.47-1.1,0.704-1.628c0.117-0.117,0.19-0.264,0.221-0.44
	c0.028-0.176,0.102-0.322,0.22-0.44c0.352-0.41,0.792-0.528,1.32-0.352c0.996,0.235,1.642,0.851,1.936,1.848
	c0.176,0.646,0.353,1.307,0.528,1.98c0.176,0.675,0.321,1.335,0.439,1.98c0.177,0.939,0.205,1.878,0.088,2.816
	c-0.118,0.939-0.206,1.878-0.264,2.816c-0.176,4.518-0.264,8.976-0.264,13.376c0,0.47,0.088,0.778,0.264,0.924
	c0.176,0.147,0.498,0.279,0.968,0.396c0.646,0.118,1.261,0.308,1.849,0.572c0.585,0.264,1.144,0.572,1.672,0.924
	c0.352,0.235,0.513,0.514,0.483,0.836c-0.03,0.323-0.25,0.602-0.659,0.836c-0.295,0.118-0.572,0.235-0.837,0.352
	c-0.264,0.118-0.543,0.147-0.836,0.088c-0.352,0-0.703-0.014-1.056-0.044c-0.352-0.029-0.704,0.015-1.056,0.132
	c-0.764,0.059-1.145,0.47-1.145,1.232c-0.118,1.174-0.352,2.142-0.704,2.904c-0.118,0.294-0.19,0.572-0.22,0.836
	c-0.03,0.264-0.074,0.543-0.132,0.836c-0.118,1.056-0.206,2.099-0.264,3.124c-0.06,1.027-0.03,2.068,0.088,3.124
	c0.116,0.646,0.132,1.262,0.044,1.848c-0.088,0.587-0.162,1.203-0.221,1.848c-0.176,1.878-0.366,3.784-0.571,5.72
	c-0.206,1.936-0.396,3.872-0.572,5.808c-0.118,0.704-0.162,1.394-0.132,2.068c0.028,0.675,0.102,1.335,0.22,1.98
	c0.234,1.643,1.173,2.317,2.816,2.024c0.997-0.233,1.965-0.762,2.903-1.584c0.997-0.821,1.849-1.729,2.553-2.728
	c0.704-0.997,1.377-2.053,2.023-3.168c0.997-1.817,1.833-3.681,2.508-5.588c0.674-1.906,1.276-3.828,1.805-5.764
	c0.469-1.466,0.88-2.918,1.231-4.356c0.353-1.437,0.704-2.917,1.057-4.444c0.116-0.469,0.337-0.806,0.659-1.012
	c0.322-0.205,0.63-0.454,0.925-0.748c0.116-0.117,0.264-0.117,0.439,0c0.176,0.118,0.265,0.294,0.265,0.528
	c0.116,0.47,0.116,0.88,0,1.232c-0.471,1.702-0.896,3.375-1.276,5.016c-0.382,1.643-0.836,3.286-1.364,4.928
	c-0.646,2.171-1.379,4.312-2.2,6.424c-0.822,2.112-1.79,4.166-2.903,6.16c-0.646,1.056-1.32,2.083-2.024,3.08
	c-0.704,0.999-1.496,1.906-2.376,2.728c-1.056,1.056-2.143,1.906-3.256,2.552c-1.408,0.938-2.935,0.997-4.576,0.177
	c-0.294-0.118-0.559-0.251-0.792-0.396c-0.235-0.147-0.499-0.338-0.792-0.572c-2.875-2.347-4.987-5.368-6.336-9.063
	c-0.294-0.821-0.499-1.672-0.616-2.552c-0.118-0.88-0.234-1.729-0.352-2.552c-0.176-1.232-0.323-2.478-0.44-3.74
	C105.83,46.558,105.773,45.253,105.773,43.903z"/>
<path class="st0" d="M198.855,43.903c0-1.466,0.088-2.933,0.264-4.4c0.177-1.466,0.41-2.962,0.704-4.488
	c0.117-0.645,0.234-1.29,0.353-1.936c0.116-0.645,0.233-1.29,0.352-1.936c0.058-0.586,0.014-0.968-0.132-1.144
	c-0.147-0.176-0.515-0.293-1.1-0.352c-0.295-0.058-0.616-0.088-0.969-0.088c-0.352,0-0.675-0.029-0.968-0.088
	c-0.411,0-0.822-0.146-1.231-0.44c-0.881-0.469-0.852-0.997,0.088-1.584c0.996-0.528,1.993-0.821,2.991-0.88h0.265
	c0.645-0.058,1.113-0.22,1.408-0.484c0.293-0.264,0.497-0.718,0.615-1.364l0.528-3.696c0.353-1.877,0.704-3.725,1.056-5.544
	c0.353-1.818,0.762-3.637,1.232-5.456c0.233-0.938,0.528-1.848,0.88-2.728c0.353-0.88,0.733-1.76,1.145-2.64
	c0.233-0.585,0.469-1.158,0.703-1.716c0.234-0.557,0.47-1.1,0.704-1.628c0.117-0.117,0.19-0.264,0.221-0.44
	c0.028-0.176,0.102-0.322,0.22-0.44c0.352-0.41,0.792-0.528,1.32-0.352c0.996,0.235,1.642,0.851,1.936,1.848
	c0.176,0.646,0.353,1.307,0.528,1.98c0.176,0.675,0.321,1.335,0.439,1.98c0.177,0.939,0.205,1.878,0.088,2.816
	c-0.118,0.939-0.206,1.878-0.264,2.816c-0.176,4.518-0.264,8.976-0.264,13.376c0,0.47,0.088,0.778,0.264,0.924
	c0.176,0.147,0.498,0.279,0.968,0.396c0.646,0.118,1.261,0.308,1.849,0.572c0.585,0.264,1.144,0.572,1.672,0.924
	c0.352,0.235,0.513,0.514,0.483,0.836c-0.03,0.323-0.25,0.602-0.659,0.836c-0.295,0.118-0.572,0.235-0.837,0.352
	c-0.264,0.118-0.543,0.147-0.836,0.088c-0.352,0-0.703-0.014-1.056-0.044c-0.352-0.029-0.704,0.015-1.056,0.132
	c-0.764,0.059-1.145,0.47-1.145,1.232c-0.118,1.174-0.352,2.142-0.704,2.904c-0.118,0.294-0.19,0.572-0.22,0.836
	c-0.03,0.264-0.074,0.543-0.132,0.836c-0.118,1.056-0.206,2.099-0.264,3.124c-0.06,1.027-0.03,2.068,0.088,3.124
	c0.116,0.646,0.132,1.262,0.044,1.848c-0.088,0.587-0.162,1.203-0.221,1.848c-0.176,1.878-0.366,3.784-0.571,5.72
	c-0.206,1.936-0.396,3.872-0.572,5.808c-0.118,0.704-0.162,1.394-0.132,2.068c0.028,0.675,0.102,1.335,0.22,1.98
	c0.234,1.643,1.173,2.317,2.816,2.024c0.997-0.233,1.965-0.762,2.903-1.584c0.997-0.821,1.849-1.729,2.553-2.728
	c0.704-0.997,1.377-2.053,2.023-3.168c0.997-1.817,1.833-3.681,2.508-5.588c0.674-1.906,1.276-3.828,1.805-5.764
	c0.469-1.466,0.88-2.918,1.231-4.356c0.353-1.437,0.704-2.917,1.057-4.444c0.116-0.469,0.337-0.806,0.659-1.012
	c0.322-0.205,0.63-0.454,0.925-0.748c0.116-0.117,0.264-0.117,0.439,0c0.176,0.118,0.265,0.294,0.265,0.528
	c0.116,0.47,0.116,0.88,0,1.232c-0.471,1.702-0.896,3.375-1.276,5.016c-0.382,1.643-0.836,3.286-1.364,4.928
	c-0.646,2.171-1.379,4.312-2.2,6.424c-0.822,2.112-1.79,4.166-2.903,6.16c-0.646,1.056-1.32,2.083-2.024,3.08
	c-0.704,0.999-1.496,1.906-2.376,2.728c-1.056,1.056-2.143,1.906-3.256,2.552c-1.408,0.938-2.935,0.997-4.576,0.177
	c-0.294-0.118-0.559-0.251-0.792-0.396c-0.235-0.147-0.499-0.338-0.792-0.572c-2.875-2.347-4.987-5.368-6.336-9.063
	c-0.294-0.821-0.499-1.672-0.616-2.552c-0.118-0.88-0.234-1.729-0.352-2.552c-0.176-1.232-0.323-2.478-0.44-3.74
	C198.912,46.558,198.855,45.253,198.855,43.903z"/>
<path class="st0" d="M313.855,29.104c0,1.174-0.25,2.215-0.748,3.124c-0.499,0.91-1.1,1.775-1.804,2.596
	c-0.176,0.294-0.411,0.352-0.704,0.176c-0.176-0.058-0.264-0.264-0.264-0.616c0-0.117,0.028-0.233,0.088-0.352
	c0.058-0.117,0.117-0.234,0.176-0.352c0.293-0.762,0.528-1.54,0.704-2.332c0.176-0.792,0.146-1.598-0.088-2.42
	c0-0.117-0.015-0.205-0.044-0.264c-0.03-0.058-0.044-0.146-0.044-0.264c-0.235-0.528-0.587-0.894-1.056-1.1
	c-0.471-0.205-0.939-0.132-1.408,0.22c-1.232,0.939-2.23,1.995-2.992,3.168c-0.763,1.174-1.115,2.552-1.056,4.136
	c0.058,2.523,0.792,4.987,2.199,7.392c1.114,1.878,2.024,3.872,2.729,5.984c0.058,0.235,0.205,0.528,0.439,0.88
	c0.528,0.646,1.145,0.704,1.849,0.176c0.586-0.41,1.144-0.836,1.672-1.276s1.056-0.894,1.584-1.364
	c1.877-1.877,3.533-3.886,4.972-6.028c1.438-2.141,2.654-4.473,3.652-6.996c0.117-0.292,0.264-0.585,0.439-0.88
	c0.293-0.645,0.762-0.792,1.408-0.44c0.586,0.235,0.704,0.675,0.353,1.32c-0.177,0.294-0.323,0.603-0.44,0.924
	c-0.118,0.323-0.235,0.631-0.352,0.924c-1.175,3.168-2.743,5.97-4.708,8.404c-1.967,2.435-4.299,4.65-6.996,6.644
	c-0.235,0.176-0.455,0.338-0.66,0.484c-0.206,0.147-0.427,0.308-0.66,0.484c-0.411,0.294-0.66,0.528-0.748,0.704
	c-0.088,0.176-0.044,0.499,0.132,0.968c0.704,1.878,0.969,3.814,0.792,5.808c-0.118,0.822-0.294,1.642-0.527,2.464
	c-0.235,0.821-0.499,1.613-0.792,2.376c-0.295,0.821-0.632,1.584-1.013,2.288c-0.382,0.704-0.778,1.437-1.188,2.2
	c-0.294,0.469-0.559,0.924-0.792,1.364c-0.235,0.439-0.499,0.894-0.792,1.363c-0.471,0.821-0.998,1.496-1.584,2.024
	c-0.587,0.528-1.351,0.88-2.288,1.056c-0.471,0.117-0.88,0.293-1.232,0.528c-0.294,0.293-0.615,0.381-0.968,0.264
	c-0.822-0.118-1.614-0.25-2.376-0.396c-0.763-0.147-1.496-0.367-2.2-0.66c-1.407-0.471-2.522-1.219-3.344-2.244
	c-0.822-1.027-1.438-2.215-1.848-3.563c-0.411-1.292-0.235-2.553,0.527-3.784c1.173-1.996,2.61-3.667,4.312-5.016
	c0.352-0.293,0.704-0.586,1.056-0.88c0.353-0.292,0.733-0.557,1.145-0.792c1.466-0.938,2.023-2.346,1.672-4.224
	c-0.295-1.408-0.616-2.816-0.968-4.224c-0.353-1.408-0.704-2.816-1.057-4.224c-0.47-1.525-0.851-3.05-1.144-4.576
	c-0.295-1.524-0.559-3.08-0.792-4.664c-0.471-3.93,0.469-7.392,2.815-10.384c0.117-0.176,0.265-0.352,0.44-0.528
	c0.176-0.176,0.321-0.352,0.439-0.528c0.47-0.645,0.997-1.1,1.584-1.364c0.586-0.264,1.262-0.454,2.024-0.572
	c0.469-0.058,0.953-0.102,1.452-0.132c0.498-0.029,0.981,0.015,1.452,0.132c1.056,0.176,1.993,0.558,2.815,1.144
	c0.234,0.119,0.44,0.25,0.616,0.396c0.176,0.147,0.41,0.25,0.704,0.308c1.173,0.294,2.009,0.822,2.508,1.584
	c0.498,0.763,0.806,1.703,0.924,2.816V29.104z M300.303,59.904V59.64c-0.059-0.117-0.074-0.234-0.044-0.352
	c0.029-0.117-0.044-0.234-0.22-0.352c-0.235-0.117-0.471-0.058-0.704,0.176c-0.235,0.176-0.44,0.352-0.616,0.528
	c-0.176,0.176-0.382,0.352-0.616,0.528c-0.47,0.41-0.954,0.821-1.452,1.232c-0.499,0.41-0.982,0.85-1.451,1.32
	c-0.704,0.704-1.203,1.642-1.496,2.815c-0.06,0.762,0.205,1.29,0.792,1.584c0.409,0.293,0.85,0.47,1.319,0.528
	c0.646,0.176,1.145,0.189,1.496,0.044c0.353-0.147,0.704-0.483,1.057-1.012c0.645-1.057,1.1-2.156,1.363-3.3
	C299.995,62.236,300.185,61.077,300.303,59.904z"/>
<path class="st0" d="M268.535,30.824c0.176,4.518,0,8.976-0.528,13.376c-0.118,0.822-0.22,1.672-0.308,2.552
	s-0.221,1.731-0.396,2.552c-0.118,0.352-0.162,0.704-0.132,1.056c0.029,0.352,0.073,0.704,0.132,1.056
	c0.058,0.294,0.102,0.587,0.132,0.88c0.029,0.294,0.014,0.587-0.044,0.88c0,0.646,0.293,0.968,0.88,0.968
	c1.408-0.117,2.772-0.308,4.093-0.572c1.319-0.264,2.448-1.041,3.388-2.332c0-0.058,0.058-0.146,0.176-0.264
	c0.762-0.762,1.145-1.73,1.145-2.904c-0.06-1.642-0.074-3.27-0.045-4.884c0.029-1.613,0.073-3.27,0.133-4.972
	c0.116-2.521,0.365-5,0.748-7.436c0.381-2.434,1.04-4.854,1.979-7.26c0.176-0.586,0.322-1.158,0.44-1.716
	c0.116-0.557,0.264-1.129,0.439-1.716c0.293-0.997,0.616-1.569,0.968-1.716c0.353-0.146,0.938,0.074,1.761,0.66
	c0.704,0.47,1.231,1.027,1.584,1.672c0.352,0.646,0.469,1.408,0.352,2.288c-0.118,0.763-0.103,1.496,0.044,2.2
	c0.146,0.704,0.278,1.438,0.396,2.2c0.469,2.582,0.748,5.134,0.836,7.656c0.088,2.523,0.072,5.104-0.044,7.744
	c-0.06,0.998-0.162,2.01-0.309,3.036c-0.146,1.027-0.25,2.039-0.308,3.036c-0.118,0.939-0.294,1.819-0.528,2.64
	c-0.234,0.822-0.527,1.643-0.88,2.464c-0.294,0.587-0.527,1.174-0.704,1.76c-0.176,0.586-0.352,1.202-0.527,1.848
	c-0.177,0.528-0.177,1.012,0,1.452c0.176,0.44,0.381,0.894,0.615,1.364c0.293,0.469,0.851,0.557,1.673,0.264
	c0.82-0.294,1.495-0.822,2.023-1.584c0.353-0.587,0.66-1.174,0.924-1.76c0.265-0.587,0.542-1.203,0.836-1.848
	c0.88-2.229,1.672-4.517,2.376-6.864c0.704-2.346,1.378-4.693,2.024-7.04c0.645-2.405,1.29-4.766,1.936-7.084
	c0.646-2.317,1.35-4.649,2.112-6.996c0.058-0.293,0.132-0.557,0.22-0.792c0.088-0.234,0.19-0.498,0.309-0.792
	c0.352-0.762,0.997-0.968,1.936-0.616c0.704,0.235,0.938,0.734,0.704,1.496c-0.47,1.174-0.88,2.362-1.231,3.564
	c-0.353,1.203-0.734,2.391-1.145,3.564c-1.056,3.344-2.068,6.659-3.036,9.944c-0.968,3.286-2.039,6.6-3.212,9.944
	c-0.411,1.056-0.822,2.097-1.231,3.124c-0.411,1.026-0.852,2.038-1.32,3.036c-0.471,1.114-1.175,1.965-2.112,2.553
	c-0.822,0.585-1.687,0.85-2.596,0.792c-0.91-0.06-1.716-0.411-2.42-1.057c-2.406-2.111-3.902-4.576-4.488-7.392
	c-0.059-0.117-0.103-0.234-0.132-0.352c-0.03-0.117-0.074-0.234-0.132-0.352c-0.235-0.41-0.528-0.44-0.88-0.088
	c-0.528,0.704-1.087,1.35-1.672,1.936c-0.646,0.704-1.438,1.232-2.376,1.584c-1.585,0.528-3.257,0.879-5.017,1.056
	c-0.528,0.058-1.042,0.028-1.54-0.088c-0.499-0.119-0.983-0.265-1.452-0.44c-1.936-0.88-3.55-2.024-4.84-3.432
	c-1.291-1.408-2.143-3.168-2.552-5.28c-0.294-1.114-0.427-2.244-0.396-3.388c0.029-1.144,0.103-2.302,0.221-3.476
	c0.293-1.817,0.557-3.637,0.792-5.456c0.233-1.818,0.527-3.637,0.88-5.456c0.293-1.349,0.572-2.684,0.836-4.004
	c0.264-1.32,0.572-2.625,0.924-3.916c0.41-1.465,0.674-2.961,0.792-4.488c0.058-0.234,0.088-0.469,0.088-0.704
	c0-0.233,0.058-0.469,0.176-0.704c0.117-0.585,0.47-0.792,1.057-0.616c0.997,0.352,1.965,0.851,2.903,1.496
	c0.47,0.352,0.821,0.587,1.057,0.704c0.997,0.646,1.496,1.644,1.496,2.992V30.824z"/>
</svg>