<!-- Generator: Adobe Illustrator 19.2.0, SVG Export Plug-In  -->
<svg version="1.1"
	 xmlns="http://www.w3.org/2000/svg" xmlns:xlink="http://www.w3.org/1999/xlink" xmlns:a="http://ns.adobe.com/AdobeSVGViewerExtensions/3.0/"
	 x="0px" y="0px" width="310.765px" height="82.414px" viewBox="0 0 310.765 82.414"
	 style="enable-background:new 0 0 310.765 82.414;" xml:space="preserve">
<style type="text/css">
	.st0{fill:#FFFFFF;stroke:#FFFFFF;stroke-miterlimit:10;}
	.st1{fill:none;}
	.st2{fill:#FFFFFF;}
</style>
<defs>
</defs>
<g>
	<path class="st0" d="M65.491,47.79c-0.118,0.704-0.132,1.423-0.044,2.156c0.088,0.734,0.308,1.482,0.66,2.244
		c0.176,0.294,0.264,0.616,0.264,0.968c0,0.646-0.015,1.291-0.044,1.936c-0.03,0.646-0.132,1.292-0.308,1.936
		c-0.411,1.408-0.69,2.816-0.836,4.224c-0.147,1.408-0.279,2.816-0.396,4.224c-0.059,0.47-0.104,0.939-0.132,1.408
		c-0.03,0.469-0.074,0.938-0.132,1.408c0,0.176-0.015,0.352-0.044,0.528c-0.03,0.176,0.014,0.322,0.132,0.44
		c0.176,0.117,0.352,0.132,0.528,0.044c0.176-0.088,0.352-0.191,0.528-0.308c0.41-0.235,0.777-0.499,1.1-0.792
		c0.322-0.294,0.629-0.616,0.924-0.968c0.88-0.997,1.701-2.141,2.464-3.432c0.821-1.349,1.584-2.728,2.288-4.136
		s1.408-2.816,2.112-4.224c0.997-2.112,2.038-4.224,3.124-6.336c1.084-2.112,2.097-4.282,3.036-6.512
		c0.117-0.352,0.249-0.704,0.396-1.056c0.146-0.352,0.308-0.704,0.484-1.056c0.117-0.352,0.396-0.585,0.836-0.704
		c0.44-0.117,0.806-0.058,1.1,0.176c0.176,0.176,0.205,0.47,0.088,0.88c-0.47,1.056-0.866,2.142-1.188,3.256
		c-0.323,1.115-0.748,2.2-1.276,3.256c-1.056,1.995-2.024,4.004-2.904,6.028s-1.79,4.063-2.728,6.116
		c-0.646,1.35-1.335,2.699-2.068,4.048c-0.734,1.35-1.57,2.611-2.508,3.784c-1.35,1.76-2.963,3.313-4.84,4.664
		c-0.528,0.41-1.13,0.645-1.804,0.704c-0.675,0.058-1.335,0-1.98-0.176c-0.646-0.176-1.232-0.455-1.76-0.836
		c-0.528-0.382-0.91-0.836-1.144-1.364c-0.294-0.704-0.587-1.423-0.88-2.156c-0.294-0.734-0.528-1.481-0.704-2.244
		c-0.059-0.176-0.103-0.337-0.132-0.484c-0.03-0.146-0.074-0.308-0.132-0.484c-0.176-0.41-0.411-0.469-0.704-0.176
		c-0.646,0.47-1.292,0.924-1.936,1.364c-0.646,0.44-1.292,0.894-1.936,1.364c-2.992,1.76-6.103,2.024-9.328,0.792
		c-2.171-0.763-3.667-2.229-4.488-4.4c-0.411-1.056-0.704-2.126-0.88-3.212c-0.176-1.085-0.323-2.185-0.44-3.3
		c-0.528-4.4-0.088-8.461,1.32-12.188c1.408-3.725,3.578-7.201,6.512-10.428c1.114-1.232,2.317-2.2,3.608-2.904
		c2.17-1.114,4.282-1.173,6.336-0.176c0.938,0.352,1.73,0.822,2.376,1.408c1.173,0.763,1.965,1.731,2.376,2.904
		c0.176,0.47,0.352,0.924,0.528,1.364c0.176,0.44,0.41,0.866,0.704,1.276c0.233,0.47,0.264,0.822,0.088,1.056
		c-0.235,0.294-0.616,0.382-1.144,0.264c-1.115-0.293-1.936-0.938-2.464-1.936c-0.235-0.293-0.455-0.601-0.66-0.924
		c-0.206-0.322-0.367-0.66-0.484-1.012c-0.235-0.469-0.572-0.836-1.012-1.1c-0.44-0.264-0.895-0.396-1.364-0.396
		c-0.47,0-0.924,0.132-1.364,0.396c-0.44,0.264-0.778,0.69-1.012,1.276c-0.059,0.176-0.207,0.5-0.44,0.968
		c-0.646,1.174-1.232,2.376-1.76,3.608s-0.88,2.523-1.056,3.872c-0.176,1.232-0.47,2.45-0.88,3.652
		c-0.411,1.203-0.822,2.391-1.232,3.564c-1.115,3.287-0.851,6.571,0.792,9.856c0.645,1.292,1.452,2.01,2.42,2.156
		c0.968,0.147,1.892-0.308,2.772-1.364c1.349-1.701,2.552-3.476,3.608-5.324c1.056-1.848,1.76-3.886,2.112-6.116
		c0.117-0.762,0.308-1.51,0.572-2.244c0.264-0.733,0.513-1.481,0.748-2.244c0.41-1.056,0.645-2.024,0.704-2.904
		c0-0.704,0.381-1.144,1.144-1.32h0.088c1.114-0.117,1.936-0.058,2.464,0.176c0.528,0.235,0.909,1.027,1.144,2.376
		c0.058,0.47,0.088,0.924,0.088,1.364S65.491,47.262,65.491,47.79z"/>
	<path class="st0" d="M158.251,67.102c-0.47,0.234-0.895,0.454-1.276,0.66c-0.382,0.205-0.719,0.542-1.012,1.012
		c-0.294,0.528-0.851,0.704-1.672,0.528c-0.88-0.235-1.467-0.514-1.76-0.836c-0.294-0.323-0.499-0.955-0.616-1.892
		c-0.235-1.818-0.323-3.622-0.264-5.412c0.058-1.789,0.146-3.564,0.264-5.324c0.117-2.112,0.337-4.208,0.66-6.292
		c0.322-2.082,0.63-4.149,0.924-6.204c0.058-0.469,0.117-0.909,0.176-1.32c0.058-0.41,0.088-0.85,0.088-1.32
		c-0.059-1.114,0.029-2.2,0.264-3.256c0.233-1.056,0.41-2.141,0.528-3.256c0.293-1.701,0.513-3.388,0.66-5.06
		c0.146-1.672,0.277-3.357,0.396-5.06c0.176-2.288,0.336-4.561,0.484-6.82c0.146-2.258,0.308-4.532,0.484-6.82
		c0.117-1.466,0.293-2.904,0.528-4.312c0.234-1.408,0.528-2.816,0.88-4.224c0-0.117,0.014-0.205,0.044-0.264
		c0.029-0.058,0.044-0.117,0.044-0.176c0.176-0.528,0.366-0.836,0.572-0.924c0.205-0.088,0.542,0.015,1.012,0.308
		c0.704,0.352,1.466,0.616,2.288,0.792c2.933,0.528,4.604,2.436,5.016,5.72c0.293,2.23,0.454,4.415,0.484,6.556
		c0.029,2.142-0.015,4.327-0.132,6.556c-0.118,2.112-0.206,4.224-0.264,6.336c-0.059,2.112-0.176,4.224-0.352,6.336
		c-0.059,0.998-0.132,1.966-0.22,2.904c-0.088,0.939-0.191,1.907-0.308,2.904c-0.059,0.119-0.088,0.294-0.088,0.528
		c0,0.294,0.058,0.47,0.176,0.528c0.117,0.059,0.292,0.03,0.528-0.088c0.117-0.117,0.234-0.264,0.352-0.44
		c0.117-0.176,0.234-0.322,0.352-0.44c0.821-0.997,1.729-1.774,2.728-2.332c0.997-0.557,2.169-0.777,3.52-0.66
		c1.525,0.059,2.992,0.704,4.4,1.936c1.173,0.998,2.024,2.142,2.552,3.432c0.528,1.291,0.85,2.699,0.968,4.224
		c0.117,1.292,0.088,2.552-0.088,3.784c-0.176,1.232-0.411,2.464-0.704,3.696c-0.118,0.352-0.191,0.69-0.22,1.012
		c-0.03,0.323-0.074,0.631-0.132,0.924c-0.059,0.471,0.176,0.704,0.704,0.704c2.288-0.117,4.194-0.88,5.72-2.288
		c0.586-0.528,1.1-1.1,1.54-1.716s0.865-1.276,1.276-1.98c0.762-1.29,1.408-2.625,1.936-4.004c0.528-1.378,1.056-2.772,1.584-4.18
		c0.293-0.938,0.821-1.525,1.584-1.76c0.352-0.117,0.616-0.176,0.792-0.176c0.528,0.059,0.762,0.382,0.704,0.968v0.44
		c-0.587,2.054-1.291,4.019-2.112,5.896c-0.822,1.878-1.848,3.667-3.08,5.368c-0.646,0.822-1.32,1.599-2.024,2.332
		c-0.704,0.734-1.496,1.395-2.376,1.98c-0.822,0.528-1.687,0.968-2.596,1.32c-0.91,0.352-1.863,0.528-2.86,0.528
		c-1.174,0-1.995,0.587-2.464,1.76c-0.822,2.054-1.703,3.96-2.64,5.72c-1.467,2.992-3.374,5.69-5.72,8.096
		c-1.702,1.642-3.432,2.376-5.192,2.2c-1.76-0.176-3.315-1.232-4.664-3.168c-0.528-0.763-0.939-1.57-1.232-2.42
		c-0.294-0.851-0.558-1.746-0.792-2.684c-0.059-0.118-0.103-0.25-0.132-0.396C158.441,67.439,158.368,67.279,158.251,67.102z
		 M170.659,61.383c0-0.352-0.059-0.601-0.176-0.748c-0.118-0.146-0.411-0.249-0.88-0.308c-0.998-0.176-1.995-0.616-2.992-1.32
		c-0.471-0.352-0.939-0.718-1.408-1.1c-0.47-0.381-0.939-0.806-1.408-1.276c-0.352-0.41-0.675-0.381-0.968,0.088
		c-0.059,0.176-0.118,0.352-0.176,0.528c-0.059,0.176-0.118,0.382-0.176,0.616c-0.176,1.056-0.558,2.054-1.144,2.992
		c-0.235,0.294-0.382,0.603-0.44,0.924c-0.059,0.323-0.088,0.66-0.088,1.012c-0.059,1.467,0.073,2.875,0.396,4.224
		c0.322,1.349,0.718,2.698,1.188,4.048c0.117,0.293,0.249,0.557,0.396,0.792c0.146,0.234,0.308,0.498,0.484,0.792
		c0.352,0.469,0.645,0.718,0.88,0.748c0.234,0.029,0.586-0.162,1.056-0.572c0.938-0.763,1.716-1.614,2.332-2.552
		c0.616-0.939,1.158-1.966,1.628-3.08c0.41-0.997,0.733-1.965,0.968-2.904C170.365,63.348,170.541,62.381,170.659,61.383z
		 M171.627,53.374c-0.235-1.173-0.411-2.405-0.528-3.696c-0.118-1.29-0.264-2.61-0.44-3.96c-0.059-0.645-0.235-1.378-0.528-2.2
		c-0.119-0.645-0.44-0.997-0.968-1.056c-0.528,0-0.939,0.235-1.232,0.704c-0.118,0.118-0.206,0.264-0.264,0.44
		c-0.059,0.176-0.147,0.323-0.264,0.44c-0.294,0.471-0.603,0.968-0.924,1.496c-0.323,0.528-0.631,1.027-0.924,1.496
		c-1.174,1.819-1.379,3.726-0.616,5.72c0.117,0.294,0.205,0.543,0.264,0.748c0.058,0.206,0.146,0.455,0.264,0.748
		c0.352,1.174,0.938,2.055,1.76,2.64c0.821,0.587,1.818,0.999,2.992,1.232c0.585,0.059,0.909-0.146,0.968-0.616
		c0.117-0.645,0.22-1.29,0.308-1.936C171.583,54.929,171.627,54.197,171.627,53.374z"/>
	<path class="st0" d="M146.723,9.653c0,1.174-0.074,2.318-0.221,3.432c-0.146,1.115-0.279,2.23-0.396,3.344
		c-0.117,0.998-0.219,1.966-0.307,2.904c-0.088,0.939-0.074,1.907,0.043,2.904c0.176,2.523,0.029,5.134-0.439,7.832
		c-0.295,1.526-0.527,3.051-0.703,4.576c-0.178,1.526-0.324,3.051-0.441,4.576c-0.117,1.702-0.25,3.388-0.395,5.06
		c-0.148,1.672-0.309,3.359-0.484,5.06c-0.295,2.112-0.383,4.224-0.264,6.336c0.057,0.939,0,1.863-0.178,2.772
		c-0.176,0.91-0.293,1.834-0.352,2.772c0,0.176-0.059,0.382-0.176,0.616c-0.646,1.056-0.953,2.171-0.924,3.344
		c0.029,1.174-0.016,2.347-0.133,3.52c0,0.41,0.029,0.704,0.088,0.88c0.059,0.645,0.381,0.85,0.969,0.616
		c2.346-0.88,4.4-2.2,6.16-3.96c1.408-1.408,2.609-2.933,3.607-4.576c0.998-1.642,1.877-3.373,2.641-5.192
		c0.996-2.229,1.805-4.502,2.42-6.82c0.615-2.317,1.158-4.678,1.629-7.084l0.527-2.64c0.057-0.41,0.352-0.616,0.879-0.616
		c0.705,0.118,1.145,0.308,1.32,0.572c0.176,0.264,0.205,0.748,0.088,1.452c-0.586,3.168-1.305,6.248-2.156,9.24
		c-0.85,2.992-1.979,5.926-3.387,8.8c-0.822,1.702-1.746,3.3-2.771,4.796c-1.027,1.496-2.217,2.891-3.564,4.18
		c-2.23,2.17-4.695,3.754-7.393,4.752c-2.172,0.88-4.137,0.557-5.896-0.968c-0.703-0.646-1.291-1.335-1.76-2.068
		c-0.471-0.734-0.879-1.511-1.232-2.332c-0.176-0.41-0.352-0.821-0.527-1.232c-0.176-0.41-0.352-0.85-0.527-1.32
		c-0.176-0.469-0.471-0.528-0.881-0.176c-0.117,0.118-0.191,0.206-0.219,0.264c-0.031,0.059-0.104,0.147-0.221,0.264
		c-2.699,2.874-6.102,4.165-10.209,3.872c-1.174-0.118-2.287-0.294-3.344-0.528c-1.877-0.47-3.387-1.377-4.531-2.728
		c-1.145-1.349-1.863-3.021-2.156-5.016c-0.234-1.584-0.279-3.153-0.132-4.708c0.146-1.554,0.366-3.124,0.659-4.708
		c0.293-1.701,0.674-3.402,1.145-5.104c0.469-1.701,1.086-3.344,1.848-4.928c0.41-0.821,0.85-1.613,1.32-2.376
		c0.469-0.762,0.969-1.525,1.496-2.288c1.057-1.349,2.244-2.478,3.564-3.388c1.32-0.909,2.742-1.716,4.268-2.42
		c1.818-0.938,3.607-0.968,5.367-0.088c0.471,0.118,0.852,0.176,1.145,0.176c0.645,0,1.086-0.102,1.32-0.308
		c0.234-0.205,0.41-0.63,0.527-1.276c0.586-3.52,1.262-7.025,2.025-10.516c0.762-3.49,1.523-6.996,2.287-10.516
		c0.176-0.997,0.453-1.936,0.836-2.816c0.381-0.88,0.836-1.73,1.365-2.552c0.115-0.176,0.264-0.352,0.439-0.528
		c0.176-0.176,0.322-0.352,0.439-0.528c0.469-0.528,1.086-0.674,1.848-0.44c1.057,0.528,1.936,1.188,2.641,1.98
		c0.703,0.792,1.113,1.804,1.232,3.036c0.057,0.471,0.102,0.939,0.131,1.408C146.707,8.715,146.723,9.183,146.723,9.653z
		 M121.994,63.332c0.059,0.294,0.088,0.499,0.088,0.616c0,0.118,0,0.235,0,0.352c0.176,1.174,0.82,1.79,1.936,1.848
		c0.469,0,0.924-0.058,1.365-0.176c0.439-0.117,0.865-0.352,1.275-0.704c0.82-0.821,1.541-1.657,2.156-2.508
		c0.615-0.85,1.158-1.774,1.627-2.772c0.234-0.41,0.322-0.88,0.266-1.408c-0.176-0.821-0.236-1.672-0.176-2.552
		c0.057-0.88,0.115-1.73,0.176-2.552c0.115-2.288,0.307-4.576,0.572-6.864c0.264-2.288,0.541-4.576,0.836-6.864
		c0.115-0.528,0.232-1.056,0.352-1.584c0.117-0.528,0.145-1.085,0.088-1.672c-0.059-0.645-0.412-0.968-1.057-0.968
		c-0.471,0-0.822,0.176-1.057,0.528c-0.586,0.704-1.143,1.423-1.672,2.156c-0.527,0.734-0.967,1.54-1.318,2.42
		c-0.354,0.88-0.676,1.76-0.969,2.64c-0.295,0.88-0.559,1.791-0.793,2.728c-0.586,2.054-1.086,4.136-1.496,6.248
		c-0.41,2.112-0.85,4.224-1.318,6.336c-0.176,0.822-0.34,1.643-0.484,2.464C122.244,61.867,122.112,62.628,121.994,63.332z"/>
	<path class="st0" d="M20.212,39.984c-0.235,0.059-0.426,0.132-0.572,0.22c-0.147,0.088-0.279,0.191-0.396,0.308
		c-0.646,0.528-1.247,1.1-1.804,1.716c-0.559,0.616-1.071,1.247-1.54,1.892c-2.054,3.11-3.902,6.278-5.544,9.504
		c-0.294,0.528-0.44,1.174-0.44,1.936c-0.176,1.351-0.396,2.655-0.66,3.916c-0.264,1.262-0.543,2.567-0.836,3.916L7.892,66.56
		c-0.235,0.997-0.763,1.774-1.584,2.332c-0.822,0.557-1.731,0.748-2.728,0.572c-0.587-0.059-1.027-0.382-1.32-0.968
		c-0.587-1.29-0.968-2.493-1.144-3.608C0.705,62.894,0.5,60.811,0.5,58.64c0-1.994,0.014-3.974,0.044-5.94
		c0.029-1.965,0.014-3.945-0.044-5.94c0-3.402,0.264-6.834,0.792-10.296c0.117-0.821,0.205-1.657,0.264-2.508
		c0.058-0.85,0.117-1.686,0.176-2.508c0.176-2.522,0.425-5.016,0.748-7.48c0.321-2.464,0.777-4.928,1.364-7.392
		C4.137,15.52,4.489,14.582,4.9,13.76c0.292-0.586,0.572-1.158,0.836-1.716C6,11.487,6.278,10.915,6.572,10.328
		c0.41-0.938,0.762-1.906,1.056-2.904C8.156,5.254,9.3,3.611,11.06,2.496c1.584-1.114,3.256-1.466,5.016-1.056
		c2.17,0.587,3.344,1.995,3.52,4.224c0.117,1.115,0.088,2.2-0.088,3.256c-0.176,1.056-0.411,2.112-0.704,3.168
		c-0.118,0.411-0.25,0.807-0.396,1.188c-0.147,0.382-0.279,0.807-0.396,1.276c-0.47,1.35-1.1,2.611-1.892,3.784
		c-0.792,1.174-1.687,2.318-2.684,3.432c-0.587,0.587-0.851,1.203-0.792,1.848c0.117,2.23,0.058,4.444-0.176,6.644
		c-0.235,2.2-0.499,4.386-0.792,6.556c-0.176,0.999-0.352,2.01-0.528,3.036c-0.176,1.027-0.294,2.039-0.352,3.036
		c-0.118,0.88-0.176,1.76-0.176,2.64c0,0.88-0.03,1.731-0.088,2.552c0.234,0.176,0.41,0.118,0.528-0.176
		c0.117-0.117,0.234-0.322,0.352-0.616c0.821-1.701,1.804-3.3,2.948-4.796s2.361-2.977,3.652-4.444
		c0.469-0.469,0.938-0.88,1.408-1.232c0.469-0.352,1.025-0.585,1.672-0.704c1.408-0.41,2.684-0.249,3.828,0.484
		c1.144,0.734,1.833,1.804,2.068,3.212c0.293,1.408,0.41,2.816,0.352,4.224c-0.059,1.408-0.382,2.787-0.968,4.136
		c-0.294,0.763-0.514,1.54-0.66,2.332c-0.147,0.792-0.279,1.599-0.396,2.42c-0.176,1.351-0.411,2.684-0.704,4.004
		c-0.294,1.32-0.528,2.655-0.704,4.004c-0.176,1.526-0.499,2.963-0.968,4.312c-0.47,1.35-1.027,2.698-1.672,4.048
		c-0.763,1.525-1.35,2.992-1.76,4.4c-0.294,0.997-0.323,1.95-0.088,2.86c0.233,0.909,0.673,1.773,1.32,2.596
		c0.704,0.938,1.613,1.085,2.728,0.44c0.352-0.176,0.66-0.382,0.924-0.616c0.264-0.235,0.542-0.499,0.836-0.792
		c0.704-0.704,1.349-1.438,1.936-2.2c0.586-0.763,1.144-1.555,1.672-2.376c1.29-1.995,2.478-4.034,3.564-6.116
		c1.085-2.082,2.125-4.18,3.124-6.292c1.349-2.816,2.625-5.646,3.828-8.492c1.202-2.845,2.39-5.705,3.564-8.58
		c0.058-0.234,0.234-0.557,0.528-0.968c0.176-0.234,0.44-0.352,0.792-0.352c0.88,0,1.202,0.44,0.968,1.32
		c-0.822,2.64-1.746,5.207-2.772,7.7c-1.027,2.494-2.127,4.972-3.3,7.436c-1.056,2.347-2.171,4.65-3.344,6.908
		c-1.174,2.258-2.435,4.473-3.784,6.644c-0.646,0.997-1.292,1.98-1.936,2.948c-0.646,0.968-1.351,1.892-2.112,2.772
		c-0.646,0.704-1.335,1.29-2.068,1.76c-0.734,0.469-1.511,0.88-2.332,1.232c-1.702,0.645-3.256,0.498-4.664-0.44
		c-2.171-1.291-3.799-2.89-4.884-4.796c-1.086-1.907-1.687-4.092-1.804-6.556c-0.059-1.35,0.058-2.684,0.352-4.004
		c0.293-1.32,0.645-2.625,1.056-3.916c0.585-1.76,1.202-3.505,1.848-5.236c0.645-1.73,1.202-3.505,1.672-5.324
		c0.585-1.936,1.114-4.018,1.584-6.248c0.117-0.645,0.264-1.246,0.44-1.804c0.176-0.557,0.41-1.129,0.704-1.716
		c0.117-0.233,0.233-0.469,0.352-0.704C20.329,40.542,20.329,40.278,20.212,39.984z M12.732,17.896
		c0.997-1.114,1.861-2.258,2.596-3.432c0.733-1.173,1.305-2.434,1.716-3.784c0.528-1.466,0.792-3.05,0.792-4.752
		c0-1.114-0.559-1.789-1.672-2.024c-0.88-0.176-1.672-0.044-2.376,0.396c-0.704,0.44-1.144,1.159-1.32,2.156
		c-0.235,0.999-0.352,2.143-0.352,3.432c0,0.998,0.029,1.995,0.088,2.992c0.058,0.998,0.058,1.995,0,2.992
		C12.204,16.635,12.38,17.31,12.732,17.896z"/>
	<path class="st0" d="M264.416,50.297c-0.059-1.642,0.014-3.285,0.22-4.928c0.205-1.642,0.454-3.285,0.748-4.928
		c0.293-1.349,0.484-2.698,0.572-4.048c0.088-1.349,0.014-2.698-0.22-4.048c-0.059-0.762-0.059-1.496,0-2.2
		c0.117-1.642,0.205-3.256,0.264-4.84c0.058-1.584,0.146-3.168,0.264-4.752c0.117-1.525,0.293-3.036,0.528-4.532
		c0.233-1.496,0.616-2.977,1.144-4.444c0.88-2.169,2.053-4.165,3.52-5.984c0.997-1.173,2.112-2.053,3.344-2.64
		c0.762-0.41,1.613-0.616,2.552-0.616c1.76,0.118,3.021,0.88,3.784,2.288c0.469,0.999,0.777,2.01,0.924,3.036
		c0.146,1.027,0.072,2.098-0.221,3.212c-0.352,1.115-0.689,2.215-1.011,3.3c-0.323,1.086-0.66,2.186-1.012,3.3
		c-0.587,1.643-1.438,3.256-2.552,4.84c-0.118,0.235-0.264,0.426-0.44,0.572c-0.176,0.147-0.352,0.308-0.528,0.484
		c-0.822,0.704-1.203,1.643-1.144,2.816c0.117,0.999,0.234,2.01,0.352,3.036c0.117,1.027,0.233,2.039,0.352,3.036
		c0.058,0.294,0.073,0.602,0.044,0.924c-0.03,0.323-0.015,0.631,0.044,0.924c0.058,0.587,0.352,0.734,0.88,0.44
		c0.234-0.117,0.528-0.352,0.88-0.704c0.821-0.821,1.628-1.613,2.42-2.376c0.792-0.762,1.54-1.584,2.245-2.464
		c0.232-0.293,0.469-0.542,0.703-0.748c0.234-0.205,0.498-0.425,0.793-0.66c0.41-0.352,0.82-0.689,1.232-1.012
		c0.408-0.322,0.791-0.688,1.143-1.1c0.293-0.293,0.674-0.498,1.145-0.616c0.82-0.117,1.172,0.206,1.057,0.968
		c0,0.646-0.176,1.174-0.529,1.584c-0.703,0.646-1.334,1.351-1.891,2.112c-0.559,0.763-1.131,1.526-1.717,2.288
		c-0.471,0.587-0.924,1.159-1.363,1.716c-0.441,0.558-0.896,1.13-1.365,1.716c-0.47,0.528-0.938,1.042-1.407,1.54
		c-0.47,0.5-0.968,0.983-1.496,1.452c-0.47,0.411-0.559,0.851-0.264,1.32c0.528,0.704,0.645,1.555,0.352,2.552
		c-0.118,0.235-0.235,0.587-0.352,1.056c-0.352,0.88-0.264,1.731,0.264,2.552c0.233,0.352,0.454,0.704,0.66,1.056
		c0.205,0.352,0.396,0.734,0.572,1.144c0.41,0.587,0.704,1.35,0.88,2.288c0.117,0.587,0.381,1.086,0.792,1.496
		c0.41,0.47,0.705,1.056,0.881,1.76c0.117,0.411,0.248,0.822,0.396,1.232c0.145,0.411,0.336,0.792,0.57,1.144
		c0.117,0.059,0.178,0.206,0.178,0.44c-0.061,0.822,0.145,1.672,0.615,2.552c0.234,0.411,0.453,0.807,0.66,1.188
		c0.205,0.382,0.365,0.807,0.484,1.276c0.057,0.059,0.088,0.118,0.088,0.176c0,0.059,0.029,0.118,0.088,0.176
		c0.645,0.763,1.113,1.584,1.408,2.464c0.293,0.88,0.586,1.76,0.879,2.64c0.293,0.998,0.732,1.76,1.32,2.288
		c0.234,0.176,0.469,0.498,0.705,0.968c0.232,0.528,0.469,0.968,0.703,1.32c0.703,1.056,1.613,1.32,2.729,0.792
		c0.293-0.176,0.572-0.367,0.836-0.572c0.264-0.207,0.541-0.426,0.836-0.66c0.586-0.587,1.113-1.203,1.584-1.848
		c0.469-0.645,0.938-1.32,1.408-2.024c0.938-1.466,1.803-2.961,2.596-4.488c0.791-1.525,1.539-3.109,2.244-4.752
		c0.996-2.288,1.936-4.59,2.816-6.908c0.879-2.317,1.641-4.708,2.287-7.172c0.117-0.234,0.176-0.469,0.176-0.704
		c0-0.234,0.059-0.498,0.176-0.792c0.176-0.704,0.645-1.056,1.408-1.056c0.41,0,0.617,0.235,0.617,0.704
		c-0.119,0.646-0.266,1.291-0.441,1.936c-0.176,0.646-0.352,1.291-0.527,1.936c-0.998,3.638-2.172,7.172-3.52,10.604
		c-1.352,3.432-2.904,6.82-4.664,10.164c-0.529,0.998-1.1,1.966-1.717,2.904c-0.615,0.938-1.275,1.848-1.98,2.728
		c-0.586,0.762-1.318,1.525-2.199,2.288c-0.588,0.528-1.232,0.909-1.936,1.144c-0.822,0.352-1.57,0.425-2.244,0.22
		c-0.676-0.207-1.248-0.631-1.717-1.276c-0.586-0.822-1.219-1.599-1.891-2.332c-0.676-0.734-1.336-1.511-1.98-2.332
		c-0.646-0.763-1.203-1.569-1.672-2.42c-0.471-0.85-0.939-1.716-1.408-2.596c-0.412-0.821-0.808-1.613-1.188-2.376
		c-0.382-0.762-0.778-1.525-1.188-2.288c-0.704-1.408-1.496-2.728-2.376-3.96c-0.059-0.117-0.206-0.293-0.44-0.528
		c-0.118-0.117-0.22-0.161-0.308-0.132c-0.088,0.03-0.132,0.132-0.132,0.308c-0.059,0.294-0.103,0.602-0.132,0.924
		c-0.03,0.323-0.044,0.66-0.044,1.012c0.058,1.408,0,2.831-0.176,4.268c-0.176,1.438-0.382,2.86-0.616,4.268
		c-0.118,0.352-0.206,0.719-0.264,1.1c-0.059,0.382-0.118,0.748-0.176,1.1c-0.118,0.528-0.44,0.85-0.968,0.968
		c-1.115,0.233-2.215,0.308-3.3,0.22c-1.086-0.088-2.127-0.396-3.124-0.924c-1.115-0.528-1.76-1.349-1.936-2.464
		c-0.235-1.525-0.456-3.065-0.66-4.62c-0.207-1.554-0.396-3.094-0.572-4.62c-0.118-1.114-0.206-2.229-0.264-3.344
		C264.445,52.615,264.416,51.471,264.416,50.297z M275.24,19.761h0.176c0.117-0.293,0.264-0.601,0.44-0.924
		c0.176-0.322,0.322-0.63,0.44-0.924c0.176-0.293,0.352-0.616,0.528-0.968c0.176-0.352,0.41-0.674,0.704-0.968
		c0.997-1.349,1.657-2.786,1.98-4.312c0.322-1.525,0.513-3.08,0.572-4.664c0-0.293-0.059-0.572-0.176-0.836
		c-0.118-0.264-0.235-0.513-0.352-0.748c-0.47-0.585-0.998-0.704-1.584-0.352c-0.88,0.704-1.438,1.467-1.672,2.288l-0.264,1.056
		c-0.352,1.467-0.66,2.948-0.924,4.444c-0.264,1.496-0.338,3.007-0.22,4.532c0.058,0.411,0.102,0.807,0.132,1.188
		C275.049,18.955,275.122,19.351,275.24,19.761z"/>
	<path class="st0" d="M90.784,40.263c0.233-0.058,0.469-0.264,0.703-0.616c0.997-1.642,2.229-2.889,3.696-3.74
		c1.466-0.85,3.08-1.481,4.84-1.892c0.469-0.117,0.938-0.205,1.408-0.264c0.469-0.058,0.938-0.058,1.408,0
		c0.821,0.176,1.496,0.616,2.024,1.32c0.292,0.528,0.541,1.086,0.747,1.672c0.205,0.587,0.366,1.203,0.484,1.848
		c0.117,0.528,0.176,1.056,0.176,1.584c0,0.528,0.029,1.056,0.088,1.584c0,0.471,0.014,0.924,0.044,1.364
		c0.029,0.44,0.103,0.895,0.221,1.364c0.058,0.352,0.028,0.763-0.088,1.232c-0.471,2.347-0.91,4.694-1.32,7.04
		c-0.411,2.347-0.91,4.723-1.496,7.128c-0.118,0.47-0.25,0.954-0.396,1.452c-0.147,0.5-0.309,0.983-0.484,1.452
		c-0.235,0.646-0.411,1.247-0.528,1.804c-0.118,0.558-0.235,1.159-0.352,1.804c-0.118,0.822,0,1.525,0.352,2.112
		c0.528,0.938,1.202,1.056,2.024,0.352c0.352-0.235,0.645-0.528,0.88-0.88c1.056-1.29,1.936-2.698,2.64-4.224
		c1.466-3.344,2.89-6.688,4.269-10.032c1.378-3.344,2.741-6.717,4.092-10.12c0.117-0.293,0.233-0.601,0.352-0.924
		c0.117-0.322,0.234-0.66,0.353-1.012c0.058-0.058,0.088-0.117,0.088-0.176c0-0.058,0.029-0.146,0.088-0.264
		c0.058-0.176,0.205-0.264,0.44-0.264c0.293,0.119,0.439,0.264,0.439,0.44c0.058,0.059,0.088,0.147,0.088,0.264
		c0,0.587-0.015,1.174-0.044,1.76c-0.03,0.587-0.132,1.174-0.308,1.76c-0.704,1.878-1.438,3.755-2.2,5.632
		c-0.763,1.878-1.526,3.755-2.288,5.632c-0.704,1.702-1.408,3.388-2.112,5.06c-0.703,1.672-1.407,3.359-2.111,5.06
		c-0.295,0.646-0.603,1.262-0.924,1.848c-0.323,0.586-0.72,1.173-1.188,1.76c-1.936,2.64-4.195,2.933-6.776,0.88
		c-0.998-0.763-1.818-1.79-2.464-3.08c-0.646-1.349-1.1-2.713-1.363-4.092c-0.265-1.378-0.367-2.83-0.309-4.356
		c0-1.936,0.205-3.828,0.616-5.676c0.41-1.848,0.909-3.709,1.496-5.588c0.409-1.525,0.836-3.05,1.276-4.576
		c0.439-1.525,0.806-3.049,1.1-4.576c0.058-0.234,0.117-0.454,0.176-0.66c0.058-0.205,0.029-0.425-0.088-0.66
		c-0.176-0.528-0.471-0.704-0.88-0.528c-0.704,0.176-1.364,0.44-1.98,0.792c-0.615,0.352-1.13,0.822-1.54,1.408
		c-1.114,1.76-2.186,3.52-3.212,5.28c-1.026,1.76-1.951,3.579-2.771,5.456c-0.528,1.174-0.983,2.362-1.364,3.564
		c-0.382,1.203-0.66,2.45-0.836,3.74c-0.118,0.998-0.118,1.966,0,2.904c0.293,2.64-0.118,5.104-1.232,7.392
		c-0.527,0.997-1.319,1.584-2.376,1.76c-0.822,0.117-1.525-0.03-2.111-0.44c-0.295-0.176-0.587-0.352-0.88-0.528
		c-0.295-0.176-0.588-0.352-0.881-0.528c-0.527-0.233-0.938-0.704-1.231-1.408c-0.411-1.29-0.528-2.434-0.353-3.432
		c0-0.234,0.015-0.44,0.045-0.616c0.028-0.176,0.044-0.352,0.044-0.528c-0.177-2.64-0.104-5.206,0.22-7.7
		c0.321-2.493,0.806-4.972,1.452-7.436c0.527-2.346,1.056-4.678,1.584-6.996c0.527-2.317,1.025-4.649,1.496-6.996
		c0.058-0.293,0.116-0.586,0.176-0.88c0.058-0.293,0.146-0.586,0.264-0.88c0.176-0.469,0.469-0.821,0.88-1.056
		c0.586-0.41,1.32-0.616,2.2-0.616c0.528,0,0.909,0.207,1.145,0.616c0.233,0.294,0.439,0.602,0.615,0.924
		c0.177,0.323,0.381,0.66,0.616,1.012c0.41,0.822,0.616,1.79,0.616,2.904v1.848c0,0.352,0.014,0.704,0.044,1.056
		c0.029,0.352,0.102,0.704,0.22,1.056c0.117,0.235,0.161,0.455,0.132,0.66C90.621,39.809,90.665,40.029,90.784,40.263z"/>
	<path class="st0" d="M221.52,51.591c-1.232,0-2.406-0.176-3.52-0.528c-0.059,0-0.119-0.014-0.176-0.044
		c-0.059-0.029-0.147-0.044-0.264-0.044c-0.646-0.233-0.968,0.03-0.968,0.792c0.058,0.704,0.117,1.408,0.176,2.112
		c0.058,0.704,0.058,1.408,0,2.112c0,1.467-0.119,2.787-0.352,3.96c-0.235,1.467-0.851,2.816-1.848,4.048
		c-0.352,0.471-0.734,0.924-1.144,1.364c-0.411,0.44-0.851,0.866-1.32,1.276c-0.119,0.176-0.279,0.308-0.484,0.396
		c-0.206,0.088-0.396,0.191-0.572,0.308c-1.115,0.352-2.215,0.704-3.3,1.056c-1.086,0.352-2.187,0.674-3.3,0.968
		c-1.702,0.469-3.374,0.381-5.016-0.265c-4.576-1.526-7.95-4.37-10.12-8.536c-0.763-1.349-1.144-2.874-1.144-4.576
		c-0.059-3.402,0.44-6.776,1.496-10.12c0.117-0.292,0.249-0.601,0.396-0.924c0.146-0.322,0.308-0.63,0.484-0.924
		c0.762-1.173,1.54-2.317,2.332-3.432c0.792-1.114,1.686-2.17,2.684-3.168c0.821-0.821,1.642-1.657,2.464-2.508
		c0.821-0.85,1.729-1.598,2.728-2.244c0.469-0.41,0.997-0.645,1.584-0.704c0.88-0.058,1.716-0.044,2.508,0.044
		s1.598,0.279,2.42,0.572c0.528,0.294,1.026,0.587,1.496,0.88c0.469,0.294,0.909,0.675,1.32,1.144
		c0.821,0.88,1.232,1.995,1.232,3.344c0,0.352-0.176,0.528-0.528,0.528c-0.704-0.058-1.262-0.44-1.672-1.144
		c-0.235-0.469-0.44-0.821-0.616-1.056c-0.646-0.88-1.379-1.026-2.2-0.44c-0.528,0.294-0.88,0.675-1.056,1.144
		c-0.235,0.528-0.484,1.056-0.748,1.584c-0.264,0.528-0.543,1.086-0.836,1.672c-0.118,0.352-0.235,0.704-0.352,1.056
		c-0.118,0.352-0.235,0.763-0.352,1.232c-0.118,0.528-0.294,0.998-0.528,1.408c-0.47,0.646-0.822,1.335-1.056,2.068
		c-0.235,0.734-0.44,1.511-0.616,2.332c-0.294,1.291-0.675,2.406-1.144,3.344c-0.294,0.528-0.528,1.056-0.704,1.584
		c-0.176,0.528-0.264,1.115-0.264,1.76c-0.059,0.587-0.118,1.159-0.176,1.716c-0.059,0.558-0.088,1.13-0.088,1.716
		c0,0.822,0.102,1.614,0.308,2.376c0.205,0.763,0.454,1.555,0.748,2.376c0.293,0.704,0.85,1.115,1.672,1.232
		c1.29,0.118,2.317-0.146,3.08-0.792c1.701-1.29,3.138-2.742,4.312-4.356c1.173-1.613,1.965-3.505,2.376-5.676
		c0.176-0.88,0.381-1.642,0.616-2.288c0.117-0.469,0.117-0.821,0-1.056c-0.118-0.234-0.411-0.44-0.88-0.616
		c-0.176-0.117-0.367-0.205-0.572-0.264c-0.206-0.058-0.396-0.146-0.572-0.264c-1.232-0.645-1.922-1.466-2.068-2.464
		c-0.147-0.997-0.074-1.906,0.22-2.728c0.176-0.41,0.396-0.762,0.66-1.056c0.264-0.293,0.542-0.586,0.836-0.88
		c0.234-0.176,0.528-0.264,0.88-0.264c0.469-0.058,0.924-0.102,1.364-0.132c0.44-0.029,0.894,0.015,1.364,0.132
		c1.525,0.294,2.434,1.115,2.728,2.464c0.117,0.47,0.22,0.968,0.308,1.496s0.19,1.027,0.308,1.496
		c0.058,0.646,0.469,1.115,1.232,1.408c2.346,0.646,4.546,0.763,6.6,0.352c2.053-0.41,3.989-1.466,5.808-3.168
		c0.645-0.645,1.246-1.349,1.804-2.112c0.557-0.762,1.07-1.554,1.54-2.376c0.234-0.469,0.44-0.792,0.616-0.968
		c0.292-0.352,0.585-0.498,0.88-0.44c0.293,0.059,0.528,0.294,0.704,0.704c0.117,0.294,0.161,0.558,0.132,0.792
		c-0.03,0.235-0.103,0.499-0.22,0.792c-1.115,2.23-2.508,4.122-4.18,5.676c-1.672,1.555-3.74,2.655-6.204,3.3
		c-0.47,0.118-1.115,0.235-1.936,0.352C222.545,51.562,222.105,51.591,221.52,51.591z M210.079,45.43
		c0,0.235,0.058,0.587,0.176,1.056c0.176,0.646,0.616,0.998,1.32,1.056c0.293,0,0.528-0.117,0.704-0.352
		c0.234-0.586,0.278-1.217,0.132-1.892c-0.147-0.674-0.455-1.158-0.924-1.452c-0.294-0.293-0.616-0.264-0.968,0.088
		C210.225,44.286,210.079,44.786,210.079,45.43z"/>
	<path class="st0" d="M259.297,51.591c-1.232,0-2.406-0.176-3.52-0.528c-0.059,0-0.119-0.014-0.176-0.044
		c-0.059-0.029-0.147-0.044-0.264-0.044c-0.646-0.233-0.968,0.03-0.968,0.792c0.058,0.704,0.117,1.408,0.176,2.112
		c0.058,0.704,0.058,1.408,0,2.112c0,1.467-0.119,2.787-0.352,3.96c-0.235,1.467-0.851,2.816-1.848,4.048
		c-0.352,0.471-0.734,0.924-1.144,1.364c-0.411,0.44-0.851,0.866-1.32,1.276c-0.119,0.176-0.279,0.308-0.484,0.396
		c-0.206,0.088-0.396,0.191-0.572,0.308c-1.115,0.352-2.215,0.704-3.3,1.056c-1.086,0.352-2.187,0.674-3.3,0.968
		c-1.702,0.469-3.374,0.381-5.016-0.265c-4.576-1.526-7.95-4.37-10.12-8.536c-0.763-1.349-1.144-2.874-1.144-4.576
		c-0.059-3.402,0.44-6.776,1.496-10.12c0.117-0.292,0.249-0.601,0.396-0.924c0.146-0.322,0.308-0.63,0.484-0.924
		c0.762-1.173,1.54-2.317,2.332-3.432c0.792-1.114,1.686-2.17,2.684-3.168c0.821-0.821,1.642-1.657,2.464-2.508
		c0.821-0.85,1.729-1.598,2.728-2.244c0.469-0.41,0.997-0.645,1.584-0.704c0.88-0.058,1.716-0.044,2.508,0.044
		s1.598,0.279,2.42,0.572c0.528,0.294,1.026,0.587,1.496,0.88c0.469,0.294,0.909,0.675,1.32,1.144
		c0.821,0.88,1.232,1.995,1.232,3.344c0,0.352-0.176,0.528-0.528,0.528c-0.704-0.058-1.262-0.44-1.672-1.144
		c-0.235-0.469-0.44-0.821-0.616-1.056c-0.646-0.88-1.379-1.026-2.2-0.44c-0.528,0.294-0.88,0.675-1.056,1.144
		c-0.235,0.528-0.484,1.056-0.748,1.584c-0.264,0.528-0.543,1.086-0.836,1.672c-0.118,0.352-0.235,0.704-0.352,1.056
		c-0.118,0.352-0.235,0.763-0.352,1.232c-0.118,0.528-0.294,0.998-0.528,1.408c-0.47,0.646-0.822,1.335-1.056,2.068
		c-0.235,0.734-0.44,1.511-0.616,2.332c-0.294,1.291-0.675,2.406-1.144,3.344c-0.294,0.528-0.528,1.056-0.704,1.584
		c-0.176,0.528-0.264,1.115-0.264,1.76c-0.059,0.587-0.118,1.159-0.176,1.716c-0.059,0.558-0.088,1.13-0.088,1.716
		c0,0.822,0.102,1.614,0.308,2.376c0.205,0.763,0.454,1.555,0.748,2.376c0.293,0.704,0.85,1.115,1.672,1.232
		c1.29,0.118,2.317-0.146,3.08-0.792c1.701-1.29,3.138-2.742,4.312-4.356c1.173-1.613,1.965-3.505,2.376-5.676
		c0.176-0.88,0.381-1.642,0.616-2.288c0.117-0.469,0.117-0.821,0-1.056c-0.118-0.234-0.411-0.44-0.88-0.616
		c-0.176-0.117-0.367-0.205-0.572-0.264c-0.206-0.058-0.396-0.146-0.572-0.264c-1.232-0.645-1.922-1.466-2.068-2.464
		c-0.147-0.997-0.074-1.906,0.22-2.728c0.176-0.41,0.396-0.762,0.66-1.056c0.264-0.293,0.542-0.586,0.836-0.88
		c0.234-0.176,0.528-0.264,0.88-0.264c0.469-0.058,0.924-0.102,1.364-0.132c0.44-0.029,0.894,0.015,1.364,0.132
		c1.525,0.294,2.434,1.115,2.728,2.464c0.117,0.47,0.22,0.968,0.308,1.496s0.19,1.027,0.308,1.496
		c0.058,0.646,0.469,1.115,1.232,1.408c2.346,0.646,4.546,0.763,6.6,0.352c2.053-0.41,3.989-1.466,5.808-3.168
		c0.645-0.645,1.246-1.349,1.804-2.112c0.557-0.762,1.07-1.554,1.54-2.376c0.234-0.469,0.44-0.792,0.616-0.968
		c0.292-0.352,0.585-0.498,0.88-0.44c0.293,0.059,0.528,0.294,0.704,0.704c0.117,0.294,0.161,0.558,0.132,0.792
		c-0.03,0.235-0.103,0.499-0.22,0.792c-1.115,2.23-2.508,4.122-4.18,5.676c-1.672,1.555-3.74,2.655-6.204,3.3
		c-0.47,0.118-1.115,0.235-1.936,0.352C260.323,51.562,259.883,51.591,259.297,51.591z M247.857,45.43
		c0,0.235,0.058,0.587,0.176,1.056c0.176,0.646,0.616,0.998,1.32,1.056c0.293,0,0.528-0.117,0.704-0.352
		c0.234-0.586,0.278-1.217,0.132-1.892c-0.147-0.674-0.455-1.158-0.924-1.452c-0.294-0.293-0.616-0.264-0.968,0.088
		C248.003,44.286,247.857,44.786,247.857,45.43z"/>
	<g>
		<rect x="24.325" y="7.613" class="st1" width="116.172" height="19.774"/>
		<path class="st2" d="M29.222,17.482v5.562H26.15V8.55h4.223c1.969,0,3.426,0.358,4.372,1.075c0.945,0.718,1.417,1.806,1.417,3.267
			c0,0.853-0.234,1.611-0.704,2.275s-1.134,1.185-1.993,1.562c2.181,3.258,3.602,5.362,4.263,6.314h-3.41l-3.46-5.562H29.222z
			 M29.222,14.984h0.992c0.971,0,1.688-0.162,2.151-0.485c0.463-0.324,0.694-0.833,0.694-1.527c0-0.687-0.236-1.176-0.709-1.467
			s-1.205-0.437-2.196-0.437h-0.932V14.984z"/>
		<path class="st2" d="M47.412,23.043h-8.347V8.55h8.347v2.518h-5.274v3.183h4.907v2.518h-4.907v3.737h5.274V23.043z"/>
		<path class="st2" d="M56.105,10.9c-1.157,0-2.052,0.435-2.687,1.304c-0.635,0.869-0.952,2.08-0.952,3.633
			c0,3.231,1.212,4.848,3.638,4.848c1.018,0,2.25-0.254,3.697-0.764v2.578c-1.189,0.495-2.518,0.743-3.985,0.743
			c-2.108,0-3.721-0.64-4.838-1.918c-1.117-1.279-1.675-3.114-1.675-5.507c0-1.507,0.274-2.827,0.823-3.961
			c0.548-1.133,1.336-2.002,2.364-2.607c1.028-0.604,2.232-0.906,3.614-0.906c1.408,0,2.822,0.34,4.243,1.021l-0.991,2.498
			c-0.542-0.258-1.087-0.482-1.636-0.674C57.172,10.995,56.633,10.9,56.105,10.9z"/>
		<path class="st2" d="M66.908,14.518l3.024-5.968h3.311l-4.808,8.853v5.641h-3.053v-5.542L60.574,8.55h3.331L66.908,14.518z"/>
		<path class="st2" d="M80.736,10.9c-1.157,0-2.052,0.435-2.687,1.304c-0.635,0.869-0.952,2.08-0.952,3.633
			c0,3.231,1.212,4.848,3.638,4.848c1.018,0,2.25-0.254,3.697-0.764v2.578c-1.189,0.495-2.518,0.743-3.985,0.743
			c-2.108,0-3.721-0.64-4.838-1.918c-1.117-1.279-1.675-3.114-1.675-5.507c0-1.507,0.274-2.827,0.823-3.961
			c0.548-1.133,1.336-2.002,2.364-2.607c1.028-0.604,2.232-0.906,3.614-0.906c1.408,0,2.822,0.34,4.243,1.021l-0.991,2.498
			c-0.542-0.258-1.087-0.482-1.636-0.674C81.803,10.995,81.265,10.9,80.736,10.9z"/>
		<path class="st2" d="M87.03,23.043V8.55h3.073v11.955h5.879v2.538H87.03z"/>
		<path class="st2" d="M98.013,23.043V8.55h3.073v14.493H98.013z"/>
		<path class="st2" d="M117.104,23.043h-3.906l-6.305-10.964h-0.089c0.125,1.937,0.188,3.317,0.188,4.144v6.82h-2.746V8.55h3.876
			l6.295,10.854h0.069c-0.099-1.883-0.148-3.215-0.148-3.995V8.55h2.766V23.043z"/>
		<path class="st2" d="M125.767,14.905h5.75v7.514c-0.932,0.305-1.809,0.518-2.632,0.64s-1.664,0.184-2.523,0.184
			c-2.188,0-3.858-0.643-5.011-1.928c-1.153-1.286-1.73-3.131-1.73-5.537c0-2.34,0.669-4.163,2.007-5.472s3.194-1.963,5.566-1.963
			c1.487,0,2.921,0.297,4.303,0.892l-1.021,2.459c-1.057-0.529-2.158-0.793-3.301-0.793c-1.329,0-2.393,0.445-3.192,1.338
			s-1.199,2.092-1.199,3.599c0,1.573,0.322,2.774,0.966,3.604s1.581,1.244,2.811,1.244c0.641,0,1.292-0.066,1.953-0.198v-3.023
			h-2.746V14.905z"/>
	</g>
</g>
</svg>