<!-- Generator: Adobe Illustrator 19.2.0, SVG Export Plug-In  -->
<svg version="1.1"
	 xmlns="http://www.w3.org/2000/svg" xmlns:xlink="http://www.w3.org/1999/xlink" xmlns:a="http://ns.adobe.com/AdobeSVGViewerExtensions/3.0/"
	 x="0px" y="0px" width="209.026px" height="84.775px" viewBox="0 0 209.026 84.775"
	 style="enable-background:new 0 0 209.026 84.775;" xml:space="preserve">
<style type="text/css">
	.st0{fill:#FFFFFF;}
	.st1{fill:none;}
</style>
<defs>
</defs>
<path class="st0" d="M49.814,49.324c-0.118,0.704-0.132,1.423-0.044,2.156c0.088,0.734,0.308,1.482,0.66,2.244
	c0.176,0.294,0.264,0.616,0.264,0.968c0,0.646-0.015,1.291-0.044,1.936c-0.03,0.646-0.132,1.292-0.308,1.936
	c-0.411,1.408-0.69,2.816-0.836,4.224c-0.147,1.408-0.279,2.816-0.396,4.224c-0.059,0.47-0.104,0.939-0.132,1.408
	c-0.03,0.469-0.074,0.938-0.132,1.408c0,0.176-0.015,0.352-0.044,0.528c-0.03,0.176,0.014,0.322,0.132,0.44
	c0.176,0.117,0.352,0.132,0.528,0.044c0.176-0.088,0.352-0.191,0.528-0.308c0.41-0.235,0.777-0.499,1.1-0.792
	c0.322-0.294,0.629-0.616,0.924-0.968c0.88-0.997,1.701-2.141,2.464-3.432c0.821-1.349,1.584-2.728,2.288-4.136
	s1.408-2.816,2.112-4.224c0.997-2.112,2.038-4.224,3.124-6.336c1.084-2.112,2.097-4.282,3.036-6.512
	c0.117-0.352,0.249-0.704,0.396-1.056c0.146-0.352,0.308-0.704,0.484-1.056c0.117-0.352,0.396-0.585,0.836-0.704
	c0.44-0.117,0.806-0.058,1.1,0.176c0.176,0.176,0.205,0.47,0.088,0.88c-0.47,1.056-0.866,2.142-1.188,3.256
	c-0.323,1.115-0.748,2.2-1.276,3.256c-1.056,1.995-2.024,4.004-2.904,6.028s-1.79,4.063-2.728,6.116
	c-0.646,1.35-1.335,2.699-2.068,4.048c-0.734,1.35-1.57,2.611-2.508,3.784c-1.35,1.76-2.963,3.313-4.84,4.664
	c-0.528,0.41-1.13,0.645-1.804,0.704c-0.675,0.058-1.335,0-1.98-0.176c-0.646-0.176-1.232-0.455-1.76-0.836
	c-0.528-0.382-0.91-0.836-1.144-1.364c-0.294-0.704-0.587-1.423-0.88-2.156c-0.294-0.734-0.528-1.481-0.704-2.244
	c-0.059-0.176-0.103-0.337-0.132-0.484c-0.03-0.146-0.074-0.308-0.132-0.484c-0.176-0.41-0.411-0.469-0.704-0.176
	c-0.646,0.47-1.292,0.924-1.936,1.364c-0.646,0.44-1.292,0.894-1.936,1.364c-2.992,1.76-6.103,2.024-9.328,0.792
	c-2.171-0.763-3.667-2.229-4.488-4.4c-0.411-1.056-0.704-2.126-0.88-3.212c-0.176-1.085-0.323-2.185-0.44-3.3
	c-0.528-4.4-0.088-8.461,1.32-12.188c1.408-3.725,3.578-7.201,6.512-10.428c1.114-1.232,2.317-2.2,3.608-2.904
	c2.17-1.114,4.282-1.173,6.336-0.176c0.938,0.352,1.73,0.822,2.376,1.408c1.173,0.763,1.965,1.731,2.376,2.904
	c0.176,0.47,0.352,0.924,0.528,1.364c0.176,0.44,0.41,0.866,0.704,1.276c0.233,0.47,0.264,0.822,0.088,1.056
	c-0.235,0.294-0.616,0.382-1.144,0.264c-1.115-0.293-1.936-0.938-2.464-1.936c-0.235-0.293-0.455-0.601-0.66-0.924
	c-0.206-0.322-0.367-0.66-0.484-1.012c-0.235-0.469-0.572-0.836-1.012-1.1c-0.44-0.264-0.895-0.396-1.364-0.396
	c-0.47,0-0.924,0.132-1.364,0.396c-0.44,0.264-0.778,0.69-1.012,1.276c-0.059,0.176-0.207,0.5-0.44,0.968
	c-0.646,1.174-1.232,2.376-1.76,3.608s-0.88,2.523-1.056,3.872c-0.176,1.232-0.47,2.45-0.88,3.652
	c-0.411,1.203-0.822,2.391-1.232,3.564c-1.115,3.287-0.851,6.571,0.792,9.856c0.645,1.292,1.452,2.01,2.42,2.156
	c0.968,0.147,1.892-0.308,2.772-1.364c1.349-1.701,2.552-3.476,3.608-5.324c1.056-1.848,1.76-3.886,2.112-6.116
	c0.117-0.762,0.308-1.51,0.572-2.244c0.264-0.733,0.513-1.481,0.748-2.244c0.41-1.056,0.645-2.024,0.704-2.904
	c0-0.704,0.381-1.144,1.144-1.32h0.088c1.114-0.117,1.936-0.058,2.464,0.176c0.528,0.235,0.909,1.027,1.144,2.376
	c0.058,0.47,0.088,0.924,0.088,1.364S49.814,48.796,49.814,49.324z"/>
<path class="st0" d="M142.635,70.379c-3.755,0-6.542-1.584-8.36-4.752c-0.646-1.173-1.159-2.42-1.54-3.74
	c-0.382-1.32-0.631-2.654-0.748-4.004c-0.235-1.994-0.176-3.945,0.176-5.852c0.352-1.906,0.85-3.798,1.496-5.676
	c0.821-2.346,1.936-4.722,3.344-7.128c0.762-1.349,1.672-2.537,2.728-3.564c1.056-1.026,2.2-1.95,3.432-2.772
	c0.645-0.41,1.305-0.63,1.98-0.66c0.674-0.029,1.334,0.015,1.98,0.132c0.88,0.235,1.73,0.528,2.552,0.88
	c0.821,0.352,1.613,0.822,2.376,1.408c1.173,0.939,1.906,2.054,2.2,3.344c0.058,0.176,0.102,0.367,0.132,0.572
	c0.029,0.206,0.014,0.396-0.044,0.572c-0.059,0.352-0.323,0.587-0.792,0.704c-0.47,0-0.734-0.176-0.792-0.528
	c-0.118-0.352-0.25-0.688-0.396-1.012c-0.147-0.322-0.308-0.63-0.484-0.924c-0.471-0.585-1.027-0.997-1.672-1.232
	c-0.587-0.292-1.056-0.117-1.408,0.528c-0.118,0.118-0.176,0.206-0.176,0.264c-0.822,1.878-1.584,3.784-2.288,5.72
	c-0.704,1.936-1.232,3.931-1.584,5.984c-0.352,1.584-0.528,3.227-0.528,4.928c0.058,1.76-0.382,3.344-1.32,4.752
	c-0.646,0.998-1.174,2.039-1.584,3.124c-0.411,1.086-0.763,2.186-1.056,3.3c-0.294,0.822-0.323,1.408-0.088,1.76
	c0.233,0.352,0.733,0.646,1.496,0.88c2.757,0.88,5.426,0.645,8.008-0.704c6.981-3.52,11.909-9.034,14.784-16.544
	c0.938-2.522,1.672-5.221,2.2-8.096c0-0.176,0.058-0.44,0.176-0.792c0.176-0.292,0.381-0.44,0.616-0.44
	c0.528,0,0.982,0.22,1.364,0.66c0.381,0.44,0.513,0.924,0.396,1.452c-0.235,0.998-0.484,1.995-0.748,2.992
	c-0.264,0.999-0.572,1.995-0.924,2.992c-0.939,2.64-2.083,5.134-3.432,7.48c-1.351,2.347-3.051,4.518-5.104,6.512
	c-3.696,3.58-8.067,5.954-13.112,7.128c-0.528,0.117-1.071,0.205-1.628,0.264C143.705,70.349,143.163,70.379,142.635,70.379z"/>
<path class="st0" d="M183.961,42.845c-0.235,0.059-0.426,0.132-0.572,0.22c-0.147,0.088-0.279,0.191-0.396,0.308
	c-0.646,0.528-1.247,1.1-1.804,1.716c-0.559,0.616-1.071,1.247-1.54,1.892c-2.054,3.11-3.902,6.278-5.544,9.504
	c-0.294,0.528-0.44,1.174-0.44,1.936c-0.176,1.351-0.396,2.655-0.66,3.916c-0.264,1.262-0.543,2.567-0.836,3.916l-0.528,3.168
	c-0.235,0.997-0.763,1.774-1.584,2.332c-0.822,0.557-1.731,0.748-2.728,0.572c-0.587-0.059-1.027-0.382-1.32-0.968
	c-0.587-1.29-0.968-2.493-1.144-3.608c-0.411-1.994-0.616-4.077-0.616-6.248c0-1.994,0.014-3.974,0.044-5.94
	c0.029-1.965,0.014-3.945-0.044-5.94c0-3.402,0.264-6.834,0.792-10.296c0.117-0.821,0.205-1.657,0.264-2.508
	c0.058-0.85,0.117-1.686,0.176-2.508c0.176-2.522,0.425-5.016,0.748-7.48c0.321-2.464,0.777-4.928,1.364-7.392
	c0.293-1.056,0.645-1.994,1.056-2.816c0.292-0.586,0.572-1.158,0.836-1.716c0.264-0.557,0.542-1.128,0.836-1.716
	c0.41-0.938,0.762-1.906,1.056-2.904c0.528-2.17,1.672-3.813,3.432-4.928c1.584-1.114,3.256-1.466,5.016-1.056
	c2.17,0.587,3.344,1.995,3.52,4.224c0.117,1.115,0.088,2.2-0.088,3.256c-0.176,1.056-0.411,2.112-0.704,3.168
	c-0.118,0.411-0.25,0.807-0.396,1.188c-0.147,0.382-0.279,0.807-0.396,1.276c-0.47,1.35-1.1,2.611-1.892,3.784
	c-0.792,1.174-1.687,2.318-2.684,3.432c-0.587,0.587-0.851,1.203-0.792,1.848c0.117,2.23,0.058,4.444-0.176,6.644
	c-0.235,2.2-0.499,4.386-0.792,6.556c-0.176,0.999-0.352,2.01-0.528,3.036c-0.176,1.027-0.294,2.039-0.352,3.036
	c-0.118,0.88-0.176,1.76-0.176,2.64c0,0.88-0.03,1.731-0.088,2.552c0.234,0.176,0.41,0.118,0.528-0.176
	c0.117-0.117,0.234-0.322,0.352-0.616c0.821-1.701,1.804-3.3,2.948-4.796s2.361-2.977,3.652-4.444
	c0.469-0.469,0.938-0.88,1.408-1.232c0.469-0.352,1.025-0.585,1.672-0.704c1.408-0.41,2.684-0.249,3.828,0.484
	c1.144,0.734,1.833,1.804,2.068,3.212c0.293,1.408,0.41,2.816,0.352,4.224c-0.059,1.408-0.382,2.787-0.968,4.136
	c-0.294,0.763-0.514,1.54-0.66,2.332c-0.147,0.792-0.279,1.599-0.396,2.42c-0.176,1.351-0.411,2.684-0.704,4.004
	c-0.294,1.32-0.528,2.655-0.704,4.004c-0.176,1.526-0.499,2.963-0.968,4.312c-0.47,1.35-1.027,2.698-1.672,4.048
	c-0.763,1.525-1.35,2.992-1.76,4.4c-0.294,0.997-0.323,1.95-0.088,2.86c0.233,0.909,0.673,1.773,1.32,2.596
	c0.704,0.938,1.613,1.085,2.728,0.44c0.352-0.176,0.66-0.382,0.924-0.616c0.264-0.235,0.542-0.499,0.836-0.792
	c0.704-0.704,1.349-1.438,1.936-2.2c0.586-0.763,1.144-1.555,1.672-2.376c1.29-1.995,2.478-4.034,3.564-6.116
	c1.085-2.082,2.125-4.18,3.124-6.292c1.349-2.816,2.625-5.646,3.828-8.492c1.202-2.845,2.39-5.705,3.564-8.58
	c0.058-0.234,0.234-0.557,0.528-0.968c0.176-0.234,0.44-0.352,0.792-0.352c0.88,0,1.202,0.44,0.968,1.32
	c-0.822,2.64-1.746,5.207-2.772,7.7c-1.027,2.494-2.127,4.972-3.3,7.436c-1.056,2.347-2.171,4.65-3.344,6.908
	c-1.174,2.258-2.435,4.473-3.784,6.644c-0.646,0.997-1.292,1.98-1.936,2.948c-0.646,0.968-1.351,1.892-2.112,2.772
	c-0.646,0.704-1.335,1.29-2.068,1.76c-0.734,0.469-1.511,0.88-2.332,1.232c-1.702,0.645-3.256,0.498-4.664-0.44
	c-2.171-1.291-3.799-2.89-4.884-4.796c-1.086-1.907-1.687-4.092-1.804-6.556c-0.059-1.35,0.058-2.684,0.352-4.004
	c0.293-1.32,0.645-2.625,1.056-3.916c0.585-1.76,1.202-3.505,1.848-5.236c0.645-1.73,1.202-3.505,1.672-5.324
	c0.585-1.936,1.114-4.018,1.584-6.248c0.117-0.645,0.264-1.246,0.44-1.804c0.176-0.557,0.41-1.129,0.704-1.716
	c0.117-0.233,0.233-0.469,0.352-0.704C184.077,43.403,184.077,43.139,183.961,42.845z M176.481,20.757
	c0.997-1.114,1.861-2.258,2.596-3.432c0.733-1.173,1.305-2.434,1.716-3.784c0.528-1.466,0.792-3.05,0.792-4.752
	c0-1.114-0.559-1.789-1.672-2.024c-0.88-0.176-1.672-0.044-2.376,0.396c-0.704,0.44-1.144,1.159-1.32,2.156
	c-0.235,0.999-0.352,2.143-0.352,3.432c0,0.998,0.029,1.995,0.088,2.992c0.058,0.998,0.058,1.995,0,2.992
	C175.952,19.496,176.129,20.172,176.481,20.757z"/>
<path class="st0" d="M0,52.975c0-3.285,0.322-6.717,0.968-10.296c0.293-1.642,0.528-3.27,0.704-4.884
	c0.177-1.613,0.41-3.241,0.704-4.884c0.293-1.818,0.586-3.622,0.88-5.412c0.293-1.789,0.586-3.593,0.881-5.412
	c0.116-0.645,0.22-1.261,0.308-1.848c0.088-0.586,0.189-1.202,0.308-1.848c0.117-1.056,0.322-2.068,0.616-3.036
	c0.293-0.968,0.674-1.95,1.145-2.948c0.703-1.701,1.421-3.373,2.155-5.016c0.733-1.642,1.422-3.314,2.068-5.016
	c0.469-1.232,1.157-1.965,2.068-2.2c0.908-0.233,1.773-0.233,2.596,0c0.469,0.119,0.85,0.338,1.144,0.66
	c0.293,0.323,0.558,0.69,0.792,1.1c0.293,0.646,0.513,1.306,0.66,1.98c0.146,0.675,0.249,1.364,0.309,2.068
	c0.176,2.758,0.028,5.663-0.44,8.712c-0.471,3.051-1.042,6.059-1.716,9.02c-0.676,2.963-1.512,5.911-2.508,8.844
	c-0.177,0.587-0.367,1.174-0.572,1.76c-0.206,0.587-0.515,1.144-0.924,1.672c-0.177,0.352-0.265,0.704-0.265,1.056v2.112
	c0.058,1.115,0.014,2.215-0.132,3.3c-0.146,1.086-0.279,2.187-0.396,3.3c-0.118,0.939-0.191,1.863-0.221,2.772
	c-0.03,0.91-0.015,1.834,0.044,2.772c0.117,1.878,0.19,3.711,0.221,5.5c0.028,1.79-0.016,3.623-0.132,5.5
	c-0.119,0.822-0.191,1.628-0.221,2.42c-0.03,0.792-0.103,1.598-0.22,2.42c0,0.352-0.074,0.704-0.22,1.056
	c-0.147,0.352-0.279,0.673-0.396,0.968c-0.411,0.704-0.675,1.29-0.792,1.76c-0.294,0.821-0.118,1.524,0.528,2.112
	c0.645,0.528,1.393,0.924,2.244,1.188c0.85,0.264,1.773,0.044,2.771-0.66c0.88-0.646,1.701-1.496,2.464-2.552
	c0.821-0.999,1.525-2.039,2.112-3.124c0.586-1.086,1.145-2.214,1.672-3.388c1.173-2.64,2.244-5.28,3.212-7.92
	c0.969-2.64,1.862-5.368,2.685-8.184c0.469-1.466,0.908-2.933,1.319-4.4c0.41-1.466,0.851-2.933,1.32-4.4
	c0.176-0.528,0.498-1.085,0.968-1.672c0.177-0.117,0.353-0.22,0.528-0.308s0.381-0.073,0.616,0.044
	c0.409,0.235,0.616,0.616,0.616,1.144c0,0.118-0.06,0.352-0.177,0.704c-1.174,3.638-2.362,7.231-3.563,10.78
	c-1.203,3.55-2.479,7.084-3.828,10.604c-0.587,1.408-1.174,2.802-1.76,4.18c-0.588,1.377-1.232,2.742-1.937,4.092
	c-0.294,0.528-0.571,1.056-0.836,1.584c-0.264,0.528-0.603,1.026-1.012,1.496c-1.467,1.936-3.286,3.197-5.456,3.784
	c-1.056,0.292-2.348,0.277-3.872-0.044c-1.526-0.323-2.787-1.159-3.784-2.508c-1.526-2.171-2.802-4.444-3.828-6.82
	s-1.716-4.884-2.067-7.524c-0.118-0.997-0.191-2.024-0.221-3.08C0.102,54.999,0.058,53.973,0,52.975z M12.32,28.775
	c0.176-0.176,0.277-0.337,0.308-0.484c0.029-0.146,0.103-0.278,0.221-0.396c0.292-0.938,0.557-1.862,0.792-2.772
	c0.233-0.909,0.469-1.833,0.703-2.772c0.528-2.112,0.969-4.238,1.32-6.38c0.353-2.141,0.646-4.297,0.88-6.468
	c0.177-1.701,0.088-3.432-0.264-5.192c-0.118-0.234-0.206-0.454-0.264-0.66c-0.06-0.205-0.177-0.425-0.353-0.66
	c-0.294-0.41-0.646-0.586-1.056-0.528c-0.353,0.059-0.587,0.352-0.704,0.88c-0.06,0.294-0.104,0.558-0.132,0.792
	c-0.03,0.235-0.044,0.47-0.044,0.704c-0.06,0.352-0.088,0.704-0.088,1.056s-0.03,0.675-0.089,0.968
	c-0.118,1.056-0.206,2.112-0.264,3.168c-0.059,1.056-0.118,2.142-0.176,3.256c-0.118,1.35-0.206,2.728-0.264,4.136
	c-0.06,1.408-0.118,2.816-0.177,4.224c-0.118,1.174-0.19,2.347-0.22,3.52C12.422,26.342,12.378,27.543,12.32,28.775z"/>
<path class="st0" d="M109.762,44.564c0.233-0.058,0.469-0.264,0.703-0.616c0.997-1.642,2.229-2.889,3.696-3.74
	c1.466-0.85,3.08-1.481,4.84-1.892c0.469-0.117,0.938-0.205,1.408-0.264c0.469-0.058,0.938-0.058,1.408,0
	c0.821,0.176,1.496,0.616,2.024,1.32c0.292,0.528,0.541,1.086,0.747,1.672c0.205,0.587,0.366,1.203,0.484,1.848
	c0.117,0.528,0.176,1.056,0.176,1.584c0,0.528,0.029,1.056,0.088,1.584c0,0.471,0.014,0.924,0.044,1.364
	c0.029,0.44,0.103,0.895,0.221,1.364c0.058,0.352,0.028,0.763-0.088,1.232c-0.471,2.347-0.91,4.694-1.32,7.04
	c-0.411,2.347-0.91,4.723-1.496,7.128c-0.118,0.47-0.25,0.954-0.396,1.452c-0.147,0.5-0.309,0.983-0.484,1.452
	c-0.235,0.646-0.411,1.247-0.528,1.804c-0.118,0.558-0.235,1.159-0.352,1.804c-0.118,0.822,0,1.525,0.352,2.112
	c0.528,0.938,1.202,1.056,2.024,0.352c0.352-0.235,0.645-0.528,0.88-0.88c1.056-1.29,1.936-2.698,2.64-4.224
	c1.466-3.344,2.89-6.688,4.269-10.032c1.378-3.344,2.741-6.717,4.092-10.12c0.117-0.293,0.233-0.601,0.352-0.924
	c0.117-0.322,0.234-0.66,0.353-1.012c0.058-0.058,0.088-0.117,0.088-0.176c0-0.058,0.029-0.146,0.088-0.264
	c0.058-0.176,0.205-0.264,0.44-0.264c0.293,0.119,0.439,0.264,0.439,0.44c0.058,0.059,0.088,0.147,0.088,0.264
	c0,0.587-0.015,1.174-0.044,1.76c-0.03,0.587-0.132,1.174-0.308,1.76c-0.704,1.878-1.438,3.755-2.2,5.632
	c-0.763,1.878-1.526,3.755-2.288,5.632c-0.704,1.702-1.408,3.388-2.112,5.06c-0.703,1.672-1.407,3.359-2.111,5.06
	c-0.295,0.646-0.603,1.262-0.924,1.848c-0.323,0.586-0.72,1.173-1.188,1.76c-1.936,2.64-4.195,2.933-6.776,0.88
	c-0.998-0.763-1.818-1.79-2.464-3.08c-0.646-1.349-1.1-2.713-1.363-4.092c-0.265-1.378-0.367-2.83-0.309-4.356
	c0-1.936,0.205-3.828,0.616-5.676c0.41-1.848,0.909-3.709,1.496-5.588c0.409-1.525,0.836-3.05,1.276-4.576
	c0.439-1.525,0.806-3.049,1.1-4.576c0.058-0.234,0.117-0.454,0.176-0.66c0.058-0.205,0.029-0.425-0.088-0.66
	c-0.176-0.528-0.471-0.704-0.88-0.528c-0.704,0.176-1.364,0.44-1.98,0.792c-0.615,0.352-1.13,0.822-1.54,1.408
	c-1.114,1.76-2.186,3.52-3.212,5.28c-1.026,1.76-1.951,3.579-2.771,5.456c-0.528,1.174-0.983,2.362-1.364,3.564
	c-0.382,1.203-0.66,2.45-0.836,3.74c-0.118,0.998-0.118,1.966,0,2.904c0.293,2.64-0.118,5.104-1.232,7.392
	c-0.527,0.997-1.319,1.584-2.376,1.76c-0.822,0.117-1.525-0.03-2.111-0.44c-0.295-0.176-0.587-0.352-0.88-0.528
	c-0.295-0.176-0.588-0.352-0.881-0.528c-0.527-0.233-0.938-0.704-1.231-1.408c-0.411-1.29-0.528-2.434-0.353-3.432
	c0-0.234,0.015-0.44,0.045-0.616c0.028-0.176,0.044-0.352,0.044-0.528c-0.177-2.64-0.104-5.206,0.22-7.7
	c0.321-2.493,0.806-4.972,1.452-7.436c0.527-2.346,1.056-4.678,1.584-6.996c0.527-2.317,1.025-4.649,1.496-6.996
	c0.058-0.293,0.116-0.586,0.176-0.88c0.058-0.293,0.146-0.586,0.264-0.88c0.176-0.469,0.469-0.821,0.88-1.056
	c0.586-0.41,1.32-0.616,2.2-0.616c0.528,0,0.909,0.207,1.145,0.616c0.233,0.294,0.439,0.602,0.615,0.924
	c0.177,0.323,0.381,0.66,0.616,1.012c0.41,0.822,0.616,1.79,0.616,2.904v1.848c0,0.352,0.014,0.704,0.044,1.056
	c0.029,0.352,0.102,0.704,0.22,1.056c0.117,0.235,0.161,0.455,0.132,0.66C109.599,44.11,109.643,44.33,109.762,44.564z"/>
<path class="st0" d="M71.765,43.421c0.176,4.518,0,8.976-0.528,13.376c-0.118,0.822-0.22,1.672-0.308,2.552
	s-0.221,1.731-0.396,2.552c-0.118,0.352-0.162,0.704-0.132,1.056c0.029,0.352,0.073,0.704,0.132,1.056
	c0.058,0.294,0.102,0.587,0.132,0.88c0.029,0.294,0.014,0.587-0.044,0.88c0,0.646,0.293,0.968,0.88,0.968
	c1.408-0.117,2.772-0.308,4.093-0.572c1.319-0.264,2.448-1.041,3.388-2.332c0-0.058,0.058-0.146,0.176-0.264
	c0.762-0.762,1.145-1.73,1.145-2.904c-0.06-1.642-0.074-3.27-0.045-4.884c0.029-1.613,0.073-3.27,0.133-4.972
	c0.116-2.521,0.365-5,0.748-7.436c0.381-2.434,1.04-4.854,1.979-7.26c0.176-0.586,0.322-1.158,0.44-1.716
	c0.116-0.557,0.264-1.129,0.439-1.716c0.293-0.997,0.616-1.569,0.968-1.716c0.353-0.146,0.938,0.074,1.761,0.66
	c0.704,0.47,1.231,1.027,1.584,1.672c0.352,0.646,0.469,1.408,0.352,2.288c-0.118,0.763-0.103,1.496,0.044,2.2
	c0.146,0.704,0.278,1.438,0.396,2.2c0.469,2.582,0.748,5.134,0.836,7.656c0.088,2.523,0.072,5.104-0.044,7.744
	c-0.06,0.998-0.162,2.01-0.309,3.036c-0.146,1.027-0.25,2.039-0.308,3.036c-0.118,0.939-0.294,1.819-0.528,2.64
	c-0.234,0.822-0.527,1.643-0.88,2.464c-0.294,0.587-0.527,1.174-0.704,1.76c-0.176,0.586-0.352,1.202-0.527,1.848
	c-0.177,0.528-0.177,1.012,0,1.452c0.176,0.44,0.381,0.894,0.615,1.364c0.293,0.469,0.851,0.557,1.673,0.264
	c0.82-0.294,1.495-0.822,2.023-1.584c0.353-0.587,0.66-1.174,0.924-1.76c0.265-0.587,0.542-1.203,0.836-1.848
	c0.88-2.229,1.672-4.517,2.376-6.864c0.704-2.346,1.378-4.693,2.024-7.04c0.645-2.405,1.29-4.766,1.936-7.084
	c0.646-2.317,1.35-4.649,2.112-6.996c0.058-0.293,0.132-0.557,0.22-0.792c0.088-0.234,0.19-0.498,0.309-0.792
	c0.352-0.762,0.997-0.968,1.936-0.616c0.704,0.235,0.938,0.734,0.704,1.496c-0.47,1.174-0.88,2.362-1.231,3.564
	c-0.353,1.203-0.734,2.391-1.145,3.564c-1.056,3.344-2.068,6.659-3.036,9.944c-0.968,3.286-2.039,6.6-3.212,9.944
	c-0.411,1.056-0.822,2.097-1.231,3.124c-0.411,1.026-0.852,2.038-1.32,3.036c-0.471,1.114-1.175,1.965-2.112,2.553
	c-0.822,0.585-1.687,0.85-2.596,0.792c-0.91-0.06-1.716-0.411-2.42-1.057c-2.406-2.111-3.902-4.576-4.488-7.392
	c-0.059-0.117-0.103-0.234-0.132-0.352c-0.03-0.117-0.074-0.234-0.132-0.352c-0.235-0.41-0.528-0.44-0.88-0.088
	c-0.528,0.704-1.087,1.35-1.672,1.936c-0.646,0.704-1.438,1.232-2.376,1.584c-1.585,0.528-3.257,0.879-5.017,1.056
	c-0.528,0.058-1.042,0.028-1.54-0.088c-0.499-0.119-0.983-0.265-1.452-0.44c-1.936-0.88-3.55-2.024-4.84-3.432
	c-1.291-1.408-2.143-3.168-2.552-5.28c-0.294-1.114-0.427-2.244-0.396-3.388c0.029-1.144,0.103-2.302,0.221-3.476
	c0.293-1.817,0.557-3.637,0.792-5.456c0.233-1.818,0.527-3.637,0.88-5.456c0.293-1.349,0.572-2.684,0.836-4.004
	c0.264-1.32,0.572-2.625,0.924-3.916c0.41-1.465,0.674-2.961,0.792-4.488c0.058-0.234,0.088-0.469,0.088-0.704
	c0-0.233,0.058-0.469,0.176-0.704c0.117-0.585,0.47-0.792,1.057-0.616c0.997,0.352,1.965,0.851,2.903,1.496
	c0.47,0.352,0.821,0.587,1.057,0.704c0.997,0.646,1.496,1.644,1.496,2.992V43.421z"/>
<g>
	<rect x="22.116" y="10.071" class="st1" width="70.3" height="12.648"/>
	<path class="st0" d="M32.211,15.573c0,1.617-0.4,2.859-1.202,3.728c-0.802,0.868-1.951,1.303-3.447,1.303
		c-1.497,0-2.646-0.435-3.447-1.303c-0.802-0.869-1.203-2.116-1.203-3.742c0-1.625,0.402-2.867,1.206-3.725s1.956-1.286,3.457-1.286
		s2.649,0.432,3.444,1.296C31.814,12.709,32.211,13.951,32.211,15.573z M25.083,15.573c0,1.091,0.207,1.913,0.621,2.465
		c0.414,0.553,1.033,0.829,1.857,0.829c1.652,0,2.479-1.098,2.479-3.293c0-2.201-0.822-3.301-2.466-3.301
		c-0.823,0-1.445,0.277-1.863,0.832C25.292,13.658,25.083,14.482,25.083,15.573z"/>
	<path class="st0" d="M41.858,10.702v6.32c0,0.721-0.161,1.354-0.484,1.897s-0.789,0.959-1.399,1.249s-1.332,0.435-2.165,0.435
		c-1.256,0-2.231-0.322-2.926-0.965c-0.695-0.644-1.043-1.524-1.043-2.643v-6.293h2.064v5.979c0,0.753,0.151,1.305,0.455,1.657
		c0.303,0.352,0.804,0.528,1.503,0.528c0.677,0,1.168-0.177,1.473-0.531c0.306-0.354,0.458-0.91,0.458-1.667v-5.966H41.858z"/>
	<path class="st0" d="M45.992,16.722v3.748H43.92v-9.768h2.846c1.327,0,2.31,0.242,2.946,0.725c0.637,0.483,0.956,1.217,0.956,2.202
		c0,0.575-0.158,1.085-0.475,1.533s-0.764,0.798-1.343,1.052c1.47,2.196,2.427,3.614,2.873,4.256h-2.299l-2.332-3.748H45.992z
		 M45.992,15.038h0.668c0.654,0,1.138-0.109,1.449-0.328c0.312-0.218,0.468-0.561,0.468-1.029c0-0.463-0.159-0.792-0.478-0.989
		c-0.318-0.196-0.812-0.294-1.479-0.294h-0.628V15.038z"/>
	<path class="st0" d="M57.889,20.47h-2.037v-9.768h5.599v1.697h-3.562v2.519h3.314v1.69h-3.314V20.47z"/>
	<path class="st0" d="M63.034,20.47v-9.768h2.071v9.768H63.034z"/>
	<path class="st0" d="M69.305,16.722v3.748h-2.071v-9.768h2.846c1.327,0,2.31,0.242,2.946,0.725
		c0.637,0.483,0.956,1.217,0.956,2.202c0,0.575-0.158,1.085-0.475,1.533s-0.764,0.798-1.343,1.052
		c1.47,2.196,2.427,3.614,2.873,4.256h-2.299l-2.332-3.748H69.305z M69.305,15.038h0.668c0.654,0,1.138-0.109,1.449-0.328
		c0.312-0.218,0.468-0.561,0.468-1.029c0-0.463-0.159-0.792-0.478-0.989c-0.318-0.196-0.812-0.294-1.479-0.294h-0.628V15.038z"/>
	<path class="st0" d="M81.704,17.757c0,0.882-0.317,1.577-0.952,2.084s-1.518,0.762-2.649,0.762c-1.042,0-1.964-0.196-2.766-0.588
		v-1.924c0.659,0.294,1.217,0.501,1.674,0.621c0.456,0.121,0.874,0.181,1.253,0.181c0.454,0,0.803-0.087,1.045-0.261
		c0.243-0.173,0.364-0.432,0.364-0.775c0-0.191-0.054-0.362-0.16-0.511c-0.107-0.149-0.264-0.292-0.471-0.431
		s-0.63-0.358-1.267-0.662c-0.597-0.28-1.044-0.55-1.343-0.808s-0.537-0.559-0.715-0.902c-0.178-0.343-0.268-0.744-0.268-1.202
		c0-0.864,0.293-1.543,0.879-2.038c0.586-0.494,1.396-0.741,2.429-0.741c0.508,0,0.992,0.06,1.453,0.18s0.943,0.29,1.446,0.508
		l-0.668,1.61c-0.521-0.213-0.952-0.363-1.293-0.447c-0.341-0.085-0.676-0.127-1.006-0.127c-0.392,0-0.692,0.091-0.901,0.274
		c-0.21,0.183-0.314,0.421-0.314,0.715c0,0.183,0.043,0.342,0.127,0.478c0.085,0.136,0.22,0.267,0.404,0.394
		s0.623,0.355,1.313,0.685c0.912,0.437,1.538,0.874,1.877,1.312C81.536,16.583,81.704,17.12,81.704,17.757z"/>
	<path class="st0" d="M86.914,20.47h-2.07v-8.044h-2.653v-1.724h7.376v1.724h-2.652V20.47z"/>
</g>
</svg>