<svg id="Layer_1" data-name="Layer 1" xmlns="http://www.w3.org/2000/svg" viewBox="0 0 442 172.73"><defs><style>.cls-1,.cls-2{fill:#fff;}.cls-1{stroke:#fff;stroke-miterlimit:10;stroke-width:1.63px;}</style></defs><title>register</title><path class="cls-1" d="M165,65.12q0.29-2.15.65-3.94t0.64-3.65a5.05,5.05,0,0,1,.07-0.86c0-.29.12-0.62,0.22-1a2.28,2.28,0,0,1,.71-1.29,1.91,1.91,0,0,1,1.57.14,11.2,11.2,0,0,1,4.44,2.86,8.68,8.68,0,0,1,2.15,4.72q0.71,6,1.14,11.74a96,96,0,0,1,.14,11.74q-0.15,2.87-.43,5.8l-0.57,5.8q-0.29,2.87-.5,5.73t-0.36,5.73v1.72a3.36,3.36,0,0,0,.86-0.57l0.57-.57a78.4,78.4,0,0,0,9.31-11.88,109.43,109.43,0,0,0,7.16-13.17,52.2,52.2,0,0,0,2.65-6.66,47.23,47.23,0,0,0,1.65-6.94,0.78,0.78,0,0,1,1.15-.72,2.44,2.44,0,0,1,1.58,3,52.67,52.67,0,0,1-3.44,13.53,74.58,74.58,0,0,1-6.44,12.39,97.46,97.46,0,0,1-6.51,8.8,75.33,75.33,0,0,1-7.66,7.95,16.7,16.7,0,0,0-5.87,10.31q-0.57,2.72-1.36,5.37t-1.5,5.23a9,9,0,0,1-2.43,4q-1.58,1.57-2.93,3.22L158.83,147q-1.15,1.43-2.22,2.72a22.8,22.8,0,0,1-2.36,2.43,12.93,12.93,0,0,1-11.74,3.58,8.64,8.64,0,0,1-5.3-2.94,9.46,9.46,0,0,1-2.15-5.94,14.2,14.2,0,0,1,1.43-6.44,34.26,34.26,0,0,1,12.74-14l5.58-3.44a3.4,3.4,0,0,0,1.86-2.72A12.79,12.79,0,0,0,157,118q0.07-1.07.21-2.22,0-1.86-1.72-1.29a8,8,0,0,0-1.57.72,10.28,10.28,0,0,1-1.43.72,18.2,18.2,0,0,1-2.29,1.22q-1.15.5-2.29,1.07a7.42,7.42,0,0,1-4.29.14,45,45,0,0,1-6.3-2.15q-8.16-3.72-9.31-13.17a32.76,32.76,0,0,1,.22-10.38,49.38,49.38,0,0,1,2.93-10,77.78,77.78,0,0,1,10.59-17.61q1.43-1.72,2.94-3.29a16.84,16.84,0,0,1,3.36-2.72A8.09,8.09,0,0,1,155,58q0.71,0.29,1.5.57a4.2,4.2,0,0,1,1.5,1,16.39,16.39,0,0,0,3.44,2.65A15.44,15.44,0,0,1,165,65.12Zm-25.05,81.61a6,6,0,0,0,.14,1.43,3.54,3.54,0,0,0,2.08,2.93,3.63,3.63,0,0,0,3.51-.64,7.9,7.9,0,0,0,1.5-1.29c0.43-.48.88-1,1.36-1.57q1.15-1.86,2.29-3.58a34.89,34.89,0,0,0,2.15-3.72,16.93,16.93,0,0,0,1-2.08,17.5,17.5,0,0,0,.71-2.22,36.27,36.27,0,0,0,1-6.16q0-1.58-1.43-1-2,.86-4.08,1.86a13.17,13.17,0,0,0-3.65,2.58,23.77,23.77,0,0,0-6.3,10.88A13.14,13.14,0,0,0,139.93,146.73Zm8-47.39q0.14,1.58.29,3.15t0.43,3.29a3.37,3.37,0,0,0,2.86,3.15,8.1,8.1,0,0,0,2.65.14,12.47,12.47,0,0,0,2.65-.57,2.25,2.25,0,0,0,1.29-1.72l0.29-1.72,0.29-1.72q1.29-7.16,2.51-14.17T163.84,75a8.42,8.42,0,0,0-1.43-6.3,10.24,10.24,0,0,0-4.44-4,1,1,0,0,1-.43-0.07,1,1,0,0,0-.43-0.07,1.59,1.59,0,0,0-1.57.57Q154,68,152.67,70.85a31.77,31.77,0,0,0-2,6,52.48,52.48,0,0,0-1.29,6.73Q149,87,148.66,90.47q-0.15,2.15-.36,4.29T147.95,99.34Z"/><path class="cls-1" d="M195.37,57.56q4.44-2.15,7.88-.14a24.93,24.93,0,0,1,3,1.93q1.43,1.07,2.86,2.22a9,9,0,0,1,1.72,2.29,20.62,20.62,0,0,1,2,7.44,47.16,47.16,0,0,1,.21,5.8Q213,80,212.69,82.9a24.55,24.55,0,0,0-.07,3.29,15,15,0,0,1-.21,3.29,36.22,36.22,0,0,1-.86,4.51q-0.57,2.22-1,4.51a11,11,0,0,0-.43,1.72l-0.29,1.72a5.13,5.13,0,0,1-1.72,3,12.14,12.14,0,0,0-3.44,3.87,3.59,3.59,0,0,1-.79,1.22L203,111a1.74,1.74,0,0,0-.29,2.43A2.86,2.86,0,0,0,206,115a8.12,8.12,0,0,0,6.16-3.58q1.72-2.43,3.15-4.87t2.72-4.87q3.29-6.3,6.37-12.53t6.23-12.53q1-2,1.93-3.79t2.08-3.65c0.19-.29.38-0.55,0.57-0.79a3.18,3.18,0,0,1,.72-0.64q1-.57,1.29.43a0.52,0.52,0,0,1,.07.43,1,1,0,0,0-.07.43,14,14,0,0,1-1.86,7,42.74,42.74,0,0,0-2.79,5Q231.3,83.62,230,86.2l-5.44,11.17q-2.72,5.58-5.73,11L215.41,114a16.36,16.36,0,0,1-5,4.87,8.37,8.37,0,0,1-3.94,1.5,9.47,9.47,0,0,1-4-.43A10.15,10.15,0,0,1,199,118a6.87,6.87,0,0,1-2.08-2.86,69.85,69.85,0,0,1-2.79-7.09,30.82,30.82,0,0,1-1.5-7.52,23.16,23.16,0,0,1-.14-2.58,4.51,4.51,0,0,1,.72-2.43,2.54,2.54,0,0,0,.29-1.14,4.68,4.68,0,0,1,.14-1.15,63.18,63.18,0,0,1,.86-8.52q0.71-4.22,1.57-8.52,0.71-2.86,1.22-5.87t1.22-6a5.73,5.73,0,0,0-2.58-6.44Zm5.3-12q0-1.14.07-1.93a3.51,3.51,0,0,1,.5-1.5A3.87,3.87,0,0,1,205,39.38a9,9,0,0,1,8.3,4.58q2.43,4-1.72,6.73a6,6,0,0,1-2.79,1,8.09,8.09,0,0,1-2.86-.22,10.43,10.43,0,0,1-2.51-1,4.87,4.87,0,0,1-1.72-1.5A4.41,4.41,0,0,1,200.66,45.53Z"/><path class="cls-1" d="M260.31,48.77a10.4,10.4,0,0,1-1.22,5.08,24.8,24.8,0,0,1-2.93,4.22,0.74,0.74,0,0,1-1.15.29,0.93,0.93,0,0,1-.43-1,1.26,1.26,0,0,1,.14-0.57l0.29-.57a26.65,26.65,0,0,0,1.15-3.79,7.92,7.92,0,0,0-.14-3.94,1,1,0,0,0-.07-0.43,1,1,0,0,1-.07-0.43,3.34,3.34,0,0,0-1.72-1.79,2.17,2.17,0,0,0-2.29.36A20.62,20.62,0,0,0,247,51.34a11.27,11.27,0,0,0-1.72,6.73,24.69,24.69,0,0,0,3.58,12,50,50,0,0,1,4.44,9.74,4.9,4.9,0,0,0,.71,1.43,1.94,1.94,0,0,0,3,.29q1.43-1,2.72-2.08t2.58-2.22a65.43,65.43,0,0,0,8.09-9.81,59.77,59.77,0,0,0,5.94-11.38,10.19,10.19,0,0,1,.71-1.43,1.44,1.44,0,0,1,2.29-.72q1.43,0.57.57,2.15a8.69,8.69,0,0,0-.72,1.5q-0.29.79-.57,1.5A48.33,48.33,0,0,1,271,72.75,61.56,61.56,0,0,1,259.6,83.56l-1.07.79-1.07.79a4,4,0,0,0-1.22,1.15,2.26,2.26,0,0,0,.21,1.57,21.25,21.25,0,0,1,1.29,9.45,30.59,30.59,0,0,1-.86,4q-0.57,2-1.29,3.87a27,27,0,0,1-1.65,3.72L252,112.48q-0.72,1.14-1.29,2.22t-1.29,2.22a13.26,13.26,0,0,1-2.58,3.29,7.5,7.5,0,0,1-3.72,1.72,6.32,6.32,0,0,0-2,.86,1.45,1.45,0,0,1-1.57.43q-2-.29-3.87-0.64a18.37,18.37,0,0,1-3.58-1.07,11.4,11.4,0,0,1-5.44-3.65,17.13,17.13,0,0,1-3-5.8,7.12,7.12,0,0,1,.86-6.16,29.07,29.07,0,0,1,7-8.16l1.72-1.43A13.1,13.1,0,0,1,235.11,95q3.58-2.29,2.72-6.87-0.72-3.44-1.57-6.87l-1.72-6.87a70.27,70.27,0,0,1-1.86-7.45q-0.72-3.72-1.29-7.59A22.08,22.08,0,0,1,236,42.47a5.7,5.7,0,0,1,.72-0.86,5.79,5.79,0,0,0,.71-0.86A6.59,6.59,0,0,1,240,38.53a12.76,12.76,0,0,1,3.29-.93q1.14-.14,2.36-0.22a7.84,7.84,0,0,1,2.36.22,10.86,10.86,0,0,1,4.58,1.86,5.37,5.37,0,0,1,1,.64,2.5,2.5,0,0,0,1.15.5,6.51,6.51,0,0,1,4.08,2.58,10.25,10.25,0,0,1,1.5,4.58v1Zm-22,50.11V98.45a0.8,0.8,0,0,1-.07-0.57,0.57,0.57,0,0,0-.36-0.57,0.94,0.94,0,0,0-1.15.29,9.21,9.21,0,0,0-1,.86,9.36,9.36,0,0,1-1,.86q-1.15,1-2.36,2T230,103.46a9.6,9.6,0,0,0-2.43,4.58,2.4,2.4,0,0,0,1.29,2.58,4.63,4.63,0,0,0,2.15.86,3.9,3.9,0,0,0,2.43.07,4.23,4.23,0,0,0,1.72-1.65,18.06,18.06,0,0,0,2.22-5.37A45.19,45.19,0,0,0,238.26,98.88Z"/><path class="cls-1" d="M272,85.54a60.14,60.14,0,0,1,.43-7.16q0.43-3.58,1.15-7.3l0.57-3.15,0.57-3.15a2.8,2.8,0,0,0-.21-1.86,2.85,2.85,0,0,0-1.79-.57,8.2,8.2,0,0,0-1.58-.14,7.93,7.93,0,0,1-1.57-.14,3.41,3.41,0,0,1-2-.72q-2.15-1.14.14-2.58a11.84,11.84,0,0,1,4.87-1.43H273a3.93,3.93,0,0,0,2.29-.79,3.86,3.86,0,0,0,1-2.22l0.86-6q0.86-4.58,1.72-9t2-8.88A34.24,34.24,0,0,1,282.29,26q0.86-2.15,1.86-4.3,0.57-1.43,1.14-2.79t1.15-2.65a1.29,1.29,0,0,0,.36-0.72,1.27,1.27,0,0,1,.36-0.72,1.84,1.84,0,0,1,2.15-.57,4.06,4.06,0,0,1,3.15,3q0.43,1.58.86,3.22T294,23.69a14.75,14.75,0,0,1,.14,4.58q-0.29,2.29-.43,4.58-0.43,11-.43,21.76a1.94,1.94,0,0,0,.43,1.5,4.15,4.15,0,0,0,1.57.64,13,13,0,0,1,3,.93,18.92,18.92,0,0,1,2.72,1.5,1.46,1.46,0,0,1,.79,1.36,1.83,1.83,0,0,1-1.07,1.36l-1.36.57a2.19,2.19,0,0,1-1.36.14c-0.57,0-1.14,0-1.72-.07a4.28,4.28,0,0,0-1.72.22,1.79,1.79,0,0,0-1.86,2,14.89,14.89,0,0,1-1.15,4.72,5.2,5.2,0,0,0-.36,1.36c0,0.43-.12.88-0.21,1.36q-0.29,2.58-.43,5.08a30,30,0,0,0,.14,5.08,9.2,9.2,0,0,1,.07,3q-0.21,1.43-.36,3Q290,93,289.52,97.71t-0.93,9.45a16,16,0,0,0-.21,3.36,23.25,23.25,0,0,0,.36,3.22q0.57,4,4.58,3.29a11,11,0,0,0,4.72-2.58,22.67,22.67,0,0,0,4.15-4.44q1.72-2.43,3.29-5.15a61.6,61.6,0,0,0,4.08-9.09q1.64-4.65,2.94-9.38,1.14-3.58,2-7.09t1.72-7.23a2.59,2.59,0,0,1,1.07-1.65,8.91,8.91,0,0,0,1.5-1.22,0.52,0.52,0,0,1,.71,0,1,1,0,0,1,.43.86,3.59,3.59,0,0,1,0,2q-1.15,4.15-2.08,8.16t-2.22,8q-1.58,5.3-3.58,10.45a80.28,80.28,0,0,1-4.72,10q-1.58,2.58-3.29,5a28.66,28.66,0,0,1-3.87,4.44,25.94,25.94,0,0,1-5.3,4.15,7,7,0,0,1-7.45.29,8.26,8.26,0,0,1-1.29-.65,14,14,0,0,1-1.29-.93,33.38,33.38,0,0,1-10.31-14.75,20.2,20.2,0,0,1-1-4.15Q273.26,100,273,98q-0.43-3-.72-6.09T272,85.54Z"/><path class="cls-2" d="M82.92,96.82V95.89a7,7,0,0,1,.14-1.36,79.4,79.4,0,0,1,3.51-14,36.32,36.32,0,0,1,7.37-12.31q1.86-2,3.72-3.72a27.77,27.77,0,0,1,4.15-3.15,20.17,20.17,0,0,1,15.89-2.58q4.44,1,4.73,5.87a18.92,18.92,0,0,1-1.22,6.87,28.22,28.22,0,0,1-3.22,6,30,30,0,0,1-2.51,3,32.08,32.08,0,0,1-2.94,2.72l-3.87,3.58q-1.86,1.72-3.72,3.72a7.42,7.42,0,0,1-.93.79L103,92.1a3.48,3.48,0,0,0-1.72,3,15.83,15.83,0,0,1,0,3q-0.14,1.43-.43,3a22.1,22.1,0,0,0-.21,7.3,28.39,28.39,0,0,0,1.93,7A2.9,2.9,0,0,0,105,117a14.17,14.17,0,0,0,8.16-2.29,22.92,22.92,0,0,0,4.08-3.22,42.55,42.55,0,0,0,3.37-3.79,66.88,66.88,0,0,0,5.58-8.3q2.43-4.3,4.58-8.88,4.15-8.88,7.73-18.76A3.21,3.21,0,0,1,139.55,70a4.39,4.39,0,0,1,2.08.07,1.14,1.14,0,0,1,.86,1.57q-0.86,2.29-1.65,4.58t-1.65,4.58q-2,5.44-4.44,10.74t-5.3,10.31q-2,3.44-4.22,6.59a45.94,45.94,0,0,1-5.08,6,28.83,28.83,0,0,1-5.73,4.44,18.18,18.18,0,0,1-6.59,2.29c-0.86.09-1.7,0.17-2.51,0.21s-1.65.12-2.51,0.21a5.8,5.8,0,0,1-2.22-.14q-1.07-.29-2.22-0.72a31.75,31.75,0,0,1-7.73-4.58,16.92,16.92,0,0,1-4.73-5.94,29.92,29.92,0,0,1-2.29-7.09,28,28,0,0,1-.43-2.93Q83.06,98.68,82.92,96.82Zm19.9-9.45a3.31,3.31,0,0,0,.71-0.43,49.21,49.21,0,0,0,6-5.23,30.36,30.36,0,0,0,4.73-6.37A34.5,34.5,0,0,0,117.71,65a2.94,2.94,0,0,0-.71-2.72,3.27,3.27,0,0,0-2.72-.86,7,7,0,0,0-2.72.86A13.6,13.6,0,0,0,107,66a17.78,17.78,0,0,0-2.15,3.29A8.53,8.53,0,0,0,104,73.2a3.32,3.32,0,0,1,0,1.36,9.05,9.05,0,0,1-.43,1.36,26.88,26.88,0,0,0-.79,4.37q-0.21,2.22-.5,4.37a4.39,4.39,0,0,0-.07,1.36A2.7,2.7,0,0,0,102.82,87.37Z"/><path class="cls-2" d="M306.45,96.82V95.89a7,7,0,0,1,.14-1.36,79.4,79.4,0,0,1,3.51-14,36.32,36.32,0,0,1,7.37-12.31q1.86-2,3.72-3.72a27.77,27.77,0,0,1,4.15-3.15,20.17,20.17,0,0,1,15.89-2.58q4.44,1,4.73,5.87a18.92,18.92,0,0,1-1.22,6.87,28.22,28.22,0,0,1-3.22,6,30,30,0,0,1-2.51,3,32.08,32.08,0,0,1-2.94,2.72l-3.87,3.58q-1.86,1.72-3.72,3.72a7.42,7.42,0,0,1-.93.79l-1.07.79a3.48,3.48,0,0,0-1.72,3,15.83,15.83,0,0,1,0,3q-0.14,1.43-.43,3a22.1,22.1,0,0,0-.21,7.3,28.39,28.39,0,0,0,1.93,7A2.9,2.9,0,0,0,328.5,117a14.17,14.17,0,0,0,8.16-2.29,22.92,22.92,0,0,0,4.08-3.22,42.55,42.55,0,0,0,3.37-3.79,66.88,66.88,0,0,0,5.58-8.3q2.43-4.3,4.58-8.88,4.15-8.88,7.73-18.76A3.21,3.21,0,0,1,363.07,70a4.39,4.39,0,0,1,2.08.07,1.14,1.14,0,0,1,.86,1.57q-0.86,2.29-1.65,4.58t-1.65,4.58q-2,5.44-4.44,10.74T353,101.83q-2,3.44-4.22,6.59a45.94,45.94,0,0,1-5.08,6,28.83,28.83,0,0,1-5.73,4.44,18.18,18.18,0,0,1-6.59,2.29c-0.86.09-1.7,0.17-2.51,0.21s-1.65.12-2.51,0.21a5.8,5.8,0,0,1-2.22-.14q-1.07-.29-2.22-0.72a31.75,31.75,0,0,1-7.73-4.58,16.92,16.92,0,0,1-4.73-5.94,29.92,29.92,0,0,1-2.29-7.09,28,28,0,0,1-.43-2.93Q306.59,98.68,306.45,96.82Zm19.9-9.45a3.31,3.31,0,0,0,.71-0.43,49.21,49.21,0,0,0,6-5.23,30.36,30.36,0,0,0,4.73-6.37A34.5,34.5,0,0,0,341.24,65a2.94,2.94,0,0,0-.71-2.72,3.27,3.27,0,0,0-2.72-.86,7,7,0,0,0-2.72.86A13.6,13.6,0,0,0,330.5,66a17.78,17.78,0,0,0-2.15,3.29,8.53,8.53,0,0,0-.86,3.87,3.32,3.32,0,0,1,0,1.36,9.05,9.05,0,0,1-.43,1.36,26.88,26.88,0,0,0-.79,4.37q-0.21,2.22-.5,4.37A4.39,4.39,0,0,0,325.7,86,2.7,2.7,0,0,0,326.35,87.37Z"/><path class="cls-2" d="M46.49,112.47a21,21,0,0,1,.5-4.65q0.5-2.22,1.07-4.51,1.57-6,3.08-12t3.08-12V78.68a2.06,2.06,0,0,0,.14-1.22,2.59,2.59,0,0,0-1.15-.5,4.41,4.41,0,0,0-1.29-.14A42.68,42.68,0,0,1,43.27,74a23.88,23.88,0,0,1-7.37-5.3,16.18,16.18,0,0,1-4.73-8.73,9.27,9.27,0,0,1,.93-6.44,10.86,10.86,0,0,1,4.65-4.72A7.43,7.43,0,0,1,40.48,48a19.8,19.8,0,0,1,2.29.43L45.06,49a4.5,4.5,0,0,1,3.15,3.58,9.1,9.1,0,0,1-.14,5.3A27.45,27.45,0,0,1,47,61.07c-0.43,1.05-.84,2.1-1.22,3.15a3,3,0,0,0-.29,1.65,2.82,2.82,0,0,0,1.29,1.22,5.37,5.37,0,0,0,2,.93q1,0.21,2.15.36a11.42,11.42,0,0,0,6-.72q2.29-1,2-3a2.12,2.12,0,0,1,.36-1.72q0.5-.57,1.22-1.29a2,2,0,0,1,1.29-.29,9,9,0,0,1,1.72.57,32.74,32.74,0,0,0,8.59,1.57,6.79,6.79,0,0,1,3.29.86,1.41,1.41,0,0,1,.72,2q-1.58,5-2.79,10t-2.51,10q-1.15,4-2.15,7.87T66.39,102a5.07,5.07,0,0,0-.21.93,2.26,2.26,0,0,1-.36.93,42.52,42.52,0,0,0-3,8.81q-1,4.51-2.15,9.09a15.61,15.61,0,0,0-.36,2.58,15.35,15.35,0,0,0,.07,2.58,4.71,4.71,0,0,0,.93,2.22,5.82,5.82,0,0,0,2,1.72,5.7,5.7,0,0,0,2.72.65,4.13,4.13,0,0,0,2.79-1.15,10.6,10.6,0,0,0,1.72-1.86q0.71-1,1.43-2.15a77.56,77.56,0,0,0,4.3-8.88q5.3-12,10.17-23.91t9.45-24.2a16.83,16.83,0,0,1,.93-2.08q0.5-.93,1.07-1.93a1.1,1.1,0,0,1,1.57-.86q1.57,0.72,1.29,2c-0.19.67-.36,1.31-0.5,1.93s-0.31,1.27-.5,1.93q-5.3,14.32-11,28.21T76.7,126.36a77.62,77.62,0,0,1-3.87,7,5.05,5.05,0,0,1-3.08,2.86,10.71,10.71,0,0,1-3.94.14,16,16,0,0,1-7-2.72,27.58,27.58,0,0,1-11.6-15.61,15.19,15.19,0,0,1-.57-2.79A26.3,26.3,0,0,1,46.49,112.47ZM44.2,56.21a1.73,1.73,0,0,1-.07-0.86,0.69,0.69,0,0,0-.36-0.72,1.3,1.3,0,0,0-1.43,0,1.69,1.69,0,0,0-.86,1,13.39,13.39,0,0,0-.5,1.5c-0.14.53-.31,1.07-0.5,1.65a7.64,7.64,0,0,0,.57,3.29q0.43,1.43,1.43,0a1.13,1.13,0,0,0,.21-0.29,1.13,1.13,0,0,1,.22-0.29A14.92,14.92,0,0,0,44.2,56.21Z"/><path class="cls-2" d="M368.25,112.47a21,21,0,0,1,.5-4.65q0.5-2.22,1.07-4.51,1.57-6,3.08-12t3.08-12V78.68a2.06,2.06,0,0,0,.14-1.22A2.59,2.59,0,0,0,375,77a4.41,4.41,0,0,0-1.29-.14A42.68,42.68,0,0,1,365,74a23.88,23.88,0,0,1-7.37-5.3,16.18,16.18,0,0,1-4.73-8.73,9.27,9.27,0,0,1,.93-6.44,10.86,10.86,0,0,1,4.65-4.72,7.43,7.43,0,0,1,3.72-.72,19.8,19.8,0,0,1,2.29.43L366.82,49A4.5,4.5,0,0,1,370,52.63a9.1,9.1,0,0,1-.14,5.3,27.45,27.45,0,0,1-1.07,3.15c-0.43,1.05-.84,2.1-1.22,3.15a3,3,0,0,0-.29,1.65,2.82,2.82,0,0,0,1.29,1.22,5.37,5.37,0,0,0,2,.93q1,0.21,2.15.36a11.42,11.42,0,0,0,6-.72q2.29-1,2-3a2.12,2.12,0,0,1,.36-1.72q0.5-.57,1.22-1.29a2,2,0,0,1,1.29-.29,9,9,0,0,1,1.72.57,32.74,32.74,0,0,0,8.59,1.57,6.79,6.79,0,0,1,3.29.86,1.41,1.41,0,0,1,.72,2q-1.58,5-2.79,10t-2.51,10q-1.15,4-2.15,7.87T388.15,102a5.07,5.07,0,0,0-.21.93,2.26,2.26,0,0,1-.36.93,42.52,42.52,0,0,0-3,8.81q-1,4.51-2.15,9.09a15.61,15.61,0,0,0-.36,2.58,15.35,15.35,0,0,0,.07,2.58,4.71,4.71,0,0,0,.93,2.22,5.82,5.82,0,0,0,2,1.72,5.7,5.7,0,0,0,2.72.65,4.13,4.13,0,0,0,2.79-1.15,10.6,10.6,0,0,0,1.72-1.86q0.71-1,1.43-2.15a77.56,77.56,0,0,0,4.3-8.88q5.3-12,10.17-23.91t9.45-24.2a16.83,16.83,0,0,1,.93-2.08q0.5-.93,1.07-1.93a1.1,1.1,0,0,1,1.57-.86q1.57,0.72,1.29,2c-0.19.67-.36,1.31-0.5,1.93s-0.31,1.27-.5,1.93q-5.3,14.32-11,28.21t-12.1,27.78a77.62,77.62,0,0,1-3.87,7,5.05,5.05,0,0,1-3.08,2.86,10.71,10.71,0,0,1-3.94.14,16,16,0,0,1-7-2.72A27.58,27.58,0,0,1,369,118.06a15.19,15.19,0,0,1-.57-2.79A26.3,26.3,0,0,1,368.25,112.47ZM366,56.21a1.73,1.73,0,0,1-.07-0.86,0.69,0.69,0,0,0-.36-0.72,1.3,1.3,0,0,0-1.43,0,1.69,1.69,0,0,0-.86,1,13.39,13.39,0,0,0-.5,1.5c-0.14.53-.31,1.07-0.5,1.65a7.64,7.64,0,0,0,.57,3.29q0.43,1.43,1.43,0a1.13,1.13,0,0,0,.21-0.29,1.13,1.13,0,0,1,.22-0.29A14.92,14.92,0,0,0,366,56.21Z"/></svg>