<!-- Generator: Adobe Illustrator 19.2.0, SVG Export Plug-In  -->
<svg version="1.1"
	 xmlns="http://www.w3.org/2000/svg" xmlns:xlink="http://www.w3.org/1999/xlink" xmlns:a="http://ns.adobe.com/AdobeSVGViewerExtensions/3.0/"
	 x="0px" y="0px" width="269.087px" height="89.99px" viewBox="0 0 269.087 89.99"
	 style="enable-background:new 0 0 269.087 89.99;" xml:space="preserve">
<style type="text/css">
	.st0{fill:#FFFFFF;}
	.st1{fill:none;}
</style>
<defs>
</defs>
<g>
	<path class="st0" d="M144.622,46.468c-0.118,0.704-0.132,1.423-0.044,2.156c0.088,0.734,0.308,1.482,0.66,2.244
		c0.176,0.294,0.264,0.616,0.264,0.968c0,0.646-0.015,1.291-0.044,1.936c-0.03,0.646-0.132,1.292-0.308,1.936
		c-0.411,1.408-0.69,2.816-0.836,4.224c-0.147,1.408-0.279,2.816-0.396,4.224c-0.059,0.47-0.104,0.939-0.132,1.408
		c-0.03,0.469-0.074,0.938-0.132,1.408c0,0.176-0.015,0.352-0.044,0.528c-0.03,0.176,0.014,0.322,0.132,0.44
		c0.176,0.117,0.352,0.132,0.528,0.044c0.176-0.088,0.352-0.191,0.528-0.308c0.41-0.235,0.777-0.499,1.1-0.792
		c0.322-0.294,0.629-0.616,0.924-0.968c0.88-0.997,1.701-2.141,2.464-3.432c0.821-1.349,1.584-2.728,2.288-4.136
		s1.408-2.816,2.112-4.224c0.997-2.112,2.038-4.224,3.124-6.336c1.084-2.112,2.097-4.282,3.036-6.512
		c0.117-0.352,0.249-0.704,0.396-1.056c0.146-0.352,0.308-0.704,0.484-1.056c0.117-0.352,0.396-0.585,0.836-0.704
		c0.44-0.117,0.806-0.058,1.1,0.176c0.176,0.176,0.205,0.47,0.088,0.88c-0.47,1.056-0.866,2.142-1.188,3.256
		c-0.323,1.115-0.748,2.2-1.276,3.256c-1.056,1.995-2.024,4.004-2.904,6.028s-1.79,4.063-2.728,6.116
		c-0.646,1.35-1.335,2.699-2.068,4.048c-0.734,1.35-1.57,2.611-2.508,3.784c-1.35,1.76-2.963,3.313-4.84,4.664
		c-0.528,0.41-1.13,0.645-1.804,0.704c-0.675,0.058-1.335,0-1.98-0.176c-0.646-0.176-1.232-0.455-1.76-0.836
		c-0.528-0.382-0.91-0.836-1.144-1.364c-0.294-0.704-0.587-1.423-0.88-2.156c-0.294-0.734-0.528-1.481-0.704-2.244
		c-0.059-0.176-0.103-0.337-0.132-0.484c-0.03-0.146-0.074-0.308-0.132-0.484c-0.176-0.41-0.411-0.469-0.704-0.176
		c-0.646,0.47-1.292,0.924-1.936,1.364c-0.646,0.44-1.292,0.894-1.936,1.364c-2.992,1.76-6.103,2.024-9.328,0.792
		c-2.171-0.763-3.667-2.229-4.488-4.4c-0.411-1.056-0.704-2.126-0.88-3.212c-0.176-1.085-0.323-2.185-0.44-3.3
		c-0.528-4.4-0.088-8.461,1.32-12.188c1.408-3.725,3.578-7.201,6.512-10.428c1.114-1.232,2.317-2.2,3.608-2.904
		c2.17-1.114,4.282-1.173,6.336-0.176c0.938,0.352,1.73,0.822,2.376,1.408c1.173,0.763,1.965,1.731,2.376,2.904
		c0.176,0.47,0.352,0.924,0.528,1.364c0.176,0.44,0.41,0.866,0.704,1.276c0.233,0.47,0.264,0.822,0.088,1.056
		c-0.235,0.294-0.616,0.382-1.144,0.264c-1.115-0.293-1.936-0.938-2.464-1.936c-0.235-0.293-0.455-0.601-0.66-0.924
		c-0.206-0.322-0.367-0.66-0.484-1.012c-0.235-0.469-0.572-0.836-1.012-1.1c-0.44-0.264-0.895-0.396-1.364-0.396
		c-0.47,0-0.924,0.132-1.364,0.396c-0.44,0.264-0.778,0.69-1.012,1.276c-0.059,0.176-0.207,0.5-0.44,0.968
		c-0.646,1.174-1.232,2.376-1.76,3.608s-0.88,2.523-1.056,3.872c-0.176,1.232-0.47,2.45-0.88,3.652
		c-0.411,1.203-0.822,2.391-1.232,3.564c-1.115,3.287-0.851,6.571,0.792,9.856c0.645,1.292,1.452,2.01,2.42,2.156
		c0.968,0.147,1.892-0.308,2.772-1.364c1.349-1.701,2.552-3.476,3.608-5.324c1.056-1.848,1.76-3.886,2.112-6.116
		c0.117-0.762,0.308-1.51,0.572-2.244c0.264-0.733,0.513-1.481,0.748-2.244c0.41-1.056,0.645-2.024,0.704-2.904
		c0-0.704,0.381-1.144,1.144-1.32h0.088c1.114-0.117,1.936-0.058,2.464,0.176c0.528,0.235,0.909,1.027,1.144,2.376
		c0.058,0.47,0.088,0.924,0.088,1.364S144.622,45.94,144.622,46.468z"/>
	<path class="st0" d="M227.075,7.94c0,1.174-0.074,2.318-0.221,3.432c-0.146,1.115-0.279,2.23-0.396,3.344
		c-0.117,0.998-0.219,1.966-0.307,2.904c-0.088,0.939-0.074,1.907,0.043,2.904c0.176,2.523,0.029,5.134-0.439,7.832
		c-0.295,1.526-0.527,3.051-0.703,4.576c-0.178,1.526-0.324,3.051-0.441,4.576c-0.117,1.702-0.25,3.388-0.395,5.06
		c-0.148,1.672-0.309,3.359-0.484,5.06c-0.295,2.112-0.383,4.224-0.264,6.336c0.057,0.939,0,1.863-0.178,2.772
		c-0.176,0.91-0.293,1.834-0.352,2.772c0,0.176-0.059,0.382-0.176,0.616c-0.646,1.056-0.953,2.171-0.924,3.344
		c0.029,1.174-0.016,2.347-0.133,3.52c0,0.41,0.029,0.704,0.088,0.88c0.059,0.645,0.381,0.85,0.969,0.616
		c2.346-0.88,4.4-2.2,6.16-3.96c1.408-1.408,2.609-2.933,3.607-4.576c0.998-1.642,1.877-3.373,2.641-5.192
		c0.996-2.229,1.805-4.502,2.42-6.82c0.615-2.317,1.158-4.678,1.629-7.084l0.527-2.64c0.057-0.41,0.352-0.616,0.879-0.616
		c0.705,0.118,1.145,0.308,1.32,0.572c0.176,0.264,0.205,0.748,0.088,1.452c-0.586,3.168-1.305,6.248-2.156,9.24
		c-0.85,2.992-1.979,5.926-3.387,8.8c-0.822,1.702-1.746,3.3-2.771,4.796c-1.027,1.496-2.217,2.891-3.564,4.18
		c-2.23,2.17-4.695,3.754-7.393,4.752c-2.172,0.88-4.137,0.557-5.896-0.968c-0.703-0.646-1.291-1.335-1.76-2.068
		c-0.471-0.734-0.879-1.511-1.232-2.332c-0.176-0.41-0.352-0.821-0.527-1.232c-0.176-0.41-0.352-0.85-0.527-1.32
		c-0.176-0.469-0.471-0.528-0.881-0.176c-0.117,0.118-0.191,0.206-0.219,0.264c-0.031,0.059-0.104,0.147-0.221,0.264
		c-2.699,2.874-6.102,4.165-10.209,3.872c-1.174-0.118-2.287-0.294-3.344-0.528c-1.877-0.47-3.387-1.377-4.531-2.728
		c-1.145-1.349-1.863-3.021-2.156-5.016c-0.234-1.584-0.279-3.153-0.132-4.708c0.146-1.554,0.366-3.124,0.659-4.708
		c0.293-1.701,0.674-3.402,1.145-5.104c0.469-1.701,1.086-3.344,1.848-4.928c0.41-0.821,0.85-1.613,1.32-2.376
		c0.469-0.762,0.969-1.525,1.496-2.288c1.057-1.349,2.244-2.478,3.564-3.388c1.32-0.909,2.742-1.716,4.268-2.42
		c1.818-0.938,3.607-0.968,5.367-0.088c0.471,0.118,0.852,0.176,1.145,0.176c0.645,0,1.086-0.102,1.32-0.308
		c0.234-0.205,0.41-0.63,0.527-1.276c0.586-3.52,1.262-7.025,2.025-10.516c0.762-3.49,1.523-6.996,2.287-10.516
		c0.176-0.997,0.453-1.936,0.836-2.816c0.381-0.88,0.836-1.73,1.365-2.552c0.115-0.176,0.264-0.352,0.439-0.528
		c0.176-0.176,0.322-0.352,0.439-0.528c0.469-0.528,1.086-0.674,1.848-0.44c1.057,0.528,1.936,1.188,2.641,1.98
		c0.703,0.792,1.113,1.804,1.232,3.036c0.057,0.471,0.102,0.939,0.131,1.408C227.059,7.002,227.075,7.471,227.075,7.94z
		 M202.346,61.62c0.059,0.294,0.088,0.499,0.088,0.616c0,0.118,0,0.235,0,0.352c0.176,1.174,0.82,1.79,1.936,1.848
		c0.469,0,0.924-0.058,1.365-0.176c0.439-0.117,0.865-0.352,1.275-0.704c0.82-0.821,1.541-1.657,2.156-2.508
		c0.615-0.85,1.158-1.774,1.627-2.772c0.234-0.41,0.322-0.88,0.266-1.408c-0.176-0.821-0.236-1.672-0.176-2.552
		c0.057-0.88,0.115-1.73,0.176-2.552c0.115-2.288,0.307-4.576,0.572-6.864c0.264-2.288,0.541-4.576,0.836-6.864
		c0.115-0.528,0.232-1.056,0.352-1.584c0.117-0.528,0.145-1.085,0.088-1.672c-0.059-0.645-0.412-0.968-1.057-0.968
		c-0.471,0-0.822,0.176-1.057,0.528c-0.586,0.704-1.143,1.423-1.672,2.156c-0.527,0.734-0.967,1.54-1.318,2.42
		c-0.354,0.88-0.676,1.76-0.969,2.64c-0.295,0.88-0.559,1.791-0.793,2.728c-0.586,2.054-1.086,4.136-1.496,6.248
		s-0.85,4.224-1.318,6.336c-0.176,0.822-0.34,1.643-0.484,2.464C202.596,60.154,202.464,60.916,202.346,61.62z"/>
	<path class="st0" d="M33.941,55.667c0-0.117,0-0.308,0-0.572s0.029-0.542,0.088-0.836c0.469-2.992,1.188-5.866,2.156-8.624
		c0.968-2.757,2.478-5.28,4.532-7.568c0.762-0.821,1.524-1.584,2.288-2.288c0.762-0.704,1.612-1.349,2.552-1.936
		c2.992-1.877,6.248-2.405,9.768-1.584c1.818,0.411,2.786,1.614,2.904,3.608c0,1.526-0.25,2.934-0.748,4.224
		c-0.499,1.291-1.159,2.523-1.979,3.696c-0.471,0.646-0.983,1.262-1.54,1.848c-0.559,0.587-1.159,1.144-1.805,1.672
		c-0.822,0.763-1.614,1.496-2.376,2.2c-0.763,0.704-1.526,1.467-2.288,2.288c-0.176,0.176-0.367,0.338-0.571,0.484
		c-0.207,0.147-0.427,0.308-0.66,0.484c-0.704,0.47-1.057,1.086-1.057,1.848c0.059,0.646,0.059,1.262,0,1.848
		c-0.059,0.587-0.146,1.203-0.264,1.848c-0.294,1.526-0.338,3.022-0.132,4.488c0.205,1.467,0.601,2.904,1.188,4.312
		c0.234,0.528,0.733,0.85,1.496,0.968c1.761,0.058,3.433-0.411,5.017-1.408c0.938-0.586,1.773-1.246,2.508-1.98
		c0.732-0.732,1.422-1.509,2.068-2.332c1.289-1.642,2.434-3.344,3.432-5.104c0.997-1.76,1.936-3.578,2.816-5.456
		c1.7-3.637,3.284-7.48,4.752-11.528c0.233-0.645,0.453-1.012,0.659-1.1c0.205-0.088,0.63-0.073,1.276,0.044
		c0.469,0.118,0.645,0.44,0.528,0.968c-0.353,0.939-0.69,1.878-1.013,2.816c-0.322,0.939-0.659,1.878-1.012,2.816
		c-0.822,2.23-1.731,4.431-2.728,6.6c-0.999,2.171-2.083,4.283-3.256,6.336c-0.822,1.408-1.688,2.758-2.597,4.048
		c-0.91,1.291-1.951,2.523-3.124,3.696c-1.056,1.056-2.23,1.965-3.52,2.728c-1.351,0.762-2.699,1.232-4.048,1.408
		c-0.528,0.058-1.043,0.102-1.54,0.132c-0.499,0.029-1.013,0.073-1.54,0.132c-0.471,0.058-0.924,0.029-1.364-0.088
		c-0.44-0.118-0.896-0.264-1.364-0.44c-1.702-0.704-3.286-1.643-4.752-2.816c-1.291-1.056-2.259-2.273-2.904-3.652
		c-0.646-1.377-1.114-2.83-1.407-4.356c-0.118-0.585-0.207-1.188-0.265-1.804C34.058,57.119,33.998,56.43,33.941,55.667z
		 M46.173,49.859c0.233-0.117,0.381-0.205,0.439-0.264c1.35-0.997,2.581-2.068,3.696-3.212c1.113-1.144,2.082-2.449,2.904-3.916
		c1.056-2.053,1.76-4.165,2.111-6.336c0.117-0.704-0.03-1.261-0.439-1.672c-0.411-0.41-0.968-0.586-1.672-0.528
		c-0.588,0.059-1.145,0.235-1.672,0.528c-0.999,0.47-1.937,1.232-2.816,2.288c-0.528,0.646-0.968,1.32-1.32,2.024
		c-0.352,0.704-0.527,1.496-0.527,2.376c0.058,0.294,0.058,0.572,0,0.836c-0.06,0.264-0.147,0.543-0.265,0.836
		c-0.235,0.88-0.396,1.775-0.483,2.684c-0.088,0.91-0.191,1.804-0.309,2.684c-0.059,0.294-0.074,0.572-0.044,0.836
		C45.806,49.287,45.938,49.566,46.173,49.859z"/>
	<path class="st0" d="M165.986,63.584c0-0.999,0.103-1.95,0.309-2.86c0.205-0.909,0.425-1.833,0.66-2.772
		c0.645-2.464,1.275-4.928,1.892-7.392c0.616-2.464,1.246-4.928,1.892-7.392v-0.352c0.117-0.41,0.146-0.66,0.089-0.748
		c-0.06-0.088-0.295-0.19-0.704-0.308c-0.177-0.058-0.44-0.088-0.792-0.088c-1.879-0.41-3.652-0.997-5.324-1.76
		c-1.672-0.762-3.184-1.848-4.532-3.256c-1.584-1.584-2.552-3.373-2.904-5.368c-0.294-1.349-0.103-2.668,0.572-3.96
		c0.674-1.29,1.628-2.258,2.86-2.904c0.762-0.352,1.524-0.498,2.288-0.44c0.469,0.059,0.938,0.147,1.408,0.264
		c0.469,0.119,0.938,0.235,1.407,0.352c1.057,0.352,1.701,1.086,1.937,2.2c0.293,1.115,0.264,2.2-0.088,3.256
		c-0.177,0.646-0.396,1.291-0.66,1.936c-0.264,0.646-0.515,1.291-0.748,1.936c-0.176,0.47-0.235,0.807-0.176,1.012
		c0.058,0.206,0.321,0.455,0.792,0.748c0.409,0.294,0.82,0.484,1.231,0.572c0.41,0.088,0.85,0.162,1.32,0.22
		c1.349,0.176,2.581,0.03,3.696-0.44c0.938-0.41,1.349-1.025,1.231-1.848c-0.059-0.469,0.014-0.821,0.22-1.056
		c0.205-0.234,0.454-0.498,0.748-0.792c0.117-0.117,0.381-0.176,0.792-0.176c0.47,0.118,0.821,0.235,1.057,0.352
		c1.877,0.587,3.637,0.91,5.279,0.968c0.704,0,1.378,0.176,2.024,0.528c0.528,0.294,0.674,0.704,0.44,1.232
		c-0.646,2.055-1.219,4.107-1.717,6.16c-0.499,2.054-1.012,4.107-1.54,6.16c-0.47,1.643-0.91,3.256-1.319,4.84
		c-0.411,1.584-0.88,3.168-1.408,4.752c-0.06,0.176-0.104,0.367-0.132,0.572c-0.03,0.206-0.104,0.396-0.22,0.572
		c-0.822,1.76-1.438,3.564-1.849,5.412c-0.411,1.848-0.851,3.71-1.319,5.588c-0.119,0.528-0.191,1.056-0.221,1.584
		c-0.03,0.528-0.015,1.056,0.044,1.584c0.058,0.469,0.249,0.924,0.572,1.364c0.322,0.439,0.733,0.792,1.232,1.056
		c0.497,0.265,1.056,0.396,1.672,0.396s1.188-0.235,1.716-0.704c0.41-0.353,0.762-0.734,1.056-1.145
		c0.293-0.411,0.586-0.851,0.88-1.319c0.938-1.644,1.818-3.463,2.641-5.456c2.17-4.928,4.253-9.826,6.248-14.696
		c1.993-4.869,3.93-9.826,5.808-14.872c0.176-0.469,0.366-0.894,0.572-1.276c0.205-0.381,0.425-0.777,0.66-1.188
		c0.176-0.528,0.497-0.704,0.968-0.528c0.645,0.294,0.909,0.704,0.792,1.232c-0.118,0.411-0.22,0.807-0.308,1.188
		c-0.089,0.382-0.191,0.778-0.309,1.188c-2.171,5.867-4.415,11.646-6.731,17.336c-2.318,5.691-4.797,11.381-7.437,17.072
		c-0.646,1.349-1.438,2.785-2.376,4.312c-0.528,0.997-1.159,1.584-1.892,1.76c-0.734,0.177-1.54,0.205-2.42,0.088
		c-1.468-0.176-2.904-0.733-4.312-1.672c-3.638-2.464-6.015-5.662-7.128-9.592c-0.176-0.587-0.294-1.159-0.352-1.716
		C166.015,64.741,165.986,64.17,165.986,63.584z M164.579,29c-0.06-0.176-0.074-0.352-0.044-0.528
		c0.028-0.176-0.044-0.322-0.221-0.44c-0.294-0.176-0.587-0.176-0.88,0c-0.294,0.176-0.47,0.382-0.527,0.616
		c-0.119,0.294-0.221,0.602-0.309,0.924c-0.088,0.323-0.191,0.66-0.308,1.012c-0.06,0.528,0.058,1.203,0.352,2.024
		c0.176,0.587,0.469,0.587,0.88,0c0.058-0.058,0.103-0.117,0.132-0.176c0.029-0.058,0.073-0.117,0.133-0.176
		C164.255,31.2,164.519,30.115,164.579,29z"/>
	<path class="st0" d="M9.55,67.287c0-0.999,0.103-1.95,0.309-2.86c0.205-0.909,0.425-1.833,0.66-2.772
		c0.645-2.464,1.275-4.928,1.892-7.392c0.616-2.464,1.246-4.928,1.892-7.392v-0.352c0.117-0.41,0.146-0.66,0.089-0.748
		c-0.06-0.088-0.295-0.19-0.704-0.308c-0.177-0.058-0.44-0.088-0.792-0.088c-1.879-0.41-3.652-0.997-5.324-1.76
		c-1.672-0.762-3.184-1.848-4.532-3.256c-1.584-1.584-2.552-3.373-2.904-5.368c-0.294-1.349-0.103-2.668,0.572-3.96
		c0.674-1.29,1.628-2.258,2.86-2.904c0.762-0.352,1.524-0.498,2.288-0.44c0.469,0.059,0.938,0.147,1.408,0.264
		C7.731,28.07,8.2,28.186,8.67,28.303c1.057,0.352,1.701,1.086,1.937,2.2c0.293,1.115,0.264,2.2-0.088,3.256
		c-0.177,0.646-0.396,1.291-0.66,1.936c-0.264,0.646-0.515,1.291-0.748,1.936c-0.176,0.47-0.235,0.807-0.176,1.012
		c0.058,0.206,0.321,0.455,0.792,0.748c0.409,0.294,0.82,0.484,1.231,0.572c0.41,0.088,0.85,0.162,1.32,0.22
		c1.349,0.176,2.581,0.03,3.696-0.44c0.938-0.41,1.349-1.025,1.231-1.848c-0.059-0.469,0.014-0.821,0.22-1.056
		c0.205-0.234,0.454-0.498,0.748-0.792c0.117-0.117,0.381-0.176,0.792-0.176c0.47,0.118,0.821,0.235,1.057,0.352
		c1.877,0.587,3.637,0.91,5.279,0.968c0.704,0,1.378,0.176,2.024,0.528c0.528,0.294,0.674,0.704,0.44,1.232
		c-0.646,2.055-1.219,4.107-1.717,6.16c-0.499,2.054-1.012,4.107-1.54,6.16c-0.47,1.643-0.91,3.256-1.319,4.84
		c-0.411,1.584-0.88,3.168-1.408,4.752c-0.06,0.176-0.104,0.367-0.132,0.572c-0.03,0.206-0.104,0.396-0.22,0.572
		c-0.822,1.76-1.438,3.564-1.849,5.412c-0.411,1.848-0.851,3.71-1.319,5.588c-0.119,0.528-0.191,1.056-0.221,1.584
		c-0.03,0.528-0.015,1.056,0.044,1.584c0.058,0.469,0.249,0.924,0.572,1.364c0.322,0.439,0.733,0.792,1.232,1.056
		c0.497,0.265,1.056,0.396,1.672,0.396s1.188-0.235,1.716-0.704c0.41-0.353,0.762-0.734,1.056-1.145
		c0.293-0.411,0.586-0.851,0.88-1.319c0.938-1.644,1.818-3.463,2.641-5.456c2.17-4.928,4.253-9.826,6.248-14.696
		c1.993-4.869,3.93-9.826,5.808-14.872c0.176-0.469,0.366-0.894,0.572-1.276c0.205-0.381,0.425-0.777,0.66-1.188
		c0.176-0.528,0.497-0.704,0.968-0.528c0.645,0.294,0.909,0.704,0.792,1.232c-0.118,0.411-0.22,0.807-0.308,1.188
		c-0.089,0.382-0.191,0.778-0.309,1.188c-2.171,5.867-4.415,11.646-6.731,17.336c-2.318,5.691-4.797,11.381-7.437,17.072
		c-0.646,1.349-1.438,2.785-2.376,4.312c-0.528,0.997-1.159,1.584-1.892,1.76c-0.734,0.177-1.54,0.205-2.42,0.088
		c-1.468-0.176-2.904-0.733-4.312-1.672c-3.638-2.464-6.015-5.662-7.128-9.592c-0.176-0.587-0.294-1.159-0.352-1.716
		C9.579,68.445,9.55,67.873,9.55,67.287z M8.142,32.703c-0.06-0.176-0.074-0.352-0.044-0.528c0.028-0.176-0.044-0.322-0.221-0.44
		c-0.294-0.176-0.587-0.176-0.88,0c-0.294,0.176-0.47,0.382-0.527,0.616c-0.119,0.294-0.221,0.602-0.309,0.924
		c-0.088,0.323-0.191,0.66-0.308,1.012c-0.06,0.528,0.058,1.203,0.352,2.024c0.176,0.587,0.469,0.587,0.88,0
		c0.058-0.058,0.103-0.117,0.132-0.176c0.029-0.058,0.073-0.117,0.133-0.176C7.819,34.903,8.083,33.818,8.142,32.703z"/>
	<path class="st0" d="M256.833,30.592c0,1.174-0.25,2.215-0.748,3.124c-0.499,0.91-1.1,1.775-1.804,2.596
		c-0.176,0.294-0.411,0.352-0.704,0.176c-0.176-0.058-0.264-0.264-0.264-0.616c0-0.117,0.028-0.233,0.088-0.352
		c0.058-0.117,0.117-0.234,0.176-0.352c0.293-0.762,0.528-1.54,0.704-2.332s0.146-1.598-0.088-2.42c0-0.117-0.015-0.205-0.044-0.264
		c-0.03-0.058-0.044-0.146-0.044-0.264c-0.235-0.528-0.587-0.894-1.056-1.1c-0.471-0.205-0.939-0.132-1.408,0.22
		c-1.232,0.939-2.23,1.995-2.992,3.168c-0.763,1.174-1.115,2.552-1.056,4.136c0.058,2.523,0.792,4.987,2.199,7.392
		c1.114,1.878,2.024,3.872,2.729,5.984c0.058,0.235,0.205,0.528,0.439,0.88c0.528,0.646,1.145,0.704,1.849,0.176
		c0.586-0.41,1.144-0.836,1.672-1.276s1.056-0.894,1.584-1.364c1.877-1.877,3.533-3.886,4.972-6.028
		c1.438-2.141,2.654-4.473,3.652-6.996c0.117-0.292,0.264-0.585,0.439-0.88c0.293-0.645,0.762-0.792,1.408-0.44
		c0.586,0.235,0.704,0.675,0.353,1.32c-0.177,0.294-0.323,0.603-0.44,0.924c-0.118,0.323-0.235,0.631-0.352,0.924
		c-1.175,3.168-2.743,5.97-4.708,8.404c-1.967,2.435-4.299,4.65-6.996,6.644c-0.235,0.176-0.455,0.338-0.66,0.484
		c-0.206,0.147-0.427,0.308-0.66,0.484c-0.411,0.294-0.66,0.528-0.748,0.704c-0.088,0.176-0.044,0.499,0.132,0.968
		c0.704,1.878,0.969,3.814,0.792,5.808c-0.118,0.822-0.294,1.642-0.527,2.464c-0.235,0.821-0.499,1.613-0.792,2.376
		c-0.295,0.821-0.632,1.584-1.013,2.288c-0.382,0.704-0.778,1.437-1.188,2.2c-0.294,0.469-0.559,0.924-0.792,1.364
		c-0.235,0.439-0.499,0.894-0.792,1.363c-0.471,0.821-0.998,1.496-1.584,2.024c-0.587,0.528-1.351,0.88-2.288,1.056
		c-0.471,0.117-0.88,0.293-1.232,0.528c-0.294,0.293-0.615,0.381-0.968,0.264c-0.822-0.118-1.614-0.25-2.376-0.396
		c-0.763-0.147-1.496-0.367-2.2-0.66c-1.407-0.471-2.522-1.219-3.344-2.244c-0.822-1.027-1.438-2.215-1.848-3.563
		c-0.411-1.292-0.235-2.553,0.527-3.784c1.173-1.996,2.61-3.667,4.312-5.016c0.352-0.293,0.704-0.586,1.056-0.88
		c0.353-0.292,0.733-0.557,1.145-0.792c1.466-0.938,2.023-2.346,1.672-4.224c-0.295-1.408-0.616-2.816-0.968-4.224
		c-0.353-1.408-0.704-2.816-1.057-4.224c-0.47-1.525-0.851-3.05-1.144-4.576c-0.295-1.524-0.559-3.08-0.792-4.664
		c-0.471-3.93,0.469-7.392,2.815-10.384c0.117-0.176,0.265-0.352,0.44-0.528c0.176-0.176,0.321-0.352,0.439-0.528
		c0.47-0.645,0.997-1.1,1.584-1.364c0.586-0.264,1.262-0.454,2.024-0.572c0.469-0.058,0.953-0.102,1.452-0.132
		c0.498-0.029,0.981,0.015,1.452,0.132c1.056,0.176,1.993,0.558,2.815,1.144c0.234,0.119,0.44,0.25,0.616,0.396
		c0.176,0.147,0.41,0.25,0.704,0.308c1.173,0.294,2.009,0.822,2.508,1.584c0.498,0.763,0.806,1.703,0.924,2.816V30.592z
		 M243.281,61.392v-0.264c-0.059-0.117-0.074-0.234-0.044-0.352c0.029-0.117-0.044-0.234-0.22-0.352
		c-0.235-0.117-0.471-0.058-0.704,0.176c-0.235,0.176-0.44,0.352-0.616,0.528c-0.176,0.176-0.382,0.352-0.616,0.528
		c-0.47,0.41-0.954,0.821-1.452,1.232c-0.499,0.41-0.982,0.85-1.451,1.32c-0.704,0.704-1.203,1.642-1.496,2.815
		c-0.06,0.762,0.205,1.29,0.792,1.584c0.409,0.293,0.85,0.47,1.319,0.528c0.646,0.176,1.145,0.189,1.496,0.044
		c0.353-0.147,0.704-0.483,1.057-1.012c0.645-1.057,1.1-2.156,1.363-3.3C242.974,63.724,243.163,62.565,243.281,61.392z"/>
	<path class="st0" d="M99.244,69.951c0.352-0.353,0.586-0.88,0.704-1.584l1.32-8.977c0.117-1.173,0.234-2.316,0.352-3.432
		c0.117-1.114,0.234-2.258,0.352-3.432c0.117-0.997-0.147-1.761-0.792-2.288c-0.411-0.47-0.734-0.938-0.968-1.408
		c-0.235-0.469-0.44-0.997-0.616-1.584c-0.763-2.698-1.262-5.309-1.496-7.832c-0.235-2.405,0.352-4.693,1.76-6.864
		c0.117-0.233,0.264-0.439,0.44-0.616c1.408-1.993,3.168-2.316,5.28-0.968c0.528,0.353,0.968,0.778,1.32,1.276
		c0.352,0.499,0.673,1.012,0.968,1.54c0.469,0.938,0.836,1.892,1.1,2.859c0.264,0.969,0.484,1.951,0.66,2.948
		c0.292,1.702,0.498,3.418,0.616,5.148c0.117,1.73,0.205,3.446,0.264,5.147c0,0.471,0.058,0.748,0.176,0.836
		c0.117,0.088,0.41,0.074,0.88-0.044c2.17-0.586,4.048-1.496,5.632-2.728c0.645-0.528,1.158-1.114,1.54-1.761
		c0.381-0.645,0.718-1.319,1.012-2.023c0.293-0.586,0.528-1.158,0.704-1.716c0.176-0.558,0.352-1.129,0.528-1.716
		c0.176-0.704,0.616-0.997,1.32-0.881c0.704,0.118,1.026,0.528,0.968,1.232c-0.176,0.88-0.396,1.731-0.66,2.552
		c-0.264,0.822-0.66,1.614-1.188,2.376c-2.112,2.699-4.723,4.636-7.832,5.809c-0.176,0.059-0.352,0.118-0.528,0.176
		c-0.176,0.059-0.323,0.118-0.44,0.176c-0.528,0.176-0.954,0.323-1.276,0.44c-0.323,0.118-0.558,0.278-0.704,0.483
		c-0.147,0.206-0.22,0.471-0.22,0.792c0,0.323,0,0.778,0,1.364c0,1.174,0,2.303,0,3.388c0,1.087-0.03,2.216-0.088,3.389
		c-0.118,0.938-0.25,1.862-0.396,2.771c-0.147,0.91-0.455,1.775-0.924,2.596c-0.235,0.411-0.44,0.837-0.616,1.276
		c-0.176,0.44-0.382,0.894-0.616,1.364c-0.822,1.584-1.995,2.785-3.52,3.607c-1.526,0.821-3.139,1.085-4.84,0.792
		c-1.995-0.294-3.287-1.379-3.872-3.256c-0.999-3.168-1.643-6.481-1.936-9.943c-0.059-0.821-0.163-1.643-0.308-2.465
		c-0.147-0.82-0.279-1.642-0.396-2.464c-0.176,0.06-0.308,0.132-0.396,0.221c-0.088,0.088-0.191,0.19-0.308,0.308
		c-0.822,0.822-1.584,1.672-2.288,2.552c-0.704,0.88-1.408,1.76-2.112,2.641c-1.174,1.584-2.494,3.007-3.96,4.268
		c-1.467,1.263-3.051,2.39-4.752,3.388c-0.646,0.41-1.306,0.718-1.98,0.925c-0.675,0.204-1.423,0.22-2.244,0.044
		c-0.998-0.235-1.936-0.792-2.816-1.673c-1.35-1.349-2.464-2.815-3.344-4.399c-0.88-1.584-1.584-3.285-2.112-5.104
		c-0.822-2.58-1.232-5.147-1.232-7.699c0-2.553,0.264-5.148,0.792-7.788c0.469-2.053,1.026-4.033,1.672-5.94
		c0.645-1.905,1.29-3.828,1.936-5.764c0.234-0.646,0.454-1.276,0.66-1.893c0.205-0.615,0.366-1.245,0.484-1.892
		c0.117-0.528,0.293-1.012,0.528-1.452c0.234-0.439,0.498-0.894,0.792-1.364c0.469-0.704,0.924-1.377,1.364-2.023
		c0.44-0.646,0.836-1.349,1.188-2.112c0.293-0.586,0.821-0.762,1.584-0.528c2.229,0.999,3.608,2.583,4.136,4.752
		c0.528,2.759,0.586,5.368,0.176,7.832c-0.294,1.468-0.66,2.904-1.1,4.312s-0.895,2.787-1.364,4.136
		c-0.528,1.408-1.027,2.803-1.496,4.181c-0.47,1.379-0.822,2.831-1.056,4.355c-0.059,0.471-0.103,0.968-0.132,1.496
		c-0.03,0.528-0.044,1.027-0.044,1.496c0.117,1.878,0.249,3.727,0.396,5.544c0.146,1.819,0.337,3.638,0.572,5.456
		c0.058,0.235,0.102,0.455,0.132,0.66c0.029,0.206,0.102,0.396,0.22,0.571c0.293,0.588,0.704,0.704,1.232,0.353
		c0.176-0.117,0.381-0.293,0.616-0.528c0.762-0.82,1.51-1.656,2.244-2.508c0.733-0.85,1.452-1.686,2.156-2.508
		c0.528-0.586,1.026-1.202,1.496-1.849c0.469-0.645,0.85-1.319,1.144-2.023c0.292-0.586,0.629-1.145,1.012-1.672
		c0.381-0.528,0.777-1.026,1.188-1.496c0.469-0.528,0.953-1.07,1.452-1.628c0.498-0.557,0.982-1.129,1.452-1.716
		c0.645-0.762,1.188-1.584,1.628-2.465c0.44-0.88,0.718-1.817,0.836-2.815c0-0.117,0.014-0.189,0.044-0.22
		c0.029-0.029,0.044-0.103,0.044-0.221c0.176-0.527,0.498-0.792,0.968-0.792c0.292,0,0.469,0.074,0.528,0.221
		c0.058,0.146,0.146,0.308,0.264,0.483c0.117,0.411,0.176,0.822,0.176,1.232c0,0.411,0.029,0.822,0.088,1.231
		c0.117,1.175,0.161,2.348,0.132,3.521c-0.03,1.174,0.014,2.347,0.132,3.52c0.176,2.348,0.484,4.664,0.924,6.952
		s0.982,4.576,1.628,6.864c0.117,0.352,0.249,0.718,0.396,1.1C98.73,69.231,98.95,69.598,99.244,69.951z M102.412,48.039
		c0.176-0.176,0.322-0.498,0.44-0.968c0.117-1.584,0.205-3.197,0.264-4.841c0.058-1.642,0.029-3.284-0.088-4.928
		c0-0.762-0.088-1.496-0.264-2.2c-0.235-0.82-0.646-0.938-1.232-0.352c-0.294,0.294-0.528,0.675-0.704,1.144
		c-0.411,0.999-0.616,1.995-0.616,2.992c0,0.998,0.088,1.995,0.264,2.992c0.117,0.939,0.337,1.834,0.66,2.684
		c0.322,0.852,0.572,1.717,0.748,2.597C102.001,47.628,102.177,47.921,102.412,48.039z"/>
	<g>
		<rect x="31.176" y="77.881" class="st1" width="76.241" height="11.503"/>
		<path class="st0" d="M37.881,80.972c0,0.884-0.276,1.56-0.828,2.027c-0.553,0.468-1.338,0.702-2.356,0.702H33.95v2.92h-1.741
			v-8.21h2.622c0.996,0,1.753,0.215,2.271,0.643C37.621,79.483,37.881,80.122,37.881,80.972z M33.95,82.275h0.572
			c0.535,0,0.937-0.105,1.202-0.317c0.266-0.211,0.398-0.52,0.398-0.924c0-0.407-0.111-0.709-0.334-0.903
			c-0.223-0.195-0.572-0.292-1.048-0.292H33.95V82.275z"/>
		<path class="st0" d="M40.896,83.471v3.15h-1.741v-8.21h2.393c1.115,0,1.94,0.203,2.477,0.609c0.535,0.406,0.803,1.022,0.803,1.851
			c0,0.482-0.133,0.912-0.398,1.288c-0.267,0.377-0.643,0.672-1.129,0.885c1.235,1.846,2.04,3.038,2.414,3.577h-1.932l-1.96-3.15
			H40.896z M40.896,82.056h0.562c0.55,0,0.956-0.092,1.219-0.275c0.262-0.184,0.393-0.472,0.393-0.864
			c0-0.39-0.134-0.667-0.401-0.831c-0.268-0.165-0.683-0.247-1.244-0.247h-0.527V82.056z"/>
		<path class="st0" d="M53.923,82.505c0,1.359-0.337,2.403-1.011,3.134c-0.674,0.729-1.64,1.095-2.897,1.095
			c-1.259,0-2.225-0.365-2.898-1.095c-0.674-0.73-1.011-1.778-1.011-3.145c0-1.367,0.338-2.41,1.014-3.131s1.645-1.081,2.906-1.081
			s2.227,0.363,2.895,1.089C53.589,80.098,53.923,81.143,53.923,82.505z M47.931,82.505c0,0.917,0.174,1.608,0.522,2.072
			c0.348,0.464,0.868,0.696,1.562,0.696c1.389,0,2.083-0.923,2.083-2.769c0-1.85-0.69-2.774-2.072-2.774
			c-0.692,0-1.215,0.233-1.566,0.699C48.107,80.897,47.931,81.588,47.931,82.505z"/>
		<path class="st0" d="M58.464,82.011h3.258v4.257c-0.528,0.172-1.025,0.293-1.491,0.362s-0.942,0.104-1.429,0.104
			c-1.239,0-2.186-0.364-2.839-1.092c-0.653-0.729-0.98-1.774-0.98-3.137c0-1.325,0.379-2.358,1.138-3.1
			c0.758-0.741,1.809-1.112,3.153-1.112c0.842,0,1.654,0.169,2.437,0.506l-0.578,1.393c-0.599-0.3-1.223-0.449-1.87-0.449
			c-0.752,0-1.355,0.253-1.809,0.758c-0.452,0.506-0.679,1.185-0.679,2.039c0,0.891,0.183,1.571,0.547,2.041
			c0.365,0.47,0.896,0.704,1.593,0.704c0.362,0,0.731-0.037,1.105-0.112V83.46h-1.556V82.011z"/>
		<path class="st0" d="M65.141,83.471v3.15H63.4v-8.21h2.393c1.115,0,1.94,0.203,2.477,0.609c0.535,0.406,0.803,1.022,0.803,1.851
			c0,0.482-0.133,0.912-0.398,1.288c-0.267,0.377-0.643,0.672-1.129,0.885c1.235,1.846,2.04,3.038,2.414,3.577h-1.932l-1.96-3.15
			H65.141z M65.141,82.056h0.562c0.55,0,0.956-0.092,1.219-0.275c0.262-0.184,0.393-0.472,0.393-0.864
			c0-0.39-0.134-0.667-0.401-0.831c-0.268-0.165-0.683-0.247-1.244-0.247h-0.527V82.056z"/>
		<path class="st0" d="M75.742,86.621l-0.596-1.954h-2.993l-0.595,1.954h-1.876l2.897-8.243h2.129l2.908,8.243H75.742z
			 M74.732,83.207c-0.551-1.771-0.86-2.772-0.93-3.005c-0.069-0.231-0.119-0.415-0.149-0.55c-0.123,0.479-0.477,1.664-1.061,3.555
			H74.732z"/>
		<path class="st0" d="M81.851,86.621l-1.978-6.441h-0.05c0.07,1.311,0.106,2.185,0.106,2.623v3.818h-1.556v-8.21h2.37l1.942,6.278
			h0.034l2.061-6.278h2.37v8.21h-1.623v-3.886c0-0.184,0.003-0.396,0.009-0.635c0.005-0.239,0.03-0.876,0.075-1.909h-0.051
			l-2.116,6.43H81.851z"/>
		<path class="st0" d="M92.419,86.621l-1.978-6.441h-0.05c0.07,1.311,0.106,2.185,0.106,2.623v3.818h-1.556v-8.21h2.37l1.942,6.278
			h0.034l2.061-6.278h2.37v8.21h-1.623v-3.886c0-0.184,0.003-0.396,0.009-0.635c0.005-0.239,0.03-0.876,0.075-1.909H96.13
			l-2.116,6.43H92.419z"/>
		<path class="st0" d="M104.238,86.621H99.51v-8.21h4.729v1.427h-2.987v1.802h2.779v1.427h-2.779v2.117h2.987V86.621z"/>
	</g>
</g>
</svg>