<svg id="Layer_1" data-name="Layer 1" xmlns="http://www.w3.org/2000/svg" viewBox="0 0 442 129.6"><defs><style>.cls-1,.cls-2{fill:#fff;}.cls-1{stroke:#fff;stroke-miterlimit:10;stroke-width:1.27px;}</style></defs><title>scan</title><path class="cls-1" d="M240.78,68.87a14.77,14.77,0,0,1-4.47-.67,0.48,0.48,0,0,1-.22-0.06,0.79,0.79,0,0,0-.33-0.06q-1.23-.44-1.23,1t0.22,2.68a16.41,16.41,0,0,1,0,2.68,25.87,25.87,0,0,1-.45,5A10.79,10.79,0,0,1,232,84.63a21,21,0,0,1-1.45,1.73A23.09,23.09,0,0,1,228.83,88a1.37,1.37,0,0,1-.62.5,4.5,4.5,0,0,0-.73.39l-4.19,1.34q-2.07.67-4.19,1.23a9.84,9.84,0,0,1-6.37-.34,21.64,21.64,0,0,1-12.85-10.84,11.59,11.59,0,0,1-1.45-5.81,40.12,40.12,0,0,1,1.9-12.85q0.22-.56.5-1.17a11.47,11.47,0,0,1,.61-1.17q1.45-2.23,3-4.36a31.46,31.46,0,0,1,3.41-4q1.56-1.56,3.13-3.19a19.62,19.62,0,0,1,3.46-2.85,3.54,3.54,0,0,1,2-.89,18.14,18.14,0,0,1,3.19.06,13.63,13.63,0,0,1,3.07.73q1,0.56,1.9,1.12a7.62,7.62,0,0,1,1.68,1.45,6,6,0,0,1,1.57,4.25,0.59,0.59,0,0,1-.67.67A2.65,2.65,0,0,1,225,50.77a9.26,9.26,0,0,0-.78-1.34,1.8,1.8,0,0,0-2.79-.56,2.8,2.8,0,0,0-1.34,1.45q-0.45,1-1,2l-1.06,2.12-0.45,1.34q-0.23.67-.45,1.56a6.41,6.41,0,0,1-.67,1.79,9.2,9.2,0,0,0-1.34,2.63q-0.45,1.4-.78,3A18.93,18.93,0,0,1,213,69a11.75,11.75,0,0,0-.89,2,7.05,7.05,0,0,0-.34,2.24q-0.11,1.12-.22,2.18a20.7,20.7,0,0,0-.11,2.18,11.5,11.5,0,0,0,.39,3q0.39,1.45,1,3a2.51,2.51,0,0,0,2.12,1.57,5.09,5.09,0,0,0,3.91-1,26.53,26.53,0,0,0,5.48-5.53,17.66,17.66,0,0,0,3-7.21,20.21,20.21,0,0,1,.78-2.91,2,2,0,0,0,0-1.34,2,2,0,0,0-1.12-.78,2.63,2.63,0,0,0-.73-0.34,2.5,2.5,0,0,1-.73-0.33,4.35,4.35,0,0,1-2.63-3.13,7.08,7.08,0,0,1,.28-3.46,4.86,4.86,0,0,1,.84-1.34c0.34-.37.69-0.74,1.06-1.12a1.81,1.81,0,0,1,1.12-.33q0.89-.11,1.73-0.17a5.61,5.61,0,0,1,1.73.17,3.94,3.94,0,0,1,3.46,3.13q0.22,0.9.39,1.9t0.39,1.9a2.11,2.11,0,0,0,1.56,1.79,18,18,0,0,0,8.38.45,15.13,15.13,0,0,0,7.38-4,22.9,22.9,0,0,0,2.29-2.68,32.09,32.09,0,0,0,2-3,5,5,0,0,1,.78-1.23,1.18,1.18,0,0,1,1.12-.56,1.33,1.33,0,0,1,.89.89,2.06,2.06,0,0,1,.17,1,4.19,4.19,0,0,1-.28,1,25,25,0,0,1-5.31,7.21,18.05,18.05,0,0,1-7.88,4.19q-0.9.23-2.46,0.45A9.23,9.23,0,0,1,240.78,68.87ZM226.25,61a6,6,0,0,0,.22,1.34,1.72,1.72,0,0,0,1.68,1.34,1.06,1.06,0,0,0,.89-0.45,4,4,0,0,0,.17-2.4A2.74,2.74,0,0,0,228,59a0.78,0.78,0,0,0-1.23.11A2.88,2.88,0,0,0,226.25,61Z"/><path class="cls-1" d="M77.56,64.52a9.35,9.35,0,0,0,.78,5.59,2.35,2.35,0,0,1,.34,1.23q0,1.23-.06,2.46a11.33,11.33,0,0,1-.39,2.46,30.2,30.2,0,0,0-1.06,5.36q-0.28,2.68-.5,5.36-0.11.9-.17,1.79t-0.17,1.79a4.14,4.14,0,0,1-.06.67,0.6,0.6,0,0,0,.17.56,0.63,0.63,0,0,0,.67.06,6.53,6.53,0,0,0,.67-0.39,8,8,0,0,0,1.4-1,12.74,12.74,0,0,0,1.17-1.23,28.39,28.39,0,0,0,3.13-4.36q1.56-2.57,2.91-5.25l2.68-5.36q1.9-4,4-8t3.86-8.27q0.22-.67.5-1.34T98,55.25a1.4,1.4,0,0,1,1.06-.89,1.51,1.51,0,0,1,1.4.22,1.1,1.1,0,0,1,.11,1.12,32,32,0,0,0-1.51,4.14A24.42,24.42,0,0,1,97.45,64q-2,3.8-3.69,7.66T90.3,79.39Q89.07,82,87.67,84.53a32.67,32.67,0,0,1-3.19,4.81,29.11,29.11,0,0,1-6.15,5.92,4.27,4.27,0,0,1-2.29.89,7.16,7.16,0,0,1-2.51-.22,6.88,6.88,0,0,1-2.24-1.06,4.28,4.28,0,0,1-1.45-1.73q-0.56-1.34-1.12-2.74a19.25,19.25,0,0,1-.89-2.85,4.91,4.91,0,0,1-.17-0.61,5.6,5.6,0,0,0-.17-0.61q-0.33-.78-0.89-0.22-1.23.9-2.46,1.73t-2.46,1.73a13.08,13.08,0,0,1-11.85,1A9,9,0,0,1,44.14,85,20.09,20.09,0,0,1,43,80.9q-0.33-2.07-.56-4.19a32.31,32.31,0,0,1,1.68-15.48A41.41,41.41,0,0,1,52.41,48,17.5,17.5,0,0,1,57,44.29a8.57,8.57,0,0,1,8-.22,9.31,9.31,0,0,1,3,1.79,7.21,7.21,0,0,1,3,3.69q0.34,0.9.67,1.73a7.63,7.63,0,0,0,.89,1.62,1.28,1.28,0,0,1,.11,1.34,1.34,1.34,0,0,1-1.45.34,4.75,4.75,0,0,1-3.13-2.46,13,13,0,0,1-.84-1.17,5.71,5.71,0,0,1-.61-1.29A3.31,3.31,0,0,0,62,48.26a3.18,3.18,0,0,0-1.28,1.62,12,12,0,0,1-.56,1.23q-1.23,2.24-2.24,4.58a18.52,18.52,0,0,0-1.34,4.92,25.53,25.53,0,0,1-1.12,4.64q-0.78,2.29-1.56,4.53a15.7,15.7,0,0,0,1,12.52Q56.1,84.75,57.94,85t3.52-1.73A53.84,53.84,0,0,0,66,76.54a22.61,22.61,0,0,0,2.68-7.77,15.24,15.24,0,0,1,.73-2.85q0.5-1.4,1-2.85a12.65,12.65,0,0,0,.89-3.69,1.62,1.62,0,0,1,1.45-1.68h0.11a6.51,6.51,0,0,1,3.13.22q1,0.45,1.45,3a14.12,14.12,0,0,1,.11,1.73v1.84Z"/><path class="cls-1" d="M373.22,64.52a9.35,9.35,0,0,0,.78,5.59,2.35,2.35,0,0,1,.34,1.23q0,1.23-.06,2.46a11.33,11.33,0,0,1-.39,2.46,30.2,30.2,0,0,0-1.06,5.36q-0.28,2.68-.5,5.36-0.11.9-.17,1.79T372,90.56a4.14,4.14,0,0,1-.06.67,0.6,0.6,0,0,0,.17.56,0.63,0.63,0,0,0,.67.06,6.53,6.53,0,0,0,.67-0.39,8,8,0,0,0,1.4-1A12.74,12.74,0,0,0,376,89.22a28.39,28.39,0,0,0,3.13-4.36q1.56-2.57,2.91-5.25l2.68-5.36q1.9-4,4-8t3.86-8.27q0.22-.67.5-1.34t0.61-1.34a1.4,1.4,0,0,1,1.06-.89,1.51,1.51,0,0,1,1.4.22,1.1,1.1,0,0,1,.11,1.12,32,32,0,0,0-1.51,4.14A24.42,24.42,0,0,1,393.11,64q-2,3.8-3.69,7.66T386,79.39q-1.23,2.57-2.63,5.14a32.67,32.67,0,0,1-3.19,4.81A29.11,29.11,0,0,1,374,95.26a4.27,4.27,0,0,1-2.29.89,7.16,7.16,0,0,1-2.51-.22A6.88,6.88,0,0,1,367,94.87a4.28,4.28,0,0,1-1.45-1.73q-0.56-1.34-1.12-2.74a19.25,19.25,0,0,1-.89-2.85,4.91,4.91,0,0,1-.17-0.61,5.6,5.6,0,0,0-.17-0.61q-0.33-.78-0.89-0.22-1.23.9-2.46,1.73t-2.46,1.73a13.08,13.08,0,0,1-11.85,1A9,9,0,0,1,339.8,85a20.09,20.09,0,0,1-1.12-4.08q-0.33-2.07-.56-4.19a32.31,32.31,0,0,1,1.68-15.48A41.41,41.41,0,0,1,348.07,48a17.5,17.5,0,0,1,4.58-3.69,8.57,8.57,0,0,1,8-.22,9.31,9.31,0,0,1,3,1.79,7.21,7.21,0,0,1,3,3.69q0.34,0.9.67,1.73a7.63,7.63,0,0,0,.89,1.62,1.28,1.28,0,0,1,.11,1.34,1.34,1.34,0,0,1-1.45.34,4.75,4.75,0,0,1-3.13-2.46,13,13,0,0,1-.84-1.17,5.71,5.71,0,0,1-.61-1.29,3.31,3.31,0,0,0-4.75-1.4,3.18,3.18,0,0,0-1.28,1.62,12,12,0,0,1-.56,1.23q-1.23,2.24-2.24,4.58a18.52,18.52,0,0,0-1.34,4.92,25.53,25.53,0,0,1-1.12,4.64q-0.78,2.29-1.56,4.53a15.7,15.7,0,0,0,1,12.52q1.23,2.46,3.07,2.74t3.52-1.73a53.84,53.84,0,0,0,4.58-6.76,22.61,22.61,0,0,0,2.68-7.77,15.24,15.24,0,0,1,.73-2.85q0.5-1.4,1-2.85a12.65,12.65,0,0,0,.89-3.69,1.62,1.62,0,0,1,1.45-1.68h0.11a6.51,6.51,0,0,1,3.13.22q1,0.45,1.45,3a14.12,14.12,0,0,1,.11,1.73v1.84Z"/><path class="cls-1" d="M84.24,116.4q0.11-3.24.45-6.54t0.78-6.65Q86,99,86.59,94.66T87.49,86q0.33-4.13.73-8.16t1.06-8q0.22-1.23.5-2.35t0.5-2.35q0.67-3.69,1-7.38,0.22-3.24.5-6.54t0.61-6.54V43.31A4.23,4.23,0,0,0,92.18,42q-0.33-1.45,1.23-1.45A6.35,6.35,0,0,1,98.55,43a15.52,15.52,0,0,1,3.13,7.15q0.34,1.57.56,3t0.56,3c0,0.3.07,0.45,0.22,0.45s0.26,0,.56-0.34q0.67-1.12,1.4-2.12t1.4-2.12a6.3,6.3,0,0,1,1-1.34l1.12-1.12q4.13-4,9.39-1.23a13,13,0,0,1,4.75,4.41,10.54,10.54,0,0,1,1.4,6.31l-0.22,3.74q-0.11,1.84-.34,3.74a3.32,3.32,0,0,0,.39,2.57,3.18,3.18,0,0,0,2.51.56,7,7,0,0,0,1.84-.45,7.68,7.68,0,0,0,1.62-.89,12.44,12.44,0,0,0,2-1.68q0.84-.89,1.73-1.9a35,35,0,0,0,2.63-3.69q1.17-1.9,2.4-3.8A4,4,0,0,1,141.91,55a0.77,0.77,0,0,1,.89.11c0.15,0.15.17,0.28,0.06,0.39a1.48,1.48,0,0,0-.28.39q-1.34,2.79-2.91,5.36a55.15,55.15,0,0,1-3.46,5,20.2,20.2,0,0,1-1.9,2.07,22.59,22.59,0,0,1-2.24,1.84,13.26,13.26,0,0,1-4.36,2.18,8.5,8.5,0,0,1-4.81-.17,1.67,1.67,0,0,0-1.23,0,1.92,1.92,0,0,0-.56,1.12,8.33,8.33,0,0,1-1.23,3,4.2,4.2,0,0,0-.61,1.4c-0.11.48-.24,0.95-0.39,1.4a16.89,16.89,0,0,1-2.46,5.59q-0.67.9-1.34,1.68a13.9,13.9,0,0,0-1.23,1.68,6.81,6.81,0,0,1-2.79,2.12l-1.4.67-1.4.67a3.59,3.59,0,0,1-3.69-.22q-1.12-.56-2.24-1.23t-2.12-1.34a1.21,1.21,0,0,0-1-.45,1.69,1.69,0,0,0-.62.89v0.22a37.37,37.37,0,0,1-1.73,5.09,27.9,27.9,0,0,0-1.62,5.2q-0.56,2.68-1.17,5.31T93,110.26q-0.23,1-.45,2.07t-0.45,2.07a6.19,6.19,0,0,1-.73,1.84,4.19,4.19,0,0,1-1.4,1.4,2.7,2.7,0,0,0-.84.73q-0.28.39-.61,1a11.36,11.36,0,0,1-.56,1.17,10.65,10.65,0,0,0-.56,1.17,1.65,1.65,0,0,1-1.56.78,1,1,0,0,1-.73-0.39c-0.11-.19-0.24-0.43-0.39-0.73a11.26,11.26,0,0,1-.39-2.46Q84.24,117.63,84.24,116.4ZM100.67,84A4.29,4.29,0,0,0,102,87.12a3.06,3.06,0,0,0,2.12,1.17,2.9,2.9,0,0,0,1.9-1.51,16,16,0,0,0,2-3.3q0.78-1.73,1.45-3.63,0.78-2.23,1.34-4.47t1.23-4.47a1.75,1.75,0,0,0-.78-2.35l-1-.67A12.91,12.91,0,0,1,107.6,65a8.06,8.06,0,0,1-1.34-3.86,0.89,0.89,0,0,1-.11-0.39,0.92,0.92,0,0,0-.11-0.39c0-.22-0.08-0.34-0.22-0.34s-0.3,0-.45.34a18.79,18.79,0,0,0-2,3.58,7.54,7.54,0,0,0-.39,4,0.64,0.64,0,0,1,.06.45,1.79,1.79,0,0,0-.06.45,34.52,34.52,0,0,1-.61,6.54q-0.62,3.19-1.29,6.43a6.67,6.67,0,0,0-.33,1.06A4.85,4.85,0,0,0,100.67,84ZM115.2,55.27a8.19,8.19,0,0,0-.06-1q-0.06-.44-0.17-1-0.45-1.68-2-.78a11.1,11.1,0,0,0-1.12,1A10.85,10.85,0,0,0,109.17,59a8.64,8.64,0,0,0,.34,4.14,4.73,4.73,0,0,0,2.68,2.68,0.81,0.81,0,0,0,1.23-.56,9.55,9.55,0,0,0,.34-1.28,9.09,9.09,0,0,1,.33-1.29q0.34-1.9.62-3.69T115.2,55.27Z"/><path class="cls-1" d="M15.88,64.69a47,47,0,0,1,.33-5.59q0.34-2.79.89-5.7l0.45-2.46L18,48.49A2.18,2.18,0,0,0,17.83,47a2.23,2.23,0,0,0-1.4-.45,6.4,6.4,0,0,0-1.23-.11A6.19,6.19,0,0,1,14,46.36a2.66,2.66,0,0,1-1.56-.56q-1.68-.89.11-2a9.24,9.24,0,0,1,3.8-1.12h0.34a3.07,3.07,0,0,0,1.79-.61,3,3,0,0,0,.78-1.73l0.67-4.69q0.67-3.58,1.34-7t1.57-6.93a26.73,26.73,0,0,1,1.12-3.46q0.67-1.68,1.45-3.35,0.44-1.12.89-2.18t0.89-2.07A1,1,0,0,0,27.45,10a1,1,0,0,1,.28-0.56A1.44,1.44,0,0,1,29.4,9a3.17,3.17,0,0,1,2.46,2.35q0.33,1.23.67,2.51t0.56,2.51A11.51,11.51,0,0,1,33.2,20q-0.23,1.79-.33,3.58-0.33,8.61-.33,17a1.52,1.52,0,0,0,.33,1.17,3.24,3.24,0,0,0,1.23.5,10.17,10.17,0,0,1,2.35.73,14.77,14.77,0,0,1,2.12,1.17,1.14,1.14,0,0,1,.61,1.06,1.43,1.43,0,0,1-.84,1.06l-1.06.45a1.71,1.71,0,0,1-1.06.11c-0.45,0-.89,0-1.34-0.06a3.34,3.34,0,0,0-1.34.17,1.4,1.4,0,0,0-1.45,1.56,11.62,11.62,0,0,1-.89,3.69,4.06,4.06,0,0,0-.28,1.06c0,0.34-.09.69-0.17,1.06q-0.23,2-.33,4a23.42,23.42,0,0,0,.11,4,7.18,7.18,0,0,1,.06,2.35q-0.17,1.12-.28,2.35-0.33,3.58-.73,7.26t-0.73,7.38a12.46,12.46,0,0,0-.17,2.63A18.15,18.15,0,0,0,29,86.71q0.45,3.13,3.58,2.57a8.6,8.6,0,0,0,3.69-2,17.7,17.7,0,0,0,3.24-3.46q1.34-1.9,2.57-4a48.09,48.09,0,0,0,3.19-7.1q1.28-3.63,2.29-7.32,0.89-2.79,1.56-5.53t1.34-5.64a2,2,0,0,1,.84-1.28,7,7,0,0,0,1.17-1A0.4,0.4,0,0,1,53,52a0.76,0.76,0,0,1,.34.67,2.81,2.81,0,0,1,0,1.56q-0.9,3.24-1.62,6.37T50,66.82Q48.74,71,47.17,75a62.67,62.67,0,0,1-3.69,7.82q-1.23,2-2.57,3.91a22.37,22.37,0,0,1-3,3.46,20.25,20.25,0,0,1-4.14,3.24,5.44,5.44,0,0,1-5.81.22,6.45,6.45,0,0,1-1-.5,11,11,0,0,1-1-.73,26.06,26.06,0,0,1-8-11.51,15.77,15.77,0,0,1-.78-3.24q-0.23-1.68-.45-3.24-0.33-2.35-.56-4.75T15.88,64.69Z"/><path class="cls-1" d="M172.35,64.69a47,47,0,0,1,.33-5.59q0.34-2.79.89-5.7L174,50.95l0.45-2.46A2.18,2.18,0,0,0,174.3,47a2.23,2.23,0,0,0-1.4-.45,6.4,6.4,0,0,0-1.23-.11,6.19,6.19,0,0,1-1.23-.11,2.66,2.66,0,0,1-1.56-.56q-1.68-.89.11-2a9.24,9.24,0,0,1,3.8-1.12h0.34a3.07,3.07,0,0,0,1.79-.61,3,3,0,0,0,.78-1.73l0.67-4.69q0.67-3.58,1.34-7t1.57-6.93a26.73,26.73,0,0,1,1.12-3.46q0.67-1.68,1.45-3.35,0.44-1.12.89-2.18t0.89-2.07a1,1,0,0,0,.28-0.56,1,1,0,0,1,.28-0.56A1.44,1.44,0,0,1,185.87,9a3.17,3.17,0,0,1,2.46,2.35q0.33,1.23.67,2.51t0.56,2.51a11.51,11.51,0,0,1,.11,3.58q-0.23,1.79-.33,3.58-0.33,8.61-.33,17a1.52,1.52,0,0,0,.33,1.17,3.24,3.24,0,0,0,1.23.5,10.17,10.17,0,0,1,2.35.73A14.77,14.77,0,0,1,195,44.13a1.14,1.14,0,0,1,.61,1.06,1.43,1.43,0,0,1-.84,1.06l-1.06.45a1.71,1.71,0,0,1-1.06.11c-0.45,0-.89,0-1.34-0.06a3.34,3.34,0,0,0-1.34.17,1.4,1.4,0,0,0-1.45,1.56,11.62,11.62,0,0,1-.89,3.69,4.06,4.06,0,0,0-.28,1.06c0,0.34-.09.69-0.17,1.06q-0.23,2-.33,4a23.42,23.42,0,0,0,.11,4,7.18,7.18,0,0,1,.06,2.35q-0.17,1.12-.28,2.35-0.33,3.58-.73,7.26t-0.73,7.38a12.46,12.46,0,0,0-.17,2.63,18.15,18.15,0,0,0,.28,2.51q0.45,3.13,3.58,2.57a8.6,8.6,0,0,0,3.69-2,17.7,17.7,0,0,0,3.24-3.46q1.34-1.9,2.57-4a48.09,48.09,0,0,0,3.19-7.1Q203,69.05,204,65.36q0.89-2.79,1.56-5.53t1.34-5.64a2,2,0,0,1,.84-1.28,7,7,0,0,0,1.17-1,0.4,0.4,0,0,1,.56,0,0.76,0.76,0,0,1,.34.67,2.81,2.81,0,0,1,0,1.56q-0.9,3.24-1.62,6.37t-1.73,6.26Q205.2,71,203.64,75A62.67,62.67,0,0,1,200,82.8q-1.23,2-2.57,3.91a22.37,22.37,0,0,1-3,3.46,20.25,20.25,0,0,1-4.14,3.24,5.44,5.44,0,0,1-5.81.22,6.45,6.45,0,0,1-1-.5,11,11,0,0,1-1-.73,26.06,26.06,0,0,1-8-11.51,15.77,15.77,0,0,1-.78-3.24q-0.23-1.68-.45-3.24-0.33-2.35-.56-4.75T172.35,64.69Z"/><path class="cls-2" d="M319.87,92.8a11.43,11.43,0,0,1-10.62-6,23,23,0,0,1-2-4.75,26.4,26.4,0,0,1-1-5.09,24.74,24.74,0,0,1,.22-7.43,50.16,50.16,0,0,1,1.9-7.21,51.94,51.94,0,0,1,4.25-9.05,20,20,0,0,1,3.46-4.53,30.67,30.67,0,0,1,4.36-3.52,5.08,5.08,0,0,1,2.51-.84,11.33,11.33,0,0,1,2.51.17,23.81,23.81,0,0,1,3.24,1.12,14.06,14.06,0,0,1,3,1.79,7.53,7.53,0,0,1,2.79,4.25,4.41,4.41,0,0,1,.17.73,1.59,1.59,0,0,1-.06.73,1.16,1.16,0,0,1-1,.89,0.85,0.85,0,0,1-1-.67q-0.23-.67-0.5-1.28a12.21,12.21,0,0,0-.61-1.17,4.83,4.83,0,0,0-2.12-1.56,1.22,1.22,0,0,0-1.79.67,0.63,0.63,0,0,0-.22.33q-1.57,3.58-2.91,7.27a44,44,0,0,0-2,7.6,28.81,28.81,0,0,0-.67,6.26,10,10,0,0,1-1.68,6,20.79,20.79,0,0,0-2,4,42,42,0,0,0-1.34,4.19,2.62,2.62,0,0,0-.11,2.24,3.44,3.44,0,0,0,1.9,1.12,12.77,12.77,0,0,0,10.17-.89,37.79,37.79,0,0,0,18.78-21,61.15,61.15,0,0,0,2.79-10.28,3.49,3.49,0,0,1,.22-1,0.94,0.94,0,0,1,.78-0.56,2.22,2.22,0,0,1,1.73.84,2,2,0,0,1,.5,1.84q-0.45,1.9-1,3.8t-1.17,3.8a58,58,0,0,1-4.36,9.5,37.78,37.78,0,0,1-6.48,8.27A34.86,34.86,0,0,1,324,92.36a18.72,18.72,0,0,1-2.07.33A20,20,0,0,1,319.87,92.8Z"/><path class="cls-2" d="M399.88,58.06a1.69,1.69,0,0,0,.89-0.78,13.35,13.35,0,0,1,4.69-4.75,22.28,22.28,0,0,1,6.15-2.4,15.18,15.18,0,0,1,1.79-.34,7.31,7.31,0,0,1,1.79,0,4.25,4.25,0,0,1,2.57,1.68,14,14,0,0,1,.95,2.12,15.67,15.67,0,0,1,.62,2.35,9.26,9.26,0,0,1,.22,2,18.22,18.22,0,0,0,.11,2c0,0.6,0,1.17.06,1.73a9.74,9.74,0,0,0,.28,1.73,3.93,3.93,0,0,1-.11,1.57q-0.9,4.47-1.68,8.94T416.31,83q-0.23.9-.5,1.84t-0.62,1.84a16.93,16.93,0,0,0-.67,2.29q-0.23,1.06-.45,2.29a4,4,0,0,0,.45,2.68q1,1.79,2.57.45a4,4,0,0,0,1.12-1.12,24.9,24.9,0,0,0,3.35-5.36q2.79-6.37,5.42-12.74t5.2-12.85c0.15-.37.3-0.76,0.45-1.17s0.3-.84.45-1.29a0.32,0.32,0,0,0,.11-0.22,0.87,0.87,0,0,1,.11-0.34,0.52,0.52,0,0,1,.56-0.34,0.7,0.7,0,0,1,.56.56,0.46,0.46,0,0,1,.11.33q0,1.12-.06,2.24a9.44,9.44,0,0,1-.39,2.24q-1.34,3.58-2.79,7.15l-2.91,7.15Q427,81.86,425.69,85T423,91.47q-0.56,1.23-1.17,2.35a16,16,0,0,1-1.51,2.24q-3.69,5-8.61,1.12a11,11,0,0,1-3.13-3.91,21.26,21.26,0,0,1-1.73-5.2,24.32,24.32,0,0,1-.39-5.53,33.1,33.1,0,0,1,.78-7.21q0.78-3.52,1.9-7.1,0.78-2.91,1.62-5.81t1.4-5.81c0.07-.3.15-0.58,0.22-0.84a1.15,1.15,0,0,0-.11-0.84c-0.22-.67-0.6-0.89-1.12-0.67a9.86,9.86,0,0,0-2.52,1,6,6,0,0,0-2,1.79q-2.12,3.35-4.08,6.71a67.08,67.08,0,0,0-3.52,6.93,41.84,41.84,0,0,0-1.73,4.53A28.31,28.31,0,0,0,396.3,80a15.16,15.16,0,0,0,0,3.69A16.79,16.79,0,0,1,394.73,93a4,4,0,0,1-3,2.24,3.62,3.62,0,0,1-2.68-.56L387.92,94l-1.12-.67a3.14,3.14,0,0,1-1.56-1.79,9.18,9.18,0,0,1-.45-4.36,4.67,4.67,0,0,1,.06-0.78,4.22,4.22,0,0,0,.06-0.67,50,50,0,0,1,.28-9.78A74.9,74.9,0,0,1,387,66.55q1-4.47,2-8.89t1.9-8.89l0.22-1.12a6.2,6.2,0,0,1,.33-1.12,2.5,2.5,0,0,1,1.12-1.34,4.76,4.76,0,0,1,2.79-.78,1.55,1.55,0,0,1,1.45.78,8.28,8.28,0,0,1,.78,1.17c0.22,0.41.48,0.84,0.78,1.29a8.17,8.17,0,0,1,.78,3.69V53.7c0,0.45,0,.89.06,1.34a5.68,5.68,0,0,0,.28,1.34,1.42,1.42,0,0,1,.17.84A1.39,1.39,0,0,0,399.88,58.06Z"/><path class="cls-2" d="M305.48,49.92a8.12,8.12,0,0,1-1,4,19.36,19.36,0,0,1-2.29,3.3,0.58,0.58,0,0,1-.89.22,0.72,0.72,0,0,1-.33-0.78,1,1,0,0,1,.11-0.45l0.22-.45a20.8,20.8,0,0,0,.89-3,6.18,6.18,0,0,0-.11-3.07,0.78,0.78,0,0,0-.06-0.34A0.75,0.75,0,0,1,302,49a2.61,2.61,0,0,0-1.34-1.4,1.69,1.69,0,0,0-1.79.28,16.1,16.1,0,0,0-3.8,4,8.8,8.8,0,0,0-1.34,5.25,19.27,19.27,0,0,0,2.79,9.39,39.06,39.06,0,0,1,3.47,7.6,3.82,3.82,0,0,0,.56,1.12,1.51,1.51,0,0,0,2.35.22q1.12-.78,2.12-1.62t2-1.73a51.07,51.07,0,0,0,6.31-7.66A46.66,46.66,0,0,0,318,55.62a8,8,0,0,1,.56-1.12,1.12,1.12,0,0,1,1.79-.56q1.12,0.45.45,1.68a6.79,6.79,0,0,0-.56,1.17q-0.23.62-.45,1.17a37.72,37.72,0,0,1-6,10.67,48.06,48.06,0,0,1-8.89,8.44l-0.84.62-0.84.61a3.16,3.16,0,0,0-1,.89,1.77,1.77,0,0,0,.17,1.23,16.59,16.59,0,0,1,1,7.38,23.88,23.88,0,0,1-.67,3.13q-0.45,1.56-1,3a21.05,21.05,0,0,1-1.29,2.91L299,99.66q-0.56.89-1,1.73t-1,1.73a10.35,10.35,0,0,1-2,2.57,5.85,5.85,0,0,1-2.91,1.34,4.94,4.94,0,0,0-1.57.67,1.13,1.13,0,0,1-1.23.33q-1.57-.23-3-0.5a14.34,14.34,0,0,1-2.79-.84,8.9,8.9,0,0,1-4.25-2.85,13.37,13.37,0,0,1-2.35-4.53,5.55,5.55,0,0,1,.67-4.81A22.7,22.7,0,0,1,283,88.14L284.35,87a10.23,10.23,0,0,1,1.45-1,4.77,4.77,0,0,0,2.12-5.36q-0.56-2.68-1.23-5.36l-1.34-5.36a54.85,54.85,0,0,1-1.45-5.81q-0.56-2.9-1-5.92A17.23,17.23,0,0,1,286.48,45a4.45,4.45,0,0,1,.56-0.67,4.52,4.52,0,0,0,.56-0.67,5.14,5.14,0,0,1,2-1.73,10,10,0,0,1,2.57-.73q0.89-.11,1.84-0.17a6.12,6.12,0,0,1,1.84.17,8.47,8.47,0,0,1,3.58,1.45,4.19,4.19,0,0,1,.78.5,2,2,0,0,0,.89.39,5.08,5.08,0,0,1,3.19,2,8,8,0,0,1,1.17,3.58v0.78ZM288.26,89V88.7a0.62,0.62,0,0,1-.06-0.45,0.45,0.45,0,0,0-.28-0.45A0.73,0.73,0,0,0,287,88a7.19,7.19,0,0,0-.78.67,7.31,7.31,0,0,1-.78.67q-0.89.78-1.84,1.56t-1.84,1.68a7.49,7.49,0,0,0-1.9,3.58,1.87,1.87,0,0,0,1,2,3.62,3.62,0,0,0,1.68.67,3,3,0,0,0,1.9.06,3.3,3.3,0,0,0,1.34-1.28,14.1,14.1,0,0,0,1.73-4.19A35.27,35.27,0,0,0,288.26,89Z"/></svg>