<svg id="Layer_1" data-name="Layer 1" xmlns="http://www.w3.org/2000/svg" viewBox="0 0 712.36 274.51"><defs><style>.cls-1,.cls-2{fill:#fff;}.cls-2{stroke:#fff;stroke-miterlimit:10;stroke-width:2.67px;}</style></defs><title>WELCOME</title><path class="cls-1" d="M31.47,263.81H25.92V242.24H18.81v-4.62H38.58v4.62H31.47v21.56Z"/><path class="cls-1" d="M64.07,263.81H58.53V252.5H48.16v11.3H42.61V237.62h5.55v10.26H58.53V237.62h5.53v26.18Z"/><path class="cls-1" d="M70.68,263.81V237.62h5.55v26.18H70.68Z"/><path class="cls-1" d="M98.28,256.53a6.77,6.77,0,0,1-2.55,5.59,11.09,11.09,0,0,1-7.1,2,16.68,16.68,0,0,1-7.41-1.58v-5.16a30.53,30.53,0,0,0,4.49,1.67,13.28,13.28,0,0,0,3.36.48,4.77,4.77,0,0,0,2.8-.7,2.39,2.39,0,0,0,1-2.08,2.3,2.3,0,0,0-.43-1.37,4.84,4.84,0,0,0-1.26-1.16,32.62,32.62,0,0,0-3.39-1.77,16.11,16.11,0,0,1-3.6-2.17,8.13,8.13,0,0,1-1.92-2.42,6.9,6.9,0,0,1-.72-3.22,6.77,6.77,0,0,1,2.36-5.46,9.79,9.79,0,0,1,6.51-2,15.38,15.38,0,0,1,3.9.48,26.77,26.77,0,0,1,3.88,1.36l-1.79,4.32a26.31,26.31,0,0,0-3.47-1.2,11.17,11.17,0,0,0-2.7-.34,3.57,3.57,0,0,0-2.42.73,2.42,2.42,0,0,0-.84,1.92,2.37,2.37,0,0,0,.34,1.28,3.73,3.73,0,0,0,1.08,1.06,33.19,33.19,0,0,0,3.52,1.84,14,14,0,0,1,5,3.52A6.87,6.87,0,0,1,98.28,256.53Z"/><path class="cls-1" d="M128,256.53a6.77,6.77,0,0,1-2.55,5.59,11.09,11.09,0,0,1-7.1,2,16.68,16.68,0,0,1-7.41-1.58v-5.16a30.53,30.53,0,0,0,4.49,1.67,13.28,13.28,0,0,0,3.36.48,4.77,4.77,0,0,0,2.8-.7,2.39,2.39,0,0,0,1-2.08,2.3,2.3,0,0,0-.43-1.37,4.84,4.84,0,0,0-1.26-1.16,32.62,32.62,0,0,0-3.39-1.77,16.11,16.11,0,0,1-3.6-2.17,8.13,8.13,0,0,1-1.92-2.42,6.9,6.9,0,0,1-.72-3.22,6.77,6.77,0,0,1,2.36-5.46,9.79,9.79,0,0,1,6.51-2,15.38,15.38,0,0,1,3.9.48,26.77,26.77,0,0,1,3.88,1.36l-1.79,4.32a26.31,26.31,0,0,0-3.47-1.2,11.17,11.17,0,0,0-2.7-.34,3.57,3.57,0,0,0-2.42.73,2.42,2.42,0,0,0-.84,1.92,2.37,2.37,0,0,0,.34,1.28,3.73,3.73,0,0,0,1.08,1.06,33.19,33.19,0,0,0,3.52,1.84,14,14,0,0,1,5,3.52A6.87,6.87,0,0,1,128,256.53Z"/><path class="cls-1" d="M132.75,263.81V237.62h5.55v26.18h-5.55Z"/><path class="cls-1" d="M155,263.81h-5.55V242.24h-7.11v-4.62h19.77v4.62H155v21.56Z"/><path class="cls-1" d="M181.22,263.81H166.14V237.62h15.08v4.55h-9.53v5.75h8.87v4.55h-8.87v6.75h9.53v4.58Z"/><path class="cls-1" d="M196.21,263.81V237.62h5.55v26.18h-5.55Z"/><path class="cls-1" d="M223.81,256.53a6.77,6.77,0,0,1-2.55,5.59,11.09,11.09,0,0,1-7.1,2,16.68,16.68,0,0,1-7.41-1.58v-5.16a30.53,30.53,0,0,0,4.49,1.67,13.28,13.28,0,0,0,3.36.48,4.77,4.77,0,0,0,2.8-.7,2.39,2.39,0,0,0,1-2.08,2.3,2.3,0,0,0-.43-1.37,4.84,4.84,0,0,0-1.26-1.16,32.62,32.62,0,0,0-3.39-1.77,16.11,16.11,0,0,1-3.6-2.17,8.13,8.13,0,0,1-1.92-2.42,6.9,6.9,0,0,1-.72-3.22,6.77,6.77,0,0,1,2.36-5.46,9.79,9.79,0,0,1,6.51-2,15.38,15.38,0,0,1,3.9.48,26.77,26.77,0,0,1,3.88,1.36l-1.79,4.32a26.31,26.31,0,0,0-3.47-1.2,11.17,11.17,0,0,0-2.7-.34,3.57,3.57,0,0,0-2.42.73,2.42,2.42,0,0,0-.84,1.92,2.37,2.37,0,0,0,.34,1.28,3.73,3.73,0,0,0,1.08,1.06,33.19,33.19,0,0,0,3.52,1.84,14,14,0,0,1,5,3.52A6.87,6.87,0,0,1,223.81,256.53Z"/><path class="cls-1" d="M238.08,237.62h8.15q5.57,0,8.09,1.58a5.52,5.52,0,0,1,2.52,5,6.35,6.35,0,0,1-1.1,3.85,4.4,4.4,0,0,1-2.93,1.81v0.18a5.77,5.77,0,0,1,3.59,2.08,6.76,6.76,0,0,1,1.1,4,6.67,6.67,0,0,1-2.59,5.59,11.19,11.19,0,0,1-7,2h-9.8V237.62ZM243.63,248h3.22a5.89,5.89,0,0,0,3.27-.7,2.61,2.61,0,0,0,1-2.31,2.31,2.31,0,0,0-1.1-2.16,7.08,7.08,0,0,0-3.48-.65h-2.92V248Zm0,4.41v6.82h3.62a5.37,5.37,0,0,0,3.39-.88,3.24,3.24,0,0,0,1.09-2.69q0-3.26-4.66-3.26h-3.44Z"/><path class="cls-1" d="M277.81,263.81H262.73V237.62h15.08v4.55h-9.53v5.75h8.87v4.55h-8.87v6.75h9.53v4.58Z"/><path class="cls-1" d="M298.73,256.53a6.77,6.77,0,0,1-2.55,5.59,11.09,11.09,0,0,1-7.1,2,16.68,16.68,0,0,1-7.41-1.58v-5.16a30.53,30.53,0,0,0,4.49,1.67,13.28,13.28,0,0,0,3.36.48,4.77,4.77,0,0,0,2.8-.7,2.39,2.39,0,0,0,1-2.08,2.3,2.3,0,0,0-.43-1.37,4.84,4.84,0,0,0-1.26-1.16,32.62,32.62,0,0,0-3.39-1.77,16.11,16.11,0,0,1-3.6-2.17,8.13,8.13,0,0,1-1.92-2.42,6.9,6.9,0,0,1-.72-3.22,6.77,6.77,0,0,1,2.36-5.46,9.79,9.79,0,0,1,6.51-2,15.38,15.38,0,0,1,3.9.48,26.77,26.77,0,0,1,3.88,1.36l-1.79,4.32a26.31,26.31,0,0,0-3.47-1.2,11.17,11.17,0,0,0-2.7-.34,3.57,3.57,0,0,0-2.42.73,2.42,2.42,0,0,0-.84,1.92,2.37,2.37,0,0,0,.34,1.28,3.73,3.73,0,0,0,1.08,1.06,33.19,33.19,0,0,0,3.52,1.84,14,14,0,0,1,5,3.52A6.87,6.87,0,0,1,298.73,256.53Z"/><path class="cls-1" d="M313.57,263.81H308V242.24h-7.11v-4.62h19.77v4.62h-7.11v21.56Z"/><path class="cls-1" d="M349.18,237.62h5.61l-8.9,26.18h-6.05l-8.88-26.18h5.61l4.93,15.58q0.41,1.38.85,3.21t0.55,2.55a45.9,45.9,0,0,1,1.34-5.77Z"/><path class="cls-1" d="M358.08,263.81V237.62h5.55v26.18h-5.55Z"/><path class="cls-1" d="M385.3,263.81H370.22V237.62H385.3v4.55h-9.53v5.75h8.87v4.55h-8.87v6.75h9.53v4.58Z"/><path class="cls-1" d="M416.27,263.81h-6.32l-3.55-13.75q-0.2-.73-0.67-3t-0.55-3.09q-0.11,1-.54,3.11T404,250.09l-3.53,13.72h-6.3l-6.68-26.18h5.46l3.35,14.29q0.88,4,1.27,6.86,0.11-1,.49-3.16t0.73-3.32l3.81-14.67h5.25l3.81,14.67q0.25,1,.63,3t0.57,3.47q0.18-1.4.57-3.48t0.72-3.38l3.33-14.29h5.46Z"/><path class="cls-1" d="M441.31,263.81H426.23V237.62h15.08v4.55h-9.53v5.75h8.87v4.55h-8.87v6.75h9.53v4.58Z"/><path class="cls-1" d="M468.5,250.46q0,6.47-3.68,9.9t-10.63,3.44h-7.41V237.62H455q6.41,0,10,3.38T468.5,250.46Zm-5.77.14q0-8.44-7.45-8.44h-3v17h2.38Q462.73,259.22,462.73,250.61Z"/><path class="cls-1" d="M507.22,250.68q0,6.5-3.22,10t-9.24,3.49q-6,0-9.24-3.49t-3.22-10q0-6.54,3.23-10t9.27-3.45q6,0,9.23,3.47T507.22,250.68Zm-19.11,0q0,4.39,1.67,6.61a5.83,5.83,0,0,0,5,2.22q6.64,0,6.64-8.83t-6.61-8.85a5.87,5.87,0,0,0-5,2.23Q488.11,246.29,488.11,250.68Z"/><path class="cls-1" d="M535.87,263.81h-7.06L517.43,244h-0.16q0.34,5.25.34,7.49v12.32h-5V237.62h7L531,257.23h0.13q-0.27-5.1-.27-7.22V237.62h5v26.18Z"/><path class="cls-1" d="M563.08,263.81l-6.3-20.54h-0.16q0.34,6.27.34,8.36v12.18h-5V237.62h7.56l6.2,20h0.11l6.57-20H580v26.18h-5.18V251.41q0-.88,0-2t0.24-6.09h-0.16l-6.75,20.51h-5.09Z"/><path class="cls-1" d="M610.34,250.68q0,6.5-3.22,10t-9.24,3.49q-6,0-9.24-3.49t-3.22-10q0-6.54,3.23-10t9.27-3.45q6,0,9.23,3.47T610.34,250.68Zm-19.11,0q0,4.39,1.67,6.61a5.83,5.83,0,0,0,5,2.22q6.64,0,6.64-8.83t-6.61-8.85a5.87,5.87,0,0,0-5,2.23Q591.23,246.29,591.23,250.68Z"/><path class="cls-1" d="M615.77,237.62h8.15q5.57,0,8.09,1.58a5.52,5.52,0,0,1,2.52,5,6.35,6.35,0,0,1-1.1,3.85,4.4,4.4,0,0,1-2.93,1.81v0.18a5.77,5.77,0,0,1,3.59,2.08,6.76,6.76,0,0,1,1.1,4,6.67,6.67,0,0,1-2.59,5.59,11.19,11.19,0,0,1-7,2h-9.8V237.62ZM621.32,248h3.22a5.89,5.89,0,0,0,3.27-.7,2.61,2.61,0,0,0,1-2.31,2.31,2.31,0,0,0-1.1-2.16,7.08,7.08,0,0,0-3.48-.65h-2.92V248Zm0,4.41v6.82h3.62a5.37,5.37,0,0,0,3.38-.88,3.24,3.24,0,0,0,1.09-2.69q0-3.26-4.66-3.26h-3.44Z"/><path class="cls-1" d="M640.41,263.81V237.62H646v26.18h-5.55Z"/><path class="cls-1" d="M652.56,263.81V237.62h5.55v21.6h10.62v4.58H652.56Z"/><path class="cls-1" d="M688.36,263.81H673.28V237.62h15.08v4.55h-9.53v5.75h8.87v4.55h-8.87v6.75h9.53v4.58Z"/><path class="cls-2" d="M314.61,201.7q-15,0-22.29-12.67a48.36,48.36,0,0,1-4.11-10,55.43,55.43,0,0,1-2-10.68,52,52,0,0,1,.47-15.6,105.32,105.32,0,0,1,4-15.14,109,109,0,0,1,8.92-19,41.93,41.93,0,0,1,7.27-9.5,64.4,64.4,0,0,1,9.15-7.39,10.66,10.66,0,0,1,5.28-1.76,23.8,23.8,0,0,1,5.28.35,50,50,0,0,1,6.81,2.35,29.51,29.51,0,0,1,6.34,3.75,15.81,15.81,0,0,1,5.87,8.92,9.27,9.27,0,0,1,.35,1.53,3.34,3.34,0,0,1-.12,1.52,2.43,2.43,0,0,1-2.11,1.88q-1.88,0-2.11-1.41-0.47-1.41-1.06-2.7a25.63,25.63,0,0,0-1.29-2.46,10.14,10.14,0,0,0-4.46-3.28q-2.35-1.17-3.75,1.41a1.32,1.32,0,0,0-.47.7q-3.29,7.51-6.1,15.25a92.3,92.3,0,0,0-4.22,16,60.48,60.48,0,0,0-1.41,13.14,21.06,21.06,0,0,1-3.52,12.67,43.65,43.65,0,0,0-4.22,8.33,88.22,88.22,0,0,0-2.82,8.8q-1.18,3.29-.23,4.69t4,2.35a26.81,26.81,0,0,0,21.35-1.88q27.92-14.08,39.42-44.11a128.38,128.38,0,0,0,5.87-21.59,7.34,7.34,0,0,1,.47-2.11,2,2,0,0,1,1.64-1.17,4.67,4.67,0,0,1,3.64,1.76,4.25,4.25,0,0,1,1.06,3.87q-0.94,4-2,8t-2.46,8a121.82,121.82,0,0,1-9.15,19.95,79.31,79.31,0,0,1-13.61,17.36,73.18,73.18,0,0,1-35,19,39.3,39.3,0,0,1-4.34.7A41.91,41.91,0,0,1,314.61,201.7Z"/><path class="cls-2" d="M150.54,158.48V157a11.41,11.41,0,0,1,.23-2.23,130.12,130.12,0,0,1,5.75-23,59.52,59.52,0,0,1,12.09-20.18q3-3.28,6.1-6.1a45.5,45.5,0,0,1,6.8-5.16,33,33,0,0,1,26-4.22q7.27,1.64,7.74,9.62a31,31,0,0,1-2,11.26A46.25,46.25,0,0,1,208,126.8a49.14,49.14,0,0,1-4.11,4.93,52.58,52.58,0,0,1-4.81,4.46l-6.34,5.87q-3.05,2.82-6.1,6.1a12.16,12.16,0,0,1-1.52,1.29q-0.83.59-1.76,1.29a5.7,5.7,0,0,0-2.82,4.93,26,26,0,0,1,0,4.93q-0.23,2.35-.7,4.93a36.23,36.23,0,0,0-.35,12,46.53,46.53,0,0,0,3.17,11.5q0.94,2.11,4,2.58a23.23,23.23,0,0,0,13.38-3.75,37.56,37.56,0,0,0,6.69-5.28,69.74,69.74,0,0,0,5.52-6.22,109.6,109.6,0,0,0,9.15-13.61q4-7,7.51-14.55,6.8-14.55,12.67-30.74,0.93-2.58,1.76-2.93a7.2,7.2,0,0,1,3.4.12q1.87,0.47,1.41,2.58-1.41,3.76-2.7,7.51t-2.7,7.51q-3.29,8.92-7.27,17.6t-8.68,16.89q-3.29,5.63-6.92,10.79a75.3,75.3,0,0,1-8.33,9.85,47.24,47.24,0,0,1-9.38,7.27,29.8,29.8,0,0,1-10.79,3.75c-1.41.15-2.78,0.27-4.11,0.35s-2.7.19-4.11,0.35a9.5,9.5,0,0,1-3.64-.23q-1.76-.47-3.64-1.17a52,52,0,0,1-12.67-7.51,27.73,27.73,0,0,1-7.74-9.74,49,49,0,0,1-3.75-11.62A46,46,0,0,1,151,164Q150.78,161.53,150.54,158.48ZM183.16,143a5.43,5.43,0,0,0,1.17-.7,80.65,80.65,0,0,0,9.86-8.56,49.76,49.76,0,0,0,7.74-10.44,56.55,56.55,0,0,0,5.63-16.89,4.83,4.83,0,0,0-1.17-4.46,5.37,5.37,0,0,0-4.46-1.41,11.45,11.45,0,0,0-4.46,1.41A22.29,22.29,0,0,0,190,108a29.14,29.14,0,0,0-3.52,5.4,14,14,0,0,0-1.41,6.34,5.44,5.44,0,0,1,0,2.23,14.83,14.83,0,0,1-.71,2.23,44.06,44.06,0,0,0-1.29,7.16q-0.35,3.64-.82,7.16a7.19,7.19,0,0,0-.12,2.23A4.43,4.43,0,0,0,183.16,143Z"/><path class="cls-2" d="M599.74,158.48V157a11.41,11.41,0,0,1,.23-2.23,130.12,130.12,0,0,1,5.75-23,59.52,59.52,0,0,1,12.09-20.18q3-3.28,6.1-6.1a45.5,45.5,0,0,1,6.8-5.16,33,33,0,0,1,26-4.22q7.27,1.64,7.74,9.62a31,31,0,0,1-2,11.26,46.25,46.25,0,0,1-5.28,9.85,49.14,49.14,0,0,1-4.11,4.93,52.58,52.58,0,0,1-4.81,4.46L642,142.05q-3.05,2.82-6.1,6.1a12.16,12.16,0,0,1-1.52,1.29q-0.83.59-1.76,1.29a5.7,5.7,0,0,0-2.82,4.93,26,26,0,0,1,0,4.93q-0.23,2.35-.7,4.93a36.23,36.23,0,0,0-.35,12,46.53,46.53,0,0,0,3.17,11.5q0.94,2.11,4,2.58a23.23,23.23,0,0,0,13.38-3.75,37.56,37.56,0,0,0,6.69-5.28,69.74,69.74,0,0,0,5.52-6.22,109.6,109.6,0,0,0,9.15-13.61q4-7,7.51-14.55,6.8-14.55,12.67-30.74,0.93-2.58,1.76-2.93a7.2,7.2,0,0,1,3.4.12q1.87,0.47,1.41,2.58-1.41,3.76-2.7,7.51T692,132.2q-3.29,8.92-7.27,17.6T676,166.69q-3.29,5.63-6.92,10.79a75.3,75.3,0,0,1-8.33,9.85,47.24,47.24,0,0,1-9.38,7.27,29.8,29.8,0,0,1-10.79,3.75c-1.41.15-2.78,0.27-4.11,0.35s-2.7.19-4.11,0.35a9.5,9.5,0,0,1-3.64-.23q-1.76-.47-3.64-1.17a52,52,0,0,1-12.67-7.51,27.73,27.73,0,0,1-7.74-9.74,49,49,0,0,1-3.75-11.62,46,46,0,0,1-.71-4.81Q600,161.53,599.74,158.48ZM632.35,143a5.43,5.43,0,0,0,1.17-.7,80.65,80.65,0,0,0,9.86-8.56,49.76,49.76,0,0,0,7.74-10.44,56.55,56.55,0,0,0,5.63-16.89,4.83,4.83,0,0,0-1.17-4.46,5.37,5.37,0,0,0-4.46-1.41,11.45,11.45,0,0,0-4.46,1.41,22.29,22.29,0,0,0-7.51,6.1,29.14,29.14,0,0,0-3.52,5.4,14,14,0,0,0-1.41,6.34,5.44,5.44,0,0,1,0,2.23,14.83,14.83,0,0,1-.71,2.23,44.06,44.06,0,0,0-1.29,7.16q-0.35,3.64-.82,7.16a7.19,7.19,0,0,0-.12,2.23A4.43,4.43,0,0,0,632.35,143Z"/><path class="cls-2" d="M223.6,151.59a154.72,154.72,0,0,1,2.58-27.45q1.17-6.57,1.88-13t1.88-13q1.17-7.27,2.35-14.43t2.35-14.43q0.46-2.58.82-4.93t0.82-4.93a44.82,44.82,0,0,1,1.64-8.1A57.49,57.49,0,0,1,241,43.42q2.81-6.8,5.75-13.38t5.52-13.38q1.87-4.93,5.52-5.87a13.05,13.05,0,0,1,6.92,0,6,6,0,0,1,3,1.76,16.7,16.7,0,0,1,2.11,2.93,26.44,26.44,0,0,1,1.76,5.28,43.58,43.58,0,0,1,.82,5.51,107.75,107.75,0,0,1-1.17,23.23q-1.88,12.2-4.58,24.05A237.54,237.54,0,0,1,260,97.15q-0.71,2.35-1.53,4.69a15.82,15.82,0,0,1-2.46,4.46,6.22,6.22,0,0,0-.71,2.81v5.63a47.58,47.58,0,0,1-.35,8.8q-0.59,4.35-1.05,8.8-0.47,3.76-.59,7.39t0.12,7.39q0.47,7.51.59,14.67t-0.35,14.67a60.55,60.55,0,0,0-.59,6.45,62.64,62.64,0,0,1-.59,6.45,7.33,7.33,0,0,1-.59,2.82c-0.39.94-.74,1.8-1.06,2.58a19,19,0,0,0-2.11,4.69,4.83,4.83,0,0,0,1.41,5.63,17.53,17.53,0,0,0,6,3.17q3.4,1.06,7.39-1.76a30.44,30.44,0,0,0,6.57-6.8,52.22,52.22,0,0,0,5.63-8.33q2.34-4.35,4.46-9,4.69-10.56,8.56-21.12t7.16-21.82q1.87-5.86,3.52-11.73t3.52-11.73a14.77,14.77,0,0,1,2.58-4.46,13.4,13.4,0,0,1,1.41-.82,1.79,1.79,0,0,1,1.64.12,3.25,3.25,0,0,1,1.64,3.05,7.72,7.72,0,0,1-.47,1.88q-4.69,14.55-9.5,28.74T290,172.71q-2.35,5.63-4.69,11.15t-5.16,10.91q-1.18,2.11-2.23,4.22a19,19,0,0,1-2.7,4,26.71,26.71,0,0,1-14.55,10.09,22,22,0,0,1-10.32-.12,16.52,16.52,0,0,1-10.09-6.69,101.62,101.62,0,0,1-10.21-18.18A75.46,75.46,0,0,1,224.54,168q-0.47-4-.59-8.21T223.6,151.59Zm32.85-64.53a2.73,2.73,0,0,0,.82-1.29,2.05,2.05,0,0,1,.59-1.06Q259,81,260,77.33t1.87-7.39q2.11-8.45,3.52-17t2.35-17.25a46,46,0,0,0-.7-13.84,9.74,9.74,0,0,1-.7-1.76,5.64,5.64,0,0,0-.94-1.76,2.86,2.86,0,0,0-2.81-1.41q-1.41.24-1.88,2.35-0.24,1.18-.35,2.11a14.68,14.68,0,0,0-.12,1.88,16.85,16.85,0,0,0-.23,2.82,13.17,13.17,0,0,1-.24,2.58q-0.47,4.22-.7,8.45t-0.47,8.68q-0.47,5.4-.7,11t-0.47,11.26q-0.47,4.7-.59,9.39T256.45,87.06Z"/><path class="cls-2" d="M508.67,127.2a1.77,1.77,0,0,0,.82-0.94,4.35,4.35,0,0,1,.35-0.94q1.64-2.82,3.17-5.63t2.93-5.87l1.41-2.35,1.41-2.35a10.66,10.66,0,0,1,8.56-4.93,10.77,10.77,0,0,1,9,4.22,11.84,11.84,0,0,1,2.58,7.51,49.32,49.32,0,0,1-.47,6.69q-0.47,3.4-1.17,6.69v1.41a2.07,2.07,0,0,0,.23.94,3.13,3.13,0,0,0,1.64-1.29c0.31-.55.62-1.13,0.94-1.76a77,77,0,0,1,5.63-8.8q3-4.1,6.34-8.1a19.66,19.66,0,0,1,12.67-6.81,11,11,0,0,1,8.68,2.23,11.7,11.7,0,0,1,4.46,7.86,27.73,27.73,0,0,1-.94,10.32q-5.16,20.65-9.38,41.18t-8.92,41.18a30,30,0,0,0,0,10.56q0.47,4,4.22,3.28a7.15,7.15,0,0,0,3.75-1.88,21.21,21.21,0,0,0,4.11-3.17l3.64-3.64a106.58,106.58,0,0,0,19.48-29.1q6.1-13.38,11.38-26.87t10.68-27.34q0.93-2.34,1.76-4.58a44.41,44.41,0,0,1,2-4.58,6.73,6.73,0,0,0,.35-0.82,5.89,5.89,0,0,1,.35-0.82,1.58,1.58,0,0,1,3,.47,9.38,9.38,0,0,1-.23,4.69,88.88,88.88,0,0,1-3,11l-3.75,10.79q-8.92,23.23-19,45.76a92,92,0,0,1-18.77,27.22q-1.18,1.17-2.46,2.35a23,23,0,0,1-2.7,2.11q-9.39,6.57-19,.47-10.56-6.57-11.73-19.71a56.51,56.51,0,0,1,0-10.32,77.61,77.61,0,0,1,1.64-10.32q2.58-13.14,5.28-26t6.22-25.81q0.93-2.82,1.76-5.63t1.53-5.4c0.15-.31.31-0.66,0.47-1.06a0.85,0.85,0,0,0-.47-1.06,0.59,0.59,0,0,0-.94,0l-0.94.94a40.36,40.36,0,0,0-6.57,9.62q-2.59,4.7-5.28,9.62t-5.52,9.62c-0.78,1.25-1.52,2.46-2.23,3.64s-1.45,2.39-2.23,3.64a25.36,25.36,0,0,0-4.46,8q-1.88,4.22-5.4,1.41a6.26,6.26,0,0,1-2.58-5.4,32.89,32.89,0,0,1,.94-11.26q1.41-6.1,2.46-12t2.46-11.73c0.31-1.56.62-3.05,0.94-4.46s0.62-2.89.94-4.46a19.41,19.41,0,0,0,0-4.22q0-1.64-2.11-.94a2.79,2.79,0,0,0-1.88,1.88,9.15,9.15,0,0,1-1.17,2.11,9.15,9.15,0,0,0-1.17,2.11q-4.46,9.15-8.21,18.42t-7,18.89q-1.41,4-3.05,8t-3.75,8a19.27,19.27,0,0,0-2,5.63,53.31,53.31,0,0,0-.82,6.1,14.18,14.18,0,0,1-2.11,8.21,10,10,0,0,0-.7,1.76q-0.24.82-.47,2a11.45,11.45,0,0,1-1.64,4.11,5.45,5.45,0,0,1-3.75,2.23,6.85,6.85,0,0,1-4.69-.23,10.82,10.82,0,0,1-3.75-2.82,25.43,25.43,0,0,1-4.69-11.26,55.85,55.85,0,0,1-1.29-8.21q-0.35-4.22-.82-8.45a245,245,0,0,1-1.06-25.11q0.12-12.43,1.06-25.11a184.71,184.71,0,0,1,3-21.12A200.72,200.72,0,0,1,484,76.75Q485,73,488.72,74.64a16.46,16.46,0,0,1,4.46,2.93,22.24,22.24,0,0,1,3.29,3.87A53.68,53.68,0,0,1,503,94.23a80.51,80.51,0,0,1,3.52,14.2q0.47,4.22.71,8.45t0.7,8.45a2.13,2.13,0,0,1,.23.94A1.34,1.34,0,0,0,508.67,127.2Z"/><path class="cls-2" d="M448.22,151.57a31,31,0,0,1-9.39-1.41,1,1,0,0,1-.47-0.12,1.66,1.66,0,0,0-.7-0.12q-2.59-.93-2.58,2.11,0.23,2.82.47,5.63a34.46,34.46,0,0,1,0,5.63,54.32,54.32,0,0,1-.94,10.56,22.65,22.65,0,0,1-4.93,10.79,44.11,44.11,0,0,1-3.05,3.64,48.48,48.48,0,0,1-3.52,3.4,2.89,2.89,0,0,1-1.29,1.06,9.46,9.46,0,0,0-1.52.82q-4.46,1.41-8.8,2.82T402.7,199a20.66,20.66,0,0,1-13.38-.71q-18.3-6.1-27-22.76a24.34,24.34,0,0,1-3.05-12.2,84.23,84.23,0,0,1,4-27q0.47-1.17,1.06-2.46a24.09,24.09,0,0,1,1.29-2.46q3-4.69,6.22-9.15A66,66,0,0,1,379,113.8q3.28-3.28,6.57-6.69a41.18,41.18,0,0,1,7.27-6,7.43,7.43,0,0,1,4.22-1.88,38.08,38.08,0,0,1,6.69.12,28.62,28.62,0,0,1,6.45,1.53q2.11,1.18,4,2.35a16,16,0,0,1,3.52,3.05A12.56,12.56,0,0,1,421,115.2a1.25,1.25,0,0,1-1.41,1.41,5.56,5.56,0,0,1-4.46-3.05,19.44,19.44,0,0,0-1.64-2.82q-2.58-3.52-5.87-1.17a5.89,5.89,0,0,0-2.82,3.05q-0.94,2.11-2,4.22l-2.23,4.46-0.94,2.82q-0.47,1.41-.94,3.28a13.47,13.47,0,0,1-1.41,3.75,19.32,19.32,0,0,0-2.82,5.52q-0.94,2.94-1.64,6.22a39.74,39.74,0,0,1-3.05,8.92,24.68,24.68,0,0,0-1.88,4.22,14.81,14.81,0,0,0-.7,4.69q-0.24,2.35-.47,4.58a43.46,43.46,0,0,0-.23,4.58,24.15,24.15,0,0,0,.82,6.34q0.82,3.05,2,6.34a5.27,5.27,0,0,0,4.46,3.29q5.16,0.47,8.21-2.11a55.7,55.7,0,0,0,11.5-11.62A37.07,37.07,0,0,0,419.82,157a42.43,42.43,0,0,1,1.64-6.1,4.25,4.25,0,0,0,0-2.81,4.13,4.13,0,0,0-2.35-1.64,5.52,5.52,0,0,0-1.53-.7,5.24,5.24,0,0,1-1.52-.7q-4.93-2.58-5.51-6.57a14.87,14.87,0,0,1,.59-7.27,10.2,10.2,0,0,1,1.76-2.81c0.7-.78,1.44-1.56,2.23-2.35a3.8,3.8,0,0,1,2.35-.7q1.88-.23,3.64-0.35a11.78,11.78,0,0,1,3.64.35q6.1,1.18,7.27,6.57,0.47,1.88.82,4t0.82,4q0.23,2.58,3.28,3.75a37.78,37.78,0,0,0,17.6.94q8.21-1.64,15.49-8.45a48.07,48.07,0,0,0,4.81-5.63,67.36,67.36,0,0,0,4.11-6.34,10.47,10.47,0,0,1,1.64-2.58,2.49,2.49,0,0,1,2.35-1.17,2.8,2.8,0,0,1,1.88,1.88,4.33,4.33,0,0,1,.35,2.11,8.8,8.8,0,0,1-.59,2.11,52.37,52.37,0,0,1-11.14,15.13,37.9,37.9,0,0,1-16.54,8.8q-1.88.47-5.16,0.94A19.38,19.38,0,0,1,448.22,151.57Zm-30.51-16.43a12.69,12.69,0,0,0,.47,2.82,3.61,3.61,0,0,0,3.52,2.82,2.23,2.23,0,0,0,1.88-.94,8.49,8.49,0,0,0,.35-5,5.76,5.76,0,0,0-2.46-3.87q-1.18-1.17-2.58.23A6.05,6.05,0,0,0,417.71,135.15Z"/><path class="cls-2" d="M106.23,198.63a7.6,7.6,0,0,0,1.88-4.22l3.52-23.94q0.47-4.69.94-9.15t0.94-9.15q0.47-4-2.11-6.1a17.76,17.76,0,0,1-2.58-3.75,26.11,26.11,0,0,1-1.64-4.22,116.18,116.18,0,0,1-4-20.88,27.87,27.87,0,0,1,4.69-18.3A6.3,6.3,0,0,1,109,97.26q5.63-8,14.08-2.58a13.31,13.31,0,0,1,3.52,3.4,46,46,0,0,1,2.58,4.11,41.51,41.51,0,0,1,2.93,7.62q1.06,3.87,1.76,7.86a135.52,135.52,0,0,1,1.64,13.73q0.47,6.92.7,13.73c0,1.26.15,2,.47,2.23s1.09,0.2,2.35-.12a42,42,0,0,0,15-7.27,17.8,17.8,0,0,0,4.11-4.69,43.63,43.63,0,0,0,2.7-5.4,31.33,31.33,0,0,0,1.88-4.58q0.71-2.23,1.41-4.58a2.78,2.78,0,0,1,3.52-2.35,2.75,2.75,0,0,1,2.58,3.29,61.79,61.79,0,0,1-1.76,6.8,24,24,0,0,1-3.17,6.34,47.35,47.35,0,0,1-20.88,15.49l-1.41.47a9.43,9.43,0,0,0-1.17.47c-1.41.47-2.54,0.86-3.4,1.17a3.83,3.83,0,0,0-1.88,1.29,3.55,3.55,0,0,0-.59,2.11v12.67q0,4.35-.24,9-0.47,3.75-1.06,7.39a20.41,20.41,0,0,1-2.46,6.92,27.28,27.28,0,0,0-1.64,3.4c-0.47,1.17-1,2.38-1.64,3.64a22.33,22.33,0,0,1-9.39,9.62,19.52,19.52,0,0,1-12.91,2.11q-8-1.18-10.32-8.68a122.18,122.18,0,0,1-5.16-26.51,64.08,64.08,0,0,0-.82-6.57q-0.59-3.28-1.06-6.57a2.68,2.68,0,0,0-1.06.59l-0.82.82a82.63,82.63,0,0,0-6.1,6.8l-5.63,7a69.7,69.7,0,0,1-10.56,11.38,86.42,86.42,0,0,1-12.67,9,21.79,21.79,0,0,1-5.28,2.47,11.87,11.87,0,0,1-6,.12A15.76,15.76,0,0,1,33.72,196a52.81,52.81,0,0,1-8.92-11.73,65.51,65.51,0,0,1-5.63-13.61,67.31,67.31,0,0,1-3.28-20.53A105.73,105.73,0,0,1,18,129.41a161.25,161.25,0,0,1,4.46-15.84Q25,105.94,27.62,98.2q0.94-2.58,1.76-5a37.09,37.09,0,0,0,1.29-5,15.1,15.1,0,0,1,1.41-3.87Q33,82.48,34.19,80.6q1.88-2.82,3.64-5.4A38.86,38.86,0,0,0,41,69.57q1.17-2.34,4.22-1.41,8.92,4,11,12.67a59,59,0,0,1,.47,20.88,113.14,113.14,0,0,1-2.93,11.5q-1.76,5.63-3.64,11-2.11,5.63-4,11.15A67.75,67.75,0,0,0,43.34,147c-0.16,1.26-.27,2.58-0.35,4s-0.12,2.74-.12,4q0.47,7.51,1.06,14.78t1.52,14.55q0.23,0.94.35,1.76a3.6,3.6,0,0,0,.59,1.52q1.17,2.35,3.28.94a11.31,11.31,0,0,0,1.64-1.41q3-3.28,6-6.69l5.75-6.69a60.7,60.7,0,0,0,4-4.93,26.61,26.61,0,0,0,3.05-5.4,31.72,31.72,0,0,1,2.7-4.46q1.52-2.11,3.17-4l3.87-4.34q2-2.23,3.87-4.58A32.93,32.93,0,0,0,88,139.49,22.58,22.58,0,0,0,90.27,132a0.91,0.91,0,0,1,.12-0.59,0.94,0.94,0,0,0,.12-0.59,2.63,2.63,0,0,1,2.58-2.11,1.36,1.36,0,0,1,1.41.59,6.81,6.81,0,0,0,.7,1.29,12,12,0,0,1,.47,3.29,23,23,0,0,0,.23,3.28,75.73,75.73,0,0,1,.35,9.39,74.38,74.38,0,0,0,.35,9.38,162.23,162.23,0,0,0,2.46,18.54q1.76,9.15,4.34,18.3,0.47,1.41,1.06,2.93A10.38,10.38,0,0,0,106.23,198.63Zm8.45-58.43a5.68,5.68,0,0,0,1.17-2.58q0.47-6.34.7-12.91a124,124,0,0,0-.23-13.14,24.15,24.15,0,0,0-.7-5.87q-0.94-3.28-3.28-.94a8.41,8.41,0,0,0-1.88,3,20.81,20.81,0,0,0-1.64,8,45.86,45.86,0,0,0,.7,8,30.75,30.75,0,0,0,1.76,7.16,44,44,0,0,1,2,6.92A3.36,3.36,0,0,0,114.68,140.2Z"/></svg>