<!-- Generator: Adobe Illustrator 19.2.0, SVG Export Plug-In  -->
<svg version="1.1"
	 xmlns="http://www.w3.org/2000/svg" xmlns:xlink="http://www.w3.org/1999/xlink" xmlns:a="http://ns.adobe.com/AdobeSVGViewerExtensions/3.0/"
	 x="0px" y="0px" width="372.74px" height="98.286px" viewBox="0 0 372.74 98.286"
	 style="enable-background:new 0 0 372.74 98.286;" xml:space="preserve">
<style type="text/css">
	.st0{fill:#FFFFFF;}
</style>
<defs>
</defs>
<path class="st0" d="M73.606,38.71c-0.235,0.059-0.426,0.132-0.572,0.22c-0.147,0.088-0.279,0.191-0.396,0.308
	c-0.646,0.528-1.247,1.1-1.804,1.716c-0.559,0.616-1.071,1.247-1.54,1.892c-2.054,3.11-3.902,6.278-5.544,9.504
	c-0.294,0.528-0.44,1.174-0.44,1.936c-0.176,1.351-0.396,2.655-0.66,3.916c-0.264,1.262-0.543,2.567-0.836,3.916l-0.528,3.168
	c-0.235,0.997-0.763,1.774-1.584,2.332c-0.822,0.557-1.731,0.748-2.728,0.572c-0.587-0.059-1.027-0.382-1.32-0.968
	c-0.587-1.29-0.968-2.493-1.144-3.608c-0.411-1.994-0.616-4.077-0.616-6.248c0-1.994,0.014-3.974,0.044-5.94
	c0.029-1.965,0.014-3.945-0.044-5.94c0-3.402,0.264-6.834,0.792-10.296c0.117-0.821,0.205-1.657,0.264-2.508
	c0.058-0.85,0.117-1.686,0.176-2.508c0.176-2.522,0.425-5.016,0.748-7.48c0.321-2.464,0.777-4.928,1.364-7.392
	c0.293-1.056,0.645-1.994,1.056-2.816c0.292-0.586,0.572-1.158,0.836-1.716c0.264-0.557,0.542-1.128,0.836-1.716
	c0.41-0.938,0.762-1.906,1.056-2.904c0.528-2.17,1.672-3.813,3.432-4.928c1.584-1.114,3.256-1.466,5.016-1.056
	c2.17,0.587,3.344,1.995,3.52,4.224c0.117,1.115,0.088,2.2-0.088,3.256c-0.176,1.056-0.411,2.112-0.704,3.168
	c-0.118,0.411-0.25,0.807-0.396,1.188c-0.147,0.382-0.279,0.807-0.396,1.276c-0.47,1.35-1.1,2.611-1.892,3.784
	c-0.792,1.174-1.687,2.318-2.684,3.432c-0.587,0.587-0.851,1.203-0.792,1.848c0.117,2.23,0.058,4.444-0.176,6.644
	c-0.235,2.2-0.499,4.386-0.792,6.556c-0.176,0.999-0.352,2.01-0.528,3.036c-0.176,1.027-0.294,2.039-0.352,3.036
	c-0.118,0.88-0.176,1.76-0.176,2.64c0,0.88-0.03,1.731-0.088,2.552c0.234,0.176,0.41,0.118,0.528-0.176
	c0.117-0.117,0.234-0.322,0.352-0.616c0.821-1.701,1.804-3.3,2.948-4.796s2.361-2.977,3.652-4.444
	c0.469-0.469,0.938-0.88,1.408-1.232c0.469-0.352,1.025-0.585,1.672-0.704c1.408-0.41,2.684-0.249,3.828,0.484
	c1.144,0.734,1.833,1.804,2.068,3.212c0.293,1.408,0.41,2.816,0.352,4.224c-0.059,1.408-0.382,2.787-0.968,4.136
	c-0.294,0.763-0.514,1.54-0.66,2.332c-0.147,0.792-0.279,1.599-0.396,2.42c-0.176,1.351-0.411,2.684-0.704,4.004
	c-0.294,1.32-0.528,2.655-0.704,4.004c-0.176,1.526-0.499,2.963-0.968,4.312c-0.47,1.35-1.027,2.698-1.672,4.048
	c-0.763,1.525-1.35,2.992-1.76,4.4c-0.294,0.997-0.323,1.95-0.088,2.86c0.233,0.909,0.673,1.773,1.32,2.596
	c0.704,0.938,1.613,1.085,2.728,0.44c0.352-0.176,0.66-0.382,0.924-0.616c0.264-0.235,0.542-0.499,0.836-0.792
	c0.704-0.704,1.349-1.438,1.936-2.2c0.586-0.763,1.144-1.555,1.672-2.376c1.29-1.995,2.478-4.034,3.564-6.116
	c1.085-2.082,2.125-4.18,3.124-6.292c1.349-2.816,2.625-5.646,3.828-8.492c1.202-2.845,2.39-5.705,3.564-8.58
	c0.058-0.234,0.234-0.557,0.528-0.968c0.176-0.234,0.44-0.352,0.792-0.352c0.88,0,1.202,0.44,0.968,1.32
	c-0.822,2.64-1.746,5.207-2.772,7.7c-1.027,2.494-2.127,4.972-3.3,7.436c-1.056,2.347-2.171,4.65-3.344,6.908
	c-1.174,2.258-2.435,4.473-3.784,6.644c-0.646,0.997-1.292,1.98-1.936,2.948c-0.646,0.968-1.351,1.892-2.112,2.772
	c-0.646,0.704-1.335,1.29-2.068,1.76c-0.734,0.469-1.511,0.88-2.332,1.232c-1.702,0.645-3.256,0.498-4.664-0.44
	c-2.171-1.291-3.799-2.89-4.884-4.796c-1.086-1.907-1.687-4.092-1.804-6.556c-0.059-1.35,0.058-2.684,0.352-4.004
	c0.293-1.32,0.645-2.625,1.056-3.916c0.585-1.76,1.202-3.505,1.848-5.236c0.645-1.73,1.202-3.505,1.672-5.324
	c0.585-1.936,1.114-4.018,1.584-6.248c0.117-0.645,0.264-1.246,0.44-1.804c0.176-0.557,0.41-1.129,0.704-1.716
	c0.117-0.233,0.233-0.469,0.352-0.704C73.722,39.268,73.722,39.004,73.606,38.71z M66.126,16.621
	c0.997-1.114,1.861-2.258,2.596-3.432c0.733-1.173,1.305-2.434,1.716-3.784c0.528-1.466,0.792-3.05,0.792-4.752
	c0-1.114-0.559-1.789-1.672-2.024c-0.88-0.176-1.672-0.044-2.376,0.396c-0.704,0.44-1.144,1.159-1.32,2.156
	C65.626,6.18,65.51,7.324,65.51,8.613c0,0.998,0.029,1.995,0.088,2.992c0.058,0.998,0.058,1.995,0,2.992
	C65.597,15.361,65.774,16.036,66.126,16.621z"/>
<path class="st0" d="M221.927,42.509c-0.118,0.704-0.132,1.423-0.044,2.156c0.088,0.734,0.308,1.482,0.66,2.244
	c0.176,0.294,0.264,0.616,0.264,0.968c0,0.646-0.015,1.291-0.044,1.936c-0.03,0.646-0.132,1.292-0.308,1.936
	c-0.411,1.408-0.69,2.816-0.836,4.224c-0.147,1.408-0.279,2.816-0.396,4.224c-0.059,0.47-0.104,0.939-0.132,1.408
	c-0.03,0.469-0.074,0.938-0.132,1.408c0,0.176-0.015,0.352-0.044,0.528c-0.03,0.176,0.014,0.322,0.132,0.44
	c0.176,0.117,0.352,0.132,0.528,0.044c0.176-0.088,0.352-0.191,0.528-0.308c0.41-0.235,0.777-0.499,1.1-0.792
	c0.322-0.294,0.629-0.616,0.924-0.968c0.88-0.997,1.701-2.141,2.464-3.432c0.821-1.349,1.584-2.728,2.288-4.136
	s1.408-2.816,2.112-4.224c0.997-2.112,2.038-4.224,3.124-6.336c1.084-2.112,2.097-4.282,3.036-6.512
	c0.117-0.352,0.249-0.704,0.396-1.056c0.146-0.352,0.308-0.704,0.484-1.056c0.117-0.352,0.396-0.585,0.836-0.704
	c0.44-0.117,0.806-0.058,1.1,0.176c0.176,0.176,0.205,0.47,0.088,0.88c-0.47,1.056-0.866,2.142-1.188,3.256
	c-0.323,1.115-0.748,2.2-1.276,3.256c-1.056,1.995-2.024,4.004-2.904,6.028s-1.79,4.063-2.728,6.116
	c-0.646,1.35-1.335,2.699-2.068,4.048c-0.734,1.35-1.57,2.611-2.508,3.784c-1.35,1.76-2.963,3.313-4.84,4.664
	c-0.528,0.41-1.13,0.645-1.804,0.704c-0.675,0.058-1.335,0-1.98-0.176c-0.646-0.176-1.232-0.455-1.76-0.836
	c-0.528-0.382-0.91-0.836-1.144-1.364c-0.294-0.704-0.587-1.423-0.88-2.156c-0.294-0.734-0.528-1.481-0.704-2.244
	c-0.059-0.176-0.103-0.337-0.132-0.484c-0.03-0.146-0.074-0.308-0.132-0.484c-0.176-0.41-0.411-0.469-0.704-0.176
	c-0.646,0.47-1.292,0.924-1.936,1.364c-0.646,0.44-1.292,0.894-1.936,1.364c-2.992,1.76-6.103,2.024-9.328,0.792
	c-2.171-0.763-3.667-2.229-4.488-4.4c-0.411-1.056-0.704-2.126-0.88-3.212c-0.176-1.085-0.323-2.185-0.44-3.3
	c-0.528-4.4-0.088-8.461,1.32-12.188c1.408-3.725,3.578-7.201,6.512-10.428c1.114-1.232,2.317-2.2,3.608-2.904
	c2.17-1.114,4.282-1.173,6.336-0.176c0.938,0.352,1.73,0.822,2.376,1.408c1.173,0.763,1.965,1.731,2.376,2.904
	c0.176,0.47,0.352,0.924,0.528,1.364c0.176,0.44,0.41,0.866,0.704,1.276c0.233,0.47,0.264,0.822,0.088,1.056
	c-0.235,0.294-0.616,0.382-1.144,0.264c-1.115-0.293-1.936-0.938-2.464-1.936c-0.235-0.293-0.455-0.601-0.66-0.924
	c-0.206-0.322-0.367-0.66-0.484-1.012c-0.235-0.469-0.572-0.836-1.012-1.1c-0.44-0.264-0.895-0.396-1.364-0.396
	c-0.47,0-0.924,0.132-1.364,0.396c-0.44,0.264-0.778,0.69-1.012,1.276c-0.059,0.176-0.207,0.5-0.44,0.968
	c-0.646,1.174-1.232,2.376-1.76,3.608s-0.88,2.523-1.056,3.872c-0.176,1.232-0.47,2.45-0.88,3.652
	c-0.411,1.203-0.822,2.391-1.232,3.564c-1.115,3.287-0.851,6.571,0.792,9.856c0.645,1.292,1.452,2.01,2.42,2.156
	c0.968,0.147,1.892-0.308,2.772-1.364c1.349-1.701,2.552-3.476,3.608-5.324c1.056-1.848,1.76-3.886,2.112-6.116
	c0.117-0.762,0.308-1.51,0.572-2.244c0.264-0.733,0.513-1.481,0.748-2.244c0.41-1.056,0.645-2.024,0.704-2.904
	c0-0.704,0.381-1.144,1.144-1.32h0.088c1.114-0.117,1.936-0.058,2.464,0.176c0.528,0.235,0.909,1.027,1.144,2.376
	c0.058,0.47,0.088,0.924,0.088,1.364S221.927,41.981,221.927,42.509z"/>
<path class="st0" d="M265.693,52.515c0-0.117,0-0.308,0-0.572s0.029-0.542,0.088-0.836c0.469-2.992,1.188-5.866,2.156-8.624
	c0.968-2.757,2.478-5.28,4.532-7.568c0.762-0.821,1.524-1.584,2.288-2.288c0.762-0.704,1.612-1.349,2.552-1.936
	c2.992-1.877,6.248-2.405,9.768-1.584c1.818,0.411,2.786,1.614,2.904,3.608c0,1.526-0.25,2.934-0.748,4.224
	c-0.499,1.291-1.159,2.523-1.979,3.696c-0.471,0.646-0.983,1.262-1.54,1.848c-0.559,0.587-1.159,1.144-1.805,1.672
	c-0.822,0.763-1.614,1.496-2.376,2.2c-0.763,0.704-1.526,1.467-2.288,2.288c-0.176,0.176-0.367,0.338-0.571,0.484
	c-0.207,0.147-0.427,0.308-0.66,0.484c-0.704,0.47-1.057,1.086-1.057,1.848c0.059,0.646,0.059,1.262,0,1.848
	c-0.059,0.587-0.146,1.203-0.264,1.848c-0.294,1.526-0.338,3.022-0.132,4.488c0.205,1.467,0.601,2.904,1.188,4.312
	c0.234,0.528,0.733,0.85,1.496,0.968c1.761,0.058,3.433-0.411,5.017-1.408c0.938-0.586,1.773-1.246,2.508-1.98
	c0.732-0.732,1.422-1.509,2.068-2.332c1.289-1.642,2.434-3.344,3.432-5.104c0.997-1.76,1.936-3.578,2.816-5.456
	c1.7-3.637,3.284-7.48,4.752-11.528c0.233-0.645,0.453-1.012,0.659-1.1c0.205-0.088,0.63-0.073,1.276,0.044
	c0.469,0.118,0.645,0.44,0.528,0.968c-0.353,0.939-0.69,1.878-1.013,2.816c-0.322,0.939-0.659,1.878-1.012,2.816
	c-0.822,2.23-1.731,4.431-2.728,6.6c-0.999,2.171-2.083,4.283-3.256,6.336c-0.822,1.408-1.688,2.758-2.597,4.048
	c-0.91,1.291-1.951,2.523-3.124,3.696c-1.056,1.056-2.23,1.965-3.52,2.728c-1.351,0.762-2.699,1.232-4.048,1.408
	c-0.528,0.058-1.043,0.102-1.54,0.132c-0.499,0.029-1.013,0.073-1.54,0.132c-0.471,0.058-0.924,0.029-1.364-0.088
	c-0.44-0.118-0.896-0.264-1.364-0.44c-1.702-0.704-3.286-1.643-4.752-2.816c-1.291-1.056-2.259-2.273-2.904-3.652
	c-0.646-1.377-1.114-2.83-1.407-4.356c-0.118-0.585-0.207-1.188-0.265-1.804C265.81,53.967,265.751,53.278,265.693,52.515z
	 M277.925,46.707c0.233-0.117,0.381-0.205,0.439-0.264c1.35-0.997,2.581-2.068,3.696-3.212c1.113-1.144,2.082-2.449,2.904-3.916
	c1.056-2.053,1.76-4.165,2.111-6.336c0.117-0.704-0.03-1.261-0.439-1.672c-0.411-0.41-0.968-0.586-1.672-0.528
	c-0.588,0.059-1.145,0.235-1.672,0.528c-0.999,0.47-1.937,1.232-2.816,2.288c-0.528,0.646-0.968,1.32-1.32,2.024
	c-0.352,0.704-0.527,1.496-0.527,2.376c0.058,0.294,0.058,0.572,0,0.836c-0.06,0.264-0.147,0.543-0.265,0.836
	c-0.235,0.88-0.396,1.775-0.483,2.684c-0.088,0.91-0.191,1.804-0.309,2.684c-0.059,0.294-0.074,0.572-0.044,0.836
	C277.558,46.135,277.69,46.414,277.925,46.707z"/>
<path class="st0" d="M156.054,86.756c0.058-1.702,0.176-3.418,0.352-5.148c0.176-1.73,0.381-3.476,0.616-5.235
	c0.293-2.23,0.586-4.475,0.88-6.732c0.293-2.259,0.528-4.532,0.704-6.82c0.176-2.17,0.366-4.312,0.572-6.424
	c0.205-2.112,0.484-4.224,0.836-6.336c0.117-0.645,0.249-1.261,0.396-1.848c0.146-0.586,0.277-1.202,0.396-1.848
	c0.352-1.936,0.616-3.872,0.792-5.808c0.117-1.701,0.249-3.417,0.396-5.148c0.146-1.729,0.308-3.446,0.484-5.148
	c0-0.352,0-0.704,0-1.056c0-0.352-0.059-0.704-0.176-1.056c-0.176-0.762,0.146-1.144,0.968-1.144c1.642,0,2.992,0.646,4.048,1.936
	c1.29,1.643,2.112,3.52,2.464,5.632c0.176,0.822,0.322,1.614,0.44,2.376c0.117,0.763,0.264,1.555,0.44,2.376
	c0,0.235,0.058,0.352,0.176,0.352c0.058,0.059,0.205-0.029,0.44-0.264c0.352-0.585,0.718-1.144,1.1-1.672
	c0.381-0.528,0.748-1.085,1.1-1.672c0.234-0.41,0.498-0.762,0.792-1.056c0.293-0.293,0.585-0.585,0.88-0.88
	c2.17-2.112,4.634-2.434,7.392-0.968c1.642,0.939,2.889,2.098,3.74,3.476c0.85,1.379,1.217,3.036,1.1,4.972
	c-0.059,0.998-0.118,1.98-0.176,2.948c-0.059,0.968-0.147,1.951-0.264,2.948c-0.118,0.998-0.015,1.672,0.308,2.024
	c0.322,0.352,0.982,0.499,1.98,0.44c0.528-0.058,1.012-0.176,1.452-0.352c0.44-0.176,0.865-0.41,1.276-0.704
	c0.585-0.41,1.1-0.85,1.54-1.32c0.44-0.469,0.894-0.968,1.364-1.496c0.762-0.938,1.452-1.905,2.068-2.904
	c0.616-0.997,1.246-1.994,1.892-2.992c0.469-0.997,1.349-1.584,2.64-1.76c0.293-0.117,0.528-0.088,0.704,0.088
	c0.117,0.118,0.132,0.22,0.044,0.308s-0.162,0.191-0.22,0.308c-0.704,1.467-1.467,2.875-2.288,4.224
	c-0.822,1.35-1.731,2.67-2.728,3.96c-0.47,0.587-0.968,1.13-1.496,1.628c-0.528,0.499-1.115,0.983-1.76,1.452
	c-1.115,0.822-2.259,1.395-3.432,1.716c-1.174,0.323-2.436,0.279-3.784-0.132c-0.47-0.117-0.792-0.117-0.968,0
	c-0.176,0.119-0.323,0.411-0.44,0.88c-0.176,0.88-0.499,1.672-0.968,2.376c-0.235,0.352-0.396,0.719-0.484,1.1
	c-0.088,0.382-0.191,0.748-0.308,1.1c-0.352,1.526-0.998,2.992-1.936,4.4c-0.352,0.47-0.704,0.91-1.056,1.32
	c-0.352,0.411-0.675,0.851-0.968,1.32c-0.528,0.704-1.262,1.262-2.2,1.672c-0.352,0.176-0.719,0.352-1.1,0.528
	c-0.382,0.176-0.748,0.352-1.1,0.528c-1.115,0.469-2.083,0.41-2.904-0.176c-0.587-0.294-1.174-0.616-1.76-0.968
	c-0.587-0.352-1.144-0.704-1.672-1.056c-0.352-0.293-0.603-0.41-0.748-0.352c-0.147,0.059-0.308,0.294-0.484,0.704v0.176
	c-0.352,1.349-0.807,2.684-1.364,4.004c-0.558,1.32-0.983,2.685-1.276,4.092c-0.294,1.408-0.603,2.801-0.924,4.181
	c-0.323,1.377-0.631,2.741-0.924,4.092c-0.118,0.527-0.235,1.069-0.352,1.628c-0.118,0.557-0.235,1.1-0.352,1.628
	c-0.118,0.528-0.308,1.012-0.572,1.452c-0.264,0.439-0.631,0.806-1.1,1.1c-0.294,0.176-0.514,0.366-0.66,0.572
	c-0.147,0.205-0.308,0.454-0.484,0.748c-0.118,0.293-0.264,0.601-0.44,0.924c-0.176,0.322-0.323,0.63-0.44,0.924
	c-0.235,0.41-0.646,0.616-1.232,0.616c-0.294-0.06-0.484-0.162-0.572-0.308c-0.088-0.147-0.191-0.339-0.308-0.572
	c-0.176-0.646-0.279-1.291-0.308-1.937C156.068,88.046,156.054,87.401,156.054,86.756z M168.99,61.236
	c0,0.939,0.352,1.76,1.056,2.464c0.645,0.646,1.202,0.955,1.672,0.924c0.469-0.029,0.968-0.425,1.496-1.188
	c0.645-0.821,1.173-1.686,1.584-2.596c0.41-0.909,0.792-1.862,1.144-2.86c0.41-1.173,0.762-2.346,1.056-3.52
	c0.293-1.173,0.616-2.346,0.968-3.52c0.293-0.821,0.088-1.437-0.616-1.848l-0.792-0.528c-0.822-0.645-1.526-1.393-2.112-2.244
	c-0.587-0.85-0.939-1.862-1.056-3.036c-0.059-0.117-0.088-0.22-0.088-0.308c0-0.088-0.03-0.19-0.088-0.308
	c0-0.176-0.059-0.264-0.176-0.264c-0.118-0.058-0.235,0.03-0.352,0.264c-0.646,0.939-1.159,1.878-1.54,2.816
	c-0.382,0.939-0.484,1.995-0.308,3.168c0.058,0.118,0.073,0.235,0.044,0.352c-0.03,0.118-0.044,0.235-0.044,0.352
	c0,1.76-0.162,3.476-0.484,5.148c-0.323,1.672-0.66,3.359-1.012,5.06c-0.118,0.294-0.206,0.572-0.264,0.836
	C169.019,60.665,168.99,60.943,168.99,61.236z M180.43,38.62c0-0.292-0.015-0.557-0.044-0.792c-0.03-0.233-0.074-0.498-0.132-0.792
	c-0.235-0.88-0.763-1.084-1.584-0.616c-0.235,0.176-0.528,0.44-0.88,0.792c-1.056,1.115-1.76,2.552-2.112,4.312
	c-0.176,1.115-0.088,2.2,0.264,3.256c0.41,0.999,1.114,1.702,2.112,2.112c0.528,0.176,0.85,0.03,0.968-0.44
	c0.117-0.352,0.205-0.688,0.264-1.012c0.058-0.322,0.146-0.66,0.264-1.012c0.176-0.997,0.337-1.965,0.484-2.904
	C180.18,40.587,180.312,39.619,180.43,38.62z"/>
<path class="st0" d="M229.374,86.756c0.058-1.702,0.176-3.418,0.352-5.148c0.176-1.73,0.381-3.476,0.616-5.235
	c0.293-2.23,0.586-4.475,0.88-6.732c0.293-2.259,0.528-4.532,0.704-6.82c0.176-2.17,0.366-4.312,0.572-6.424
	c0.205-2.112,0.484-4.224,0.836-6.336c0.117-0.645,0.249-1.261,0.396-1.848c0.146-0.586,0.277-1.202,0.396-1.848
	c0.352-1.936,0.616-3.872,0.792-5.808c0.117-1.701,0.249-3.417,0.396-5.148c0.146-1.729,0.308-3.446,0.484-5.148
	c0-0.352,0-0.704,0-1.056c0-0.352-0.059-0.704-0.176-1.056c-0.176-0.762,0.146-1.144,0.968-1.144c1.642,0,2.992,0.646,4.048,1.936
	c1.29,1.643,2.112,3.52,2.464,5.632c0.176,0.822,0.322,1.614,0.44,2.376c0.117,0.763,0.264,1.555,0.44,2.376
	c0,0.235,0.058,0.352,0.176,0.352c0.058,0.059,0.205-0.029,0.44-0.264c0.352-0.585,0.718-1.144,1.1-1.672
	c0.381-0.528,0.748-1.085,1.1-1.672c0.234-0.41,0.498-0.762,0.792-1.056c0.293-0.293,0.585-0.585,0.88-0.88
	c2.17-2.112,4.634-2.434,7.392-0.968c1.642,0.939,2.889,2.098,3.74,3.476c0.85,1.379,1.217,3.036,1.1,4.972
	c-0.059,0.998-0.118,1.98-0.176,2.948c-0.059,0.968-0.147,1.951-0.264,2.948c-0.118,0.998-0.015,1.672,0.308,2.024
	c0.322,0.352,0.982,0.499,1.98,0.44c0.528-0.058,1.012-0.176,1.452-0.352c0.44-0.176,0.865-0.41,1.276-0.704
	c0.585-0.41,1.1-0.85,1.54-1.32c0.44-0.469,0.894-0.968,1.364-1.496c0.762-0.938,1.452-1.905,2.068-2.904
	c0.616-0.997,1.246-1.994,1.892-2.992c0.469-0.997,1.349-1.584,2.64-1.76c0.293-0.117,0.528-0.088,0.704,0.088
	c0.117,0.118,0.132,0.22,0.044,0.308s-0.162,0.191-0.22,0.308c-0.704,1.467-1.467,2.875-2.288,4.224
	c-0.822,1.35-1.731,2.67-2.728,3.96c-0.47,0.587-0.968,1.13-1.496,1.628c-0.528,0.499-1.115,0.983-1.76,1.452
	c-1.115,0.822-2.259,1.395-3.432,1.716c-1.174,0.323-2.436,0.279-3.784-0.132c-0.47-0.117-0.792-0.117-0.968,0
	c-0.176,0.119-0.323,0.411-0.44,0.88c-0.176,0.88-0.499,1.672-0.968,2.376c-0.235,0.352-0.396,0.719-0.484,1.1
	c-0.088,0.382-0.191,0.748-0.308,1.1c-0.352,1.526-0.998,2.992-1.936,4.4c-0.352,0.47-0.704,0.91-1.056,1.32
	c-0.352,0.411-0.675,0.851-0.968,1.32c-0.528,0.704-1.262,1.262-2.2,1.672c-0.352,0.176-0.719,0.352-1.1,0.528
	c-0.382,0.176-0.748,0.352-1.1,0.528c-1.115,0.469-2.083,0.41-2.904-0.176c-0.587-0.294-1.174-0.616-1.76-0.968
	c-0.587-0.352-1.144-0.704-1.672-1.056c-0.352-0.293-0.603-0.41-0.748-0.352c-0.147,0.059-0.308,0.294-0.484,0.704v0.176
	c-0.352,1.349-0.807,2.684-1.364,4.004c-0.558,1.32-0.983,2.685-1.276,4.092c-0.294,1.408-0.603,2.801-0.924,4.181
	c-0.323,1.377-0.631,2.741-0.924,4.092c-0.118,0.527-0.235,1.069-0.352,1.628c-0.118,0.557-0.235,1.1-0.352,1.628
	c-0.118,0.528-0.308,1.012-0.572,1.452c-0.264,0.439-0.631,0.806-1.1,1.1c-0.294,0.176-0.514,0.366-0.66,0.572
	c-0.147,0.205-0.308,0.454-0.484,0.748c-0.118,0.293-0.264,0.601-0.44,0.924c-0.176,0.322-0.323,0.63-0.44,0.924
	c-0.235,0.41-0.646,0.616-1.232,0.616c-0.294-0.06-0.484-0.162-0.572-0.308c-0.088-0.147-0.191-0.339-0.308-0.572
	c-0.176-0.646-0.279-1.291-0.308-1.937C229.388,88.046,229.374,87.401,229.374,86.756z M242.31,61.236
	c0,0.939,0.352,1.76,1.056,2.464c0.645,0.646,1.202,0.955,1.672,0.924c0.469-0.029,0.968-0.425,1.496-1.188
	c0.645-0.821,1.173-1.686,1.584-2.596c0.41-0.909,0.792-1.862,1.144-2.86c0.41-1.173,0.762-2.346,1.056-3.52
	c0.293-1.173,0.616-2.346,0.968-3.52c0.293-0.821,0.088-1.437-0.616-1.848l-0.792-0.528c-0.822-0.645-1.526-1.393-2.112-2.244
	c-0.587-0.85-0.939-1.862-1.056-3.036c-0.059-0.117-0.088-0.22-0.088-0.308c0-0.088-0.03-0.19-0.088-0.308
	c0-0.176-0.059-0.264-0.176-0.264c-0.118-0.058-0.235,0.03-0.352,0.264c-0.646,0.939-1.159,1.878-1.54,2.816
	c-0.382,0.939-0.484,1.995-0.308,3.168c0.058,0.118,0.073,0.235,0.044,0.352c-0.03,0.118-0.044,0.235-0.044,0.352
	c0,1.76-0.162,3.476-0.484,5.148c-0.323,1.672-0.66,3.359-1.012,5.06c-0.118,0.294-0.206,0.572-0.264,0.836
	C242.339,60.665,242.31,60.943,242.31,61.236z M253.75,38.62c0-0.292-0.015-0.557-0.044-0.792c-0.03-0.233-0.074-0.498-0.132-0.792
	c-0.235-0.88-0.763-1.084-1.584-0.616c-0.235,0.176-0.528,0.44-0.88,0.792c-1.056,1.115-1.76,2.552-2.112,4.312
	c-0.176,1.115-0.088,2.2,0.264,3.256c0.41,0.999,1.114,1.702,2.112,2.112c0.528,0.176,0.85,0.03,0.968-0.44
	c0.117-0.352,0.205-0.688,0.264-1.012c0.058-0.322,0.146-0.66,0.264-1.012c0.176-0.997,0.337-1.965,0.484-2.904
	C253.5,40.587,253.631,39.619,253.75,38.62z"/>
<path class="st0" d="M302.945,63.263c0-0.999,0.103-1.95,0.309-2.86c0.205-0.909,0.425-1.833,0.66-2.772
	c0.645-2.464,1.275-4.928,1.892-7.392c0.616-2.464,1.246-4.928,1.892-7.392v-0.352c0.117-0.41,0.146-0.66,0.089-0.748
	c-0.06-0.088-0.295-0.19-0.704-0.308c-0.177-0.058-0.44-0.088-0.792-0.088c-1.879-0.41-3.652-0.997-5.324-1.76
	c-1.672-0.762-3.184-1.848-4.532-3.256c-1.584-1.584-2.552-3.373-2.904-5.368c-0.294-1.349-0.103-2.668,0.572-3.96
	c0.674-1.29,1.628-2.258,2.86-2.904c0.762-0.352,1.524-0.498,2.288-0.44c0.469,0.059,0.938,0.147,1.408,0.264
	c0.469,0.119,0.938,0.235,1.407,0.352c1.057,0.352,1.701,1.086,1.937,2.2c0.293,1.115,0.264,2.2-0.088,3.256
	c-0.177,0.646-0.396,1.291-0.66,1.936c-0.264,0.646-0.515,1.291-0.748,1.936c-0.176,0.47-0.235,0.807-0.176,1.012
	c0.058,0.206,0.321,0.455,0.792,0.748c0.409,0.294,0.82,0.484,1.231,0.572c0.41,0.088,0.85,0.162,1.32,0.22
	c1.349,0.176,2.581,0.03,3.696-0.44c0.938-0.41,1.349-1.025,1.231-1.848c-0.059-0.469,0.014-0.821,0.22-1.056
	c0.205-0.234,0.454-0.498,0.748-0.792c0.117-0.117,0.381-0.176,0.792-0.176c0.47,0.118,0.821,0.235,1.057,0.352
	c1.877,0.587,3.637,0.91,5.279,0.968c0.704,0,1.378,0.176,2.024,0.528c0.528,0.294,0.674,0.704,0.44,1.232
	c-0.646,2.055-1.219,4.107-1.717,6.16c-0.499,2.054-1.012,4.107-1.54,6.16c-0.47,1.643-0.91,3.256-1.319,4.84
	c-0.411,1.584-0.88,3.168-1.408,4.752c-0.06,0.176-0.104,0.367-0.132,0.572c-0.03,0.206-0.104,0.396-0.22,0.572
	c-0.822,1.76-1.438,3.564-1.849,5.412c-0.411,1.848-0.851,3.71-1.319,5.588c-0.119,0.528-0.191,1.056-0.221,1.584
	c-0.03,0.528-0.015,1.056,0.044,1.584c0.058,0.469,0.249,0.924,0.572,1.364c0.322,0.439,0.733,0.792,1.232,1.056
	c0.497,0.265,1.056,0.396,1.672,0.396s1.188-0.235,1.716-0.704c0.41-0.353,0.762-0.734,1.056-1.145
	c0.293-0.411,0.586-0.851,0.88-1.319c0.938-1.644,1.818-3.463,2.641-5.456c2.17-4.928,4.253-9.826,6.248-14.696
	c1.993-4.869,3.93-9.826,5.808-14.872c0.176-0.469,0.366-0.894,0.572-1.276c0.205-0.381,0.425-0.777,0.66-1.188
	c0.176-0.528,0.497-0.704,0.968-0.528c0.645,0.294,0.909,0.704,0.792,1.232c-0.118,0.411-0.22,0.807-0.308,1.188
	c-0.089,0.382-0.191,0.778-0.309,1.188c-2.171,5.867-4.415,11.646-6.731,17.336c-2.318,5.691-4.797,11.381-7.437,17.072
	c-0.646,1.349-1.438,2.785-2.376,4.312c-0.528,0.997-1.159,1.584-1.892,1.76c-0.734,0.177-1.54,0.205-2.42,0.088
	c-1.468-0.176-2.904-0.733-4.312-1.672c-3.638-2.464-6.015-5.662-7.128-9.592c-0.176-0.587-0.294-1.159-0.352-1.716
	C302.975,64.42,302.945,63.849,302.945,63.263z M301.538,28.679c-0.06-0.176-0.074-0.352-0.044-0.528
	c0.028-0.176-0.044-0.322-0.221-0.44c-0.294-0.176-0.587-0.176-0.88,0c-0.294,0.176-0.47,0.382-0.527,0.616
	c-0.119,0.294-0.221,0.602-0.309,0.924c-0.088,0.323-0.191,0.66-0.308,1.012c-0.06,0.528,0.058,1.203,0.352,2.024
	c0.176,0.587,0.469,0.587,0.88,0c0.058-0.058,0.103-0.117,0.132-0.176c0.029-0.058,0.073-0.117,0.133-0.176
	C301.215,30.879,301.479,29.794,301.538,28.679z"/>
<path class="st0" d="M33.88,68.141c0.352-0.353,0.586-0.88,0.704-1.584l1.32-8.977c0.117-1.173,0.234-2.316,0.352-3.432
	c0.117-1.114,0.234-2.258,0.352-3.432c0.117-0.997-0.147-1.761-0.792-2.288c-0.411-0.47-0.734-0.938-0.968-1.408
	c-0.235-0.469-0.44-0.997-0.616-1.584c-0.763-2.698-1.262-5.309-1.496-7.832c-0.235-2.405,0.352-4.693,1.76-6.864
	c0.117-0.233,0.264-0.439,0.44-0.616c1.408-1.993,3.168-2.316,5.28-0.968c0.528,0.353,0.968,0.778,1.32,1.276
	c0.352,0.499,0.673,1.012,0.968,1.54c0.469,0.938,0.836,1.892,1.1,2.859c0.264,0.969,0.484,1.951,0.66,2.948
	c0.292,1.702,0.498,3.418,0.616,5.148c0.117,1.73,0.205,3.446,0.264,5.147c0,0.471,0.058,0.748,0.176,0.836
	c0.117,0.088,0.41,0.074,0.88-0.044c2.17-0.586,4.048-1.496,5.632-2.728c0.645-0.528,1.158-1.114,1.54-1.761
	c0.381-0.645,0.718-1.319,1.012-2.023c0.293-0.586,0.528-1.158,0.704-1.716c0.176-0.558,0.352-1.129,0.528-1.716
	c0.176-0.704,0.616-0.997,1.32-0.881c0.704,0.118,1.026,0.528,0.968,1.232c-0.176,0.88-0.396,1.731-0.66,2.552
	c-0.264,0.822-0.66,1.614-1.188,2.376c-2.112,2.699-4.723,4.636-7.832,5.809c-0.176,0.059-0.352,0.118-0.528,0.176
	c-0.176,0.059-0.323,0.118-0.44,0.176c-0.528,0.176-0.954,0.323-1.276,0.44c-0.323,0.118-0.558,0.278-0.704,0.483
	c-0.147,0.206-0.22,0.471-0.22,0.792c0,0.323,0,0.778,0,1.364c0,1.174,0,2.303,0,3.388c0,1.087-0.03,2.216-0.088,3.389
	c-0.118,0.938-0.25,1.862-0.396,2.771c-0.147,0.91-0.455,1.775-0.924,2.596c-0.235,0.411-0.44,0.837-0.616,1.276
	c-0.176,0.44-0.382,0.894-0.616,1.364c-0.822,1.584-1.995,2.785-3.52,3.607c-1.526,0.821-3.139,1.085-4.84,0.792
	c-1.995-0.294-3.287-1.379-3.872-3.256c-0.999-3.168-1.643-6.481-1.936-9.943c-0.059-0.821-0.163-1.643-0.308-2.465
	c-0.147-0.82-0.279-1.642-0.396-2.464c-0.176,0.06-0.308,0.132-0.396,0.221c-0.088,0.088-0.191,0.19-0.308,0.308
	c-0.822,0.822-1.584,1.672-2.288,2.552c-0.704,0.88-1.408,1.76-2.112,2.641c-1.174,1.584-2.494,3.007-3.96,4.268
	c-1.467,1.263-3.051,2.39-4.752,3.388c-0.646,0.41-1.306,0.718-1.98,0.925c-0.675,0.204-1.423,0.22-2.244,0.044
	c-0.998-0.235-1.936-0.792-2.816-1.673c-1.35-1.349-2.464-2.815-3.344-4.399c-0.88-1.584-1.584-3.285-2.112-5.104
	C0.41,55.088,0,52.52,0,49.969c0-2.553,0.264-5.148,0.792-7.788c0.469-2.053,1.026-4.033,1.672-5.94
	c0.645-1.905,1.29-3.828,1.936-5.764c0.234-0.646,0.454-1.276,0.66-1.893c0.205-0.615,0.366-1.245,0.484-1.892
	c0.117-0.528,0.293-1.012,0.528-1.452c0.234-0.439,0.498-0.894,0.792-1.364c0.469-0.704,0.924-1.377,1.364-2.023
	c0.44-0.646,0.836-1.349,1.188-2.112c0.293-0.586,0.821-0.762,1.584-0.528c2.229,0.999,3.608,2.583,4.136,4.752
	c0.528,2.759,0.586,5.368,0.176,7.832c-0.294,1.468-0.66,2.904-1.1,4.312s-0.895,2.787-1.364,4.136
	c-0.528,1.408-1.027,2.803-1.496,4.181c-0.47,1.379-0.822,2.831-1.056,4.355c-0.059,0.471-0.103,0.968-0.132,1.496
	c-0.03,0.528-0.044,1.027-0.044,1.496c0.117,1.878,0.249,3.727,0.396,5.544c0.146,1.819,0.337,3.638,0.572,5.456
	c0.058,0.235,0.102,0.455,0.132,0.66c0.029,0.206,0.102,0.396,0.22,0.571c0.293,0.588,0.704,0.704,1.232,0.353
	c0.176-0.117,0.381-0.293,0.616-0.528c0.762-0.82,1.51-1.656,2.244-2.508c0.733-0.85,1.452-1.686,2.156-2.508
	c0.528-0.586,1.026-1.202,1.496-1.849c0.469-0.645,0.85-1.319,1.144-2.023c0.292-0.586,0.629-1.145,1.012-1.672
	c0.381-0.528,0.777-1.026,1.188-1.496c0.469-0.528,0.953-1.07,1.452-1.628c0.498-0.557,0.982-1.129,1.452-1.716
	c0.645-0.762,1.188-1.584,1.628-2.465c0.44-0.88,0.718-1.817,0.836-2.815c0-0.117,0.014-0.189,0.044-0.22
	c0.029-0.029,0.044-0.103,0.044-0.221c0.176-0.527,0.498-0.792,0.968-0.792c0.292,0,0.469,0.074,0.528,0.221
	c0.058,0.146,0.146,0.308,0.264,0.483c0.117,0.411,0.176,0.822,0.176,1.232c0,0.411,0.029,0.822,0.088,1.231
	c0.117,1.175,0.161,2.348,0.132,3.521c-0.03,1.174,0.014,2.347,0.132,3.52c0.176,2.348,0.484,4.664,0.924,6.952
	s0.982,4.576,1.628,6.864c0.117,0.352,0.249,0.718,0.396,1.1C33.366,67.421,33.585,67.788,33.88,68.141z M37.048,46.228
	c0.176-0.176,0.322-0.498,0.44-0.968c0.117-1.584,0.205-3.197,0.264-4.841c0.058-1.642,0.029-3.284-0.088-4.928
	c0-0.762-0.088-1.496-0.264-2.2c-0.235-0.82-0.646-0.938-1.232-0.352c-0.294,0.294-0.528,0.675-0.704,1.144
	c-0.411,0.999-0.616,1.995-0.616,2.992c0,0.998,0.088,1.995,0.264,2.992c0.117,0.939,0.337,1.834,0.66,2.684
	c0.322,0.852,0.572,1.717,0.748,2.597C36.637,45.818,36.813,46.111,37.048,46.228z"/>
<path class="st0" d="M117.735,64.691c2.405-1.877,4.488-3.96,6.248-6.248s3.226-4.84,4.4-7.656c0.293-0.82,0.586-1.612,0.88-2.376
	c0.293-0.762,0.557-1.554,0.792-2.376c0.058-0.116,0.102-0.264,0.132-0.439c0.029-0.177,0.073-0.322,0.132-0.44
	c0.117-0.293,0.322-0.528,0.616-0.704c0.293-0.176,0.528-0.205,0.704-0.088c0.293,0.06,0.513,0.25,0.66,0.572
	c0.146,0.323,0.16,0.631,0.044,0.924c0,0.118-0.016,0.191-0.044,0.22c-0.03,0.03-0.044,0.104-0.044,0.221
	c-0.646,1.525-1.307,3.08-1.98,4.664c-0.675,1.584-1.364,3.139-2.067,4.663c-0.704,1.468-1.526,2.847-2.465,4.137
	c-0.938,1.291-1.995,2.464-3.168,3.52c-0.646,0.646-1.306,1.247-1.979,1.805c-0.676,0.558-1.335,1.13-1.98,1.716
	c-0.47,0.411-0.836,0.851-1.1,1.319c-0.264,0.471-0.455,1.027-0.572,1.673c-0.118,1.056-0.323,2.111-0.616,3.168
	c-0.294,1.056-0.646,2.081-1.056,3.079c-0.176,0.47-0.264,0.909-0.264,1.32c-0.06,0.821-0.191,1.628-0.396,2.42
	c-0.206,0.792-0.455,1.569-0.748,2.332c-0.176,0.41-0.352,0.792-0.527,1.145c-0.177,0.352-0.353,0.704-0.528,1.056
	c-0.235,0.528-0.499,0.997-0.792,1.408c-0.294,0.409-0.646,0.82-1.056,1.231c-0.646,0.528-1.203,1.114-1.673,1.761
	c-0.47,0.645-0.91,1.319-1.319,2.023c-0.353,0.646-0.734,1.305-1.145,1.98c-0.411,0.674-0.822,1.333-1.231,1.979
	c-0.528,0.762-1.145,1.408-1.849,1.937c-0.704,0.527-1.467,0.996-2.288,1.407c-0.587,0.293-1.275,0.322-2.067,0.089
	c-0.792-0.235-1.423-0.646-1.893-1.232c-0.294-0.294-0.571-0.587-0.836-0.88c-0.264-0.294-0.543-0.587-0.836-0.88
	c-0.88-0.939-1.262-2.083-1.144-3.433c0.117-1.114,0.365-2.155,0.748-3.124c0.381-0.968,0.924-1.892,1.628-2.771
	c1.113-1.351,2.288-2.655,3.52-3.916c1.232-1.263,2.493-2.479,3.784-3.652c0.41-0.411,0.733-0.704,0.968-0.88
	c0.528-0.47,0.851-1.144,0.969-2.023c0.116-1.232,0.248-2.465,0.396-3.696c0.146-1.232,0.309-2.464,0.484-3.696
	c0-0.233,0.014-0.469,0.044-0.704c0.028-0.233-0.044-0.409-0.22-0.527c-0.295-0.117-0.528-0.103-0.704,0.044
	c-0.177,0.146-0.383,0.308-0.616,0.483c-2.288,1.644-4.752,1.879-7.393,0.704c-3.872-1.76-6.159-4.81-6.863-9.151
	c-0.235-1.29-0.309-2.553-0.221-3.784c0.089-1.232,0.19-2.493,0.309-3.784c0.293-2.757,0.718-5.47,1.275-8.14
	c0.558-2.669,1.218-5.324,1.98-7.965c0.117-0.293,0.22-0.585,0.308-0.88c0.088-0.293,0.19-0.586,0.309-0.88
	c0.293-0.528,0.732-0.704,1.319-0.528c1.173,0.295,2.214,0.983,3.124,2.068c0.909,1.086,1.422,2.274,1.54,3.564
	c0.117,1.702,0.161,3.374,0.133,5.016c-0.03,1.644-0.104,3.286-0.221,4.928c-0.294,3.11-0.851,6.072-1.672,8.889
	c-0.411,1.174-0.603,2.362-0.572,3.563c0.029,1.203,0.19,2.42,0.484,3.652c0.058,0.176,0.117,0.367,0.176,0.572
	c0.058,0.206,0.146,0.396,0.265,0.571c0.233,0.587,0.673,0.734,1.319,0.44c0.293-0.058,0.586-0.234,0.88-0.528
	c0.938-0.586,1.789-1.261,2.553-2.023c0.762-0.762,1.466-1.584,2.111-2.465c0.586-0.762,0.88-1.672,0.88-2.728v-7.216
	c0.117-1.994,0.322-3.96,0.616-5.896c0.293-1.936,0.792-3.842,1.496-5.72c0.469-1.466,1.173-2.933,2.112-4.4
	c0.704-1.231,1.76-1.817,3.168-1.76c0.645,0,1.245,0.03,1.804,0.088c0.557,0.06,1.129,0.235,1.716,0.528
	c1.35,0.646,2.053,1.643,2.112,2.992c0,1.467,0.088,2.846,0.264,4.136c0.058,0.646,0.014,1.247-0.132,1.804
	c-0.147,0.559-0.338,1.101-0.572,1.628c-0.294,0.646-0.602,1.291-0.924,1.937c-0.323,0.646-0.69,1.262-1.1,1.848
	c-0.822,1.408-1.115,2.847-0.88,4.312c0.176,1.174,0.264,2.347,0.264,3.52c-0.059,1.232-0.074,2.464-0.044,3.696
	c0.029,1.231-0.015,2.464-0.132,3.696c0,0.176,0.014,0.352,0.044,0.527C117.544,64.25,117.617,64.457,117.735,64.691z
	 M105.327,80.443c-0.47,0.293-0.895,0.63-1.275,1.012c-0.383,0.381-0.778,0.718-1.188,1.013c-0.998,0.704-1.863,1.496-2.596,2.376
	c-0.734,0.88-1.423,1.817-2.068,2.815c-0.646,0.938-0.866,1.921-0.66,2.948c0.205,1.025,0.718,1.861,1.54,2.508
	c0.47,0.353,0.881,0.557,1.232,0.616c0.645,0.117,1.144-0.088,1.496-0.616c0.117-0.118,0.189-0.22,0.22-0.308
	c0.029-0.088,0.073-0.191,0.132-0.309c1.525-2.991,2.553-6.043,3.08-9.151c0.058-0.471,0.117-0.939,0.176-1.408
	C105.473,81.468,105.444,80.971,105.327,80.443z M117.119,44.362c0.821-1.056,1.32-2.258,1.496-3.607
	c0.117-0.586,0.177-1.158,0.177-1.717c0-0.557-0.119-1.129-0.353-1.716c-0.118-0.176-0.206-0.352-0.264-0.527
	c-0.06-0.177-0.206-0.293-0.44-0.353c-0.411,1.115-0.763,2.318-1.056,3.608c-0.118,0.763-0.176,1.496-0.176,2.199
	C116.504,42.954,116.708,43.658,117.119,44.362z"/>
<g>
	<path class="st0" d="M358.584,16.923c3.103,0,5.857,0.95,8.266,2.85c1.392,1.078,2.564,2.344,3.515,3.8
		c0.822,1.078,1.33,2.344,1.52,3.8c0.062,0.317,0.127,0.603,0.19,0.855c0.062,0.253,0.126,0.539,0.19,0.855
		c0.062,0.57,0.062,1.078,0,1.52c-0.128,0.317-0.128,0.603,0,0.855c0.315,0.888,0.475,1.773,0.475,2.66
		c0,0.888-0.128,1.774-0.38,2.66c-0.57,2.598-1.425,5.004-2.565,7.22c-0.823,1.52-1.488,2.978-1.995,4.37
		c-0.189,0.508-0.412,0.966-0.665,1.377c-0.253,0.413-0.538,0.84-0.854,1.283c-0.444,0.698-0.888,1.363-1.33,1.995
		c-0.443,0.634-0.888,1.299-1.33,1.995c-0.317,0.317-0.617,0.665-0.902,1.045c-0.285,0.38-0.586,0.729-0.902,1.045
		c-1.141,1.268-2.059,2.629-2.755,4.085c-0.698,1.458-1.299,3.009-1.806,4.655c-0.063,0.19-0.111,0.396-0.143,0.618
		c-0.032,0.223-0.111,0.46-0.237,0.712c-0.254,0.57-0.603,0.983-1.045,1.235c-0.888,0.317-1.727,0.475-2.518,0.475
		c-0.792,0-1.567-0.252-2.327-0.76c-0.95-0.632-1.647-1.456-2.09-2.47c-0.19-0.632-0.35-1.25-0.476-1.853
		c-0.127-0.601-0.189-1.218-0.189-1.853c0.062-1.076,0.157-2.121,0.285-3.135c0.126-1.012,0.284-2.026,0.475-3.04
		c0.19-0.886,0.49-1.757,0.902-2.612c0.411-0.855,0.87-1.663,1.378-2.423c1.266-1.9,2.564-3.767,3.895-5.605
		c1.33-1.836,2.723-3.61,4.18-5.32c0.633-0.76,1.203-1.52,1.711-2.28c1.076-1.457,1.867-3.008,2.375-4.655
		c0.506-1.646,0.822-3.356,0.949-5.13c0.062-2.026-0.443-3.99-1.52-5.89c-0.634-1.202-1.679-1.805-3.135-1.805
		c-3.864,0.128-6.873,1.774-9.025,4.94c-1.204,1.773-1.268,3.705-0.19,5.795c0.316,0.57,0.728,1.204,1.235,1.9
		c0.19,0.254,0.157,0.475-0.095,0.665l-0.19,0.19c-0.569,0.57-1.173,0.634-1.805,0.19c-0.95-0.632-1.647-1.392-2.09-2.28
		c-0.888-1.457-1.395-3.103-1.521-4.94c-0.063-1.393,0.411-2.755,1.425-4.085C350.32,18.761,354.025,16.923,358.584,16.923z
		 M356.589,76.774c-0.189,0.76-0.317,1.599-0.38,2.518c-0.063,0.917-0.38,1.789-0.95,2.612c-0.127,0.126-0.253,0.316-0.38,0.57
		c-0.443,0.57-1.045,0.76-1.805,0.57c-0.634-0.19-1.14-0.413-1.52-0.665c-0.444-0.19-0.872-0.396-1.283-0.618
		c-0.412-0.223-0.84-0.46-1.282-0.712c-0.57-0.38-0.95-0.824-1.14-1.33c-0.19-0.444-0.365-0.888-0.522-1.33
		c-0.159-0.444-0.302-0.888-0.428-1.33c0-0.317,0.062-0.539,0.189-0.665c0.761-0.696,1.504-1.361,2.232-1.995
		c0.728-0.632,1.473-1.297,2.233-1.995c0.38-0.38,0.838-0.585,1.377-0.618c0.537-0.031,1.06,0.048,1.567,0.238
		c0.507,0.19,0.934,0.491,1.282,0.902c0.348,0.413,0.523,0.84,0.523,1.283c0,0.38,0.047,0.776,0.142,1.188
		C356.542,75.809,356.589,76.267,356.589,76.774z"/>
</g>
</svg>